<svg width="44" height="10" viewBox="0 0 44 10" fill="none" xmlns="http://www.w3.org/2000/svg">
<path d="M1.185 9.33C0.805003 9.33 0.530003 9.27 0.360003 9.15C0.190003 9.03 0.090003 8.9 0.0600031 8.76C0.0200031 8.62 3.04729e-06 8.515 3.04729e-06 8.445C0.010003 8.315 0.070003 8.21 0.180003 8.13C0.280003 8.05 0.395003 8.01 0.525003 8.01C0.605003 8.01 0.675003 8.03 0.735003 8.07C0.795003 8.1 0.825003 8.17 0.825003 8.28C0.825003 8.38 0.790003 8.45 0.720003 8.49C0.650003 8.53 0.575003 8.55 0.495003 8.55C0.425003 8.55 0.365003 8.54 0.315003 8.52C0.255003 8.5 0.225003 8.49 0.225003 8.49C0.225003 8.76 0.325003 8.94 0.525003 9.03C0.725003 9.12 0.950003 9.165 1.2 9.165C1.59 9.165 1.99 9.055 2.4 8.835C2.82 8.615 3.25 8.325 3.69 7.965C4.13 7.595 4.58 7.185 5.04 6.735C5.51 6.275 5.99 5.815 6.48 5.355C7.01 4.855 7.535 4.36 8.055 3.87C8.585 3.37 9.095 2.92 9.585 2.52C10.075 2.12 10.53 1.8 10.95 1.56C11.37 1.32 11.745 1.2 12.075 1.2C12.185 1.2 12.23 1.22 12.21 1.26C12.2 1.3 12.12 1.33 11.97 1.35C11.62 1.41 11.235 1.57 10.815 1.83C10.405 2.08 9.97 2.405 9.51 2.805C9.05 3.195 8.575 3.625 8.085 4.095C7.605 4.555 7.115 5.02 6.615 5.49C6.155 5.93 5.69 6.375 5.22 6.825C4.76 7.275 4.3 7.69 3.84 8.07C3.39 8.45 2.94 8.755 2.49 8.985C2.05 9.215 1.615 9.33 1.185 9.33ZM5.805 8.655C5.745 8.675 5.675 8.69 5.595 8.7C5.525 8.7 5.505 8.675 5.535 8.625C5.565 8.575 5.62 8.49 5.7 8.37C5.79 8.24 5.87 8.085 5.94 7.905C6.02 7.725 6.06 7.54 6.06 7.35C6.06 7.1 6.015 6.815 5.925 6.495C5.845 6.165 5.71 5.845 5.52 5.535C5.34 5.225 5.095 4.97 4.785 4.77C4.485 4.56 4.115 4.455 3.675 4.455C3.385 4.455 3.135 4.525 2.925 4.665C2.725 4.805 2.57 4.975 2.46 5.175C2.36 5.365 2.31 5.55 2.31 5.73C2.31 6.12 2.425 6.49 2.655 6.84C2.895 7.19 3.255 7.475 3.735 7.695C4.215 7.905 4.81 8.01 5.52 8.01C6.3 8.01 7 7.875 7.62 7.605C8.24 7.335 8.76 6.985 9.18 6.555C9.6 6.125 9.895 5.675 10.065 5.205C10.115 5.055 10.155 5.005 10.185 5.055C10.225 5.095 10.245 5.135 10.245 5.175C10.245 5.515 10.13 5.86 9.9 6.21C9.67 6.56 9.345 6.885 8.925 7.185C8.505 7.475 8.02 7.71 7.47 7.89C6.92 8.07 6.32 8.16 5.67 8.16C5 8.16 4.38 8.065 3.81 7.875C3.25 7.685 2.795 7.405 2.445 7.035C2.105 6.665 1.935 6.22 1.935 5.7C1.935 5.35 2.08 5.03 2.37 4.74C2.67 4.44 3.105 4.29 3.675 4.29C4.155 4.29 4.555 4.4 4.875 4.62C5.205 4.84 5.47 5.11 5.67 5.43C5.87 5.75 6.015 6.07 6.105 6.39C6.195 6.71 6.24 6.975 6.24 7.185C6.24 7.415 6.21 7.645 6.15 7.875C6.09 8.095 6.025 8.28 5.955 8.43C5.895 8.57 5.845 8.645 5.805 8.655ZM4.92 9.3C4.93 9.29 5.03 9.17 5.22 8.94C5.41 8.71 5.66 8.405 5.97 8.025C6.28 7.645 6.63 7.22 7.02 6.75C7.41 6.27 7.815 5.78 8.235 5.28C8.655 4.78 9.065 4.295 9.465 3.825C9.875 3.345 10.25 2.915 10.59 2.535C10.94 2.145 11.23 1.835 11.46 1.605C11.7 1.375 11.855 1.255 11.925 1.245C11.975 1.225 12.02 1.225 12.06 1.245C12.1 1.265 12.09 1.3 12.03 1.35C11.99 1.38 11.85 1.545 11.61 1.845C11.37 2.135 11.065 2.52 10.695 3C10.335 3.47 9.94 3.99 9.51 4.56C9.09 5.12 8.67 5.68 8.25 6.24C7.83 6.79 7.445 7.3 7.095 7.77C6.755 8.23 6.475 8.6 6.255 8.88C6.045 9.16 5.935 9.3 5.925 9.3C5.885 9.29 5.815 9.28 5.715 9.27C5.625 9.26 5.535 9.255 5.445 9.255C5.355 9.255 5.25 9.26 5.13 9.27C5.02 9.29 4.95 9.3 4.92 9.3ZM10.3277 9.18C10.1377 9.18 9.96274 9.125 9.80274 9.015C9.63274 8.895 9.54774 8.71 9.54774 8.46C9.54774 8.2 9.64774 7.855 9.84774 7.425C10.0377 6.995 10.3027 6.515 10.6427 5.985C10.9827 5.455 11.3627 4.915 11.7827 4.365C12.2127 3.805 12.6577 3.27 13.1177 2.76C13.5877 2.24 14.0477 1.775 14.4977 1.365C14.9477 0.944998 15.3627 0.614998 15.7427 0.374998C16.1227 0.124998 16.4427 -2.5034e-06 16.7027 -2.5034e-06C16.8727 0.00999737 16.9827 0.0449975 17.0327 0.104998C17.0927 0.154998 17.1227 0.234998 17.1227 0.344998C17.1227 0.684998 17.0177 1.035 16.8077 1.395C16.6077 1.755 16.3377 2.11 15.9977 2.46C15.6577 2.8 15.2877 3.12 14.8877 3.42C14.4877 3.72 14.0877 3.985 13.6877 4.215C13.2977 4.445 12.9377 4.625 12.6077 4.755C12.2877 4.885 12.0427 4.95 11.8727 4.95C11.7627 4.95 11.6977 4.92 11.6777 4.86C11.6577 4.79 11.7227 4.755 11.8727 4.755C12.2227 4.755 12.6177 4.645 13.0577 4.425C13.5077 4.195 13.9577 3.905 14.4077 3.555C14.8577 3.195 15.2727 2.815 15.6527 2.415C16.0327 2.005 16.3377 1.62 16.5677 1.26C16.8077 0.899998 16.9277 0.604998 16.9277 0.374998C16.9277 0.214998 16.8477 0.134998 16.6877 0.134998C16.5277 0.134998 16.3027 0.259998 16.0127 0.509998C15.7227 0.749998 15.3927 1.075 15.0227 1.485C14.6627 1.895 14.2777 2.355 13.8677 2.865C13.4577 3.365 13.0477 3.875 12.6377 4.395C12.2077 4.945 11.7777 5.485 11.3477 6.015C10.9277 6.545 10.5777 7.03 10.2977 7.47C10.0177 7.91 9.87774 8.28 9.87774 8.58C9.87774 8.73 9.91774 8.845 9.99774 8.925C10.0677 8.995 10.1877 9.03 10.3577 9.03C10.6977 9.03 11.0227 8.94 11.3327 8.76C11.6427 8.58 11.9177 8.35 12.1577 8.07C12.3977 7.78 12.5877 7.48 12.7277 7.17C12.8677 6.85 12.9377 6.555 12.9377 6.285C12.9377 6.225 12.9177 6.12 12.8777 5.97C12.8477 5.81 12.8477 5.665 12.8777 5.535C12.9177 5.405 13.0327 5.34 13.2227 5.34C13.3227 5.34 13.4027 5.38 13.4627 5.46C13.5227 5.53 13.5527 5.62 13.5527 5.73C13.5527 6.1 13.4627 6.485 13.2827 6.885C13.1127 7.285 12.8777 7.66 12.5777 8.01C12.2777 8.36 11.9327 8.645 11.5427 8.865C11.1627 9.075 10.7577 9.18 10.3277 9.18ZM13.2827 8.055C13.1127 8.055 12.9927 8.005 12.9227 7.905C12.8627 7.805 12.8327 7.7 12.8327 7.59C12.8327 7.47 12.8327 7.38 12.8327 7.32C12.8327 7.32 12.8627 7.315 12.9227 7.305C12.9827 7.285 13.0127 7.27 13.0127 7.26C13.0127 7.3 13.0077 7.375 12.9977 7.485C12.9877 7.585 12.9977 7.68 13.0277 7.77C13.0677 7.86 13.1527 7.905 13.2827 7.905C13.4327 7.905 13.5877 7.855 13.7477 7.755C13.9177 7.645 14.0777 7.52 14.2277 7.38C14.3777 7.24 14.4977 7.115 14.5877 7.005C14.6877 6.885 14.7427 6.81 14.7527 6.78C14.7527 6.78 14.7727 6.795 14.8127 6.825C14.8527 6.855 14.8727 6.87 14.8727 6.87C14.8527 6.9 14.7877 6.98 14.6777 7.11C14.5777 7.23 14.4477 7.365 14.2877 7.515C14.1377 7.655 13.9727 7.78 13.7927 7.89C13.6227 8 13.4527 8.055 13.2827 8.055ZM17.2973 5.22C17.7973 5.22 18.0473 5.46 18.0473 5.94C18.0473 6.31 17.9623 6.69 17.7923 7.08C17.6223 7.46 17.3923 7.81 17.1023 8.13C16.8123 8.44 16.4973 8.695 16.1573 8.895C15.8173 9.085 15.4723 9.18 15.1223 9.18C14.8523 9.18 14.6273 9.115 14.4473 8.985C14.2573 8.845 14.1623 8.62 14.1623 8.31C14.1623 8.02 14.2473 7.7 14.4173 7.35C14.5873 6.99 14.8173 6.65 15.1073 6.33C15.4073 6.01 15.7423 5.745 16.1123 5.535C16.4923 5.325 16.8873 5.22 17.2973 5.22ZM17.4623 5.43C17.2923 5.43 17.0923 5.505 16.8623 5.655C16.6323 5.805 16.3973 6 16.1573 6.24C15.9173 6.48 15.6923 6.74 15.4823 7.02C15.2823 7.29 15.1173 7.555 14.9873 7.815C14.8673 8.075 14.8073 8.295 14.8073 8.475C14.8073 8.675 14.8623 8.815 14.9723 8.895C15.0823 8.965 15.2073 9 15.3473 9C15.5773 9 15.8373 8.905 16.1273 8.715C16.4173 8.515 16.6973 8.265 16.9673 7.965C17.2373 7.665 17.4573 7.35 17.6273 7.02C17.8073 6.68 17.8973 6.37 17.8973 6.09C17.8973 5.83 17.8523 5.655 17.7623 5.565C17.6723 5.475 17.5723 5.43 17.4623 5.43ZM17.7323 6.975C17.7823 6.975 17.8023 6.995 17.7923 7.035C17.7923 7.065 17.7673 7.08 17.7173 7.08C17.6773 7.08 17.6173 7.135 17.5373 7.245C17.4673 7.345 17.4023 7.45 17.3423 7.56C17.2823 7.67 17.2523 7.73 17.2523 7.74C17.2523 7.97 17.3373 8.085 17.5073 8.085C17.6673 8.085 17.8473 8.01 18.0473 7.86C18.2573 7.71 18.4573 7.54 18.6473 7.35C18.8473 7.15 19.0073 6.975 19.1273 6.825L19.2473 6.93C19.1173 7.08 18.9523 7.26 18.7523 7.47C18.5523 7.67 18.3423 7.85 18.1223 8.01C17.9023 8.16 17.6973 8.235 17.5073 8.235C17.3473 8.235 17.2373 8.2 17.1773 8.13C17.1173 8.06 17.0873 7.935 17.0873 7.755C17.0873 7.515 17.1673 7.325 17.3273 7.185C17.4973 7.045 17.6323 6.975 17.7323 6.975ZM20.4465 5.235C20.5365 5.275 20.6715 5.295 20.8515 5.295C21.0415 5.295 21.2015 5.285 21.3315 5.265C21.0815 5.565 20.8015 5.89 20.4915 6.24C20.1815 6.58 19.8865 6.92 19.6065 7.26C19.3265 7.6 19.0965 7.905 18.9165 8.175C18.7265 8.445 18.6315 8.655 18.6315 8.805C18.6315 8.905 18.6615 8.97 18.7215 9C18.7715 9.03 18.8365 9.045 18.9165 9.045C19.1565 9.045 19.4215 8.95 19.7115 8.76C20.0115 8.57 20.3165 8.325 20.6265 8.025C20.9465 7.715 21.2565 7.385 21.5565 7.035C21.8565 6.685 22.1315 6.355 22.3815 6.045C22.6415 5.725 22.8615 5.46 23.0415 5.25C23.1415 5.28 23.2815 5.295 23.4615 5.295C23.6415 5.295 23.7965 5.285 23.9265 5.265C23.6665 5.595 23.3765 5.945 23.0565 6.315C22.7365 6.675 22.4265 7.025 22.1265 7.365C21.8365 7.695 21.5965 7.99 21.4065 8.25C21.2165 8.5 21.1215 8.69 21.1215 8.82C21.1215 8.88 21.1465 8.93 21.1965 8.97C21.2565 9 21.3365 9.015 21.4365 9.015C21.6565 9.015 21.8915 8.94 22.1415 8.79C22.4015 8.63 22.6565 8.435 22.9065 8.205C23.1665 7.965 23.4115 7.725 23.6415 7.485C23.8815 7.235 24.0865 7.015 24.2565 6.825L24.3765 6.93C24.2165 7.1 24.0165 7.315 23.7765 7.575C23.5465 7.825 23.2915 8.075 23.0115 8.325C22.7415 8.565 22.4665 8.77 22.1865 8.94C21.9065 9.1 21.6415 9.18 21.3915 9.18C21.2515 9.18 21.1215 9.14 21.0015 9.06C20.8815 8.98 20.8215 8.835 20.8215 8.625C20.8215 8.435 20.8665 8.24 20.9565 8.04C21.0465 7.83 21.1415 7.65 21.2415 7.5C21.3415 7.34 21.4015 7.245 21.4215 7.215L21.5265 7.26C21.4365 7.39 21.2915 7.565 21.0915 7.785C20.9015 7.995 20.6765 8.21 20.4165 8.43C20.1665 8.64 19.9015 8.82 19.6215 8.97C19.3415 9.11 19.0665 9.18 18.7965 9.18C18.3665 9.18 18.1515 8.955 18.1515 8.505C18.1515 8.315 18.2315 8.09 18.3915 7.83C18.5515 7.56 18.7565 7.275 19.0065 6.975C19.2465 6.665 19.4965 6.36 19.7565 6.06C20.0165 5.76 20.2465 5.485 20.4465 5.235ZM27.2535 2.565C27.3435 2.605 27.4735 2.625 27.6435 2.625C27.8235 2.615 27.9635 2.6 28.0635 2.58C27.7435 3.02 27.3885 3.505 26.9985 4.035C26.6085 4.565 26.2135 5.095 25.8135 5.625C25.4235 6.145 25.0585 6.635 24.7185 7.095C24.3885 7.545 24.1235 7.925 23.9235 8.235C23.7235 8.545 23.6235 8.74 23.6235 8.82C23.6235 8.88 23.6585 8.925 23.7285 8.955C23.7885 8.985 23.8685 9 23.9685 9C24.1885 9 24.4285 8.925 24.6885 8.775C24.9585 8.615 25.2235 8.42 25.4835 8.19C25.7535 7.95 25.9985 7.71 26.2185 7.47C26.4485 7.22 26.6285 7.005 26.7585 6.825L26.8785 6.915C26.7385 7.095 26.5535 7.31 26.3235 7.56C26.0935 7.81 25.8385 8.06 25.5585 8.31C25.2785 8.56 24.9885 8.77 24.6885 8.94C24.3985 9.1 24.1185 9.18 23.8485 9.18C23.6585 9.18 23.5085 9.14 23.3985 9.06C23.2785 8.99 23.2185 8.865 23.2185 8.685C23.2185 8.525 23.3135 8.28 23.5035 7.95C23.6935 7.61 23.9385 7.22 24.2385 6.78C24.5485 6.34 24.8835 5.875 25.2435 5.385C25.6035 4.885 25.9585 4.395 26.3085 3.915C26.6685 3.425 26.9835 2.975 27.2535 2.565ZM25.6035 4.245C25.5035 4.245 25.4535 4.215 25.4535 4.155C25.4535 4.105 25.5035 4.08 25.6035 4.08H28.4535C28.4835 4.08 28.5135 4.085 28.5435 4.095C28.5835 4.105 28.6035 4.125 28.6035 4.155C28.6035 4.195 28.5835 4.22 28.5435 4.23C28.5135 4.24 28.4835 4.245 28.4535 4.245H25.6035ZM36.7308 9.18C36.5108 9.18 36.3358 9.135 36.2058 9.045C36.0758 8.955 36.0108 8.84 36.0108 8.7C36.0108 8.52 36.0808 8.32 36.2208 8.1C36.3608 7.87 36.5308 7.63 36.7308 7.38C36.9408 7.13 37.1458 6.89 37.3458 6.66C37.5558 6.42 37.7308 6.205 37.8708 6.015C38.0108 5.825 38.0808 5.67 38.0808 5.55C38.0808 5.47 38.0608 5.415 38.0208 5.385C37.9808 5.355 37.9108 5.34 37.8108 5.34C37.6608 5.34 37.4608 5.42 37.2108 5.58C36.9708 5.73 36.7008 5.94 36.4008 6.21C36.1108 6.47 35.8108 6.765 35.5008 7.095C35.2008 7.415 34.9108 7.745 34.6308 8.085C34.3508 8.425 34.1108 8.745 33.9108 9.045C33.7908 9.005 33.6558 8.99 33.5058 9C33.3558 9.01 33.1958 9.03 33.0258 9.06C33.2558 8.77 33.5158 8.45 33.8058 8.1C34.1058 7.74 34.3908 7.39 34.6608 7.05C34.9308 6.71 35.1558 6.405 35.3358 6.135C35.5158 5.855 35.6058 5.65 35.6058 5.52C35.6058 5.45 35.5758 5.405 35.5158 5.385C35.4658 5.355 35.3908 5.34 35.2908 5.34C35.0808 5.34 34.8108 5.465 34.4808 5.715C34.1508 5.965 33.8008 6.285 33.4308 6.675C33.0608 7.055 32.6958 7.46 32.3358 7.89C31.9858 8.31 31.6758 8.695 31.4058 9.045C31.3058 9.015 31.1858 9 31.0458 9C30.9058 8.99 30.7358 9.01 30.5358 9.06C30.9058 8.51 31.2708 7.99 31.6308 7.5C32.0008 7 32.3058 6.57 32.5458 6.21C32.7958 5.85 32.9208 5.61 32.9208 5.49C32.9208 5.46 32.9108 5.44 32.8908 5.43C32.8808 5.41 32.8608 5.4 32.8308 5.4C32.7308 5.4 32.5908 5.495 32.4108 5.685C32.2408 5.875 32.0608 6.09 31.8708 6.33C31.6808 6.57 31.5108 6.775 31.3608 6.945L31.2258 6.855C31.3258 6.745 31.4458 6.6 31.5858 6.42C31.7258 6.23 31.8758 6.045 32.0358 5.865C32.2058 5.675 32.3758 5.515 32.5458 5.385C32.7158 5.255 32.8808 5.19 33.0408 5.19C33.1608 5.19 33.2608 5.225 33.3408 5.295C33.4308 5.355 33.4758 5.435 33.4758 5.535C33.4758 5.665 33.4358 5.81 33.3558 5.97C33.2758 6.12 33.1658 6.295 33.0258 6.495C32.8858 6.685 32.7258 6.895 32.5458 7.125C32.3758 7.355 32.1958 7.61 32.0058 7.89L32.0358 7.95C32.2358 7.74 32.4408 7.51 32.6508 7.26C32.8708 7.01 33.0958 6.765 33.3258 6.525C33.5558 6.285 33.7858 6.065 34.0158 5.865C34.2458 5.665 34.4808 5.505 34.7208 5.385C34.9608 5.265 35.1958 5.205 35.4258 5.205C35.6658 5.205 35.8308 5.265 35.9208 5.385C36.0108 5.505 36.0558 5.62 36.0558 5.73C36.0558 5.89 36.0258 6.05 35.9658 6.21C35.9058 6.37 35.8308 6.525 35.7408 6.675C35.6508 6.815 35.5608 6.945 35.4708 7.065C35.3808 7.175 35.3008 7.265 35.2308 7.335C35.1608 7.405 35.1208 7.45 35.1108 7.47L35.0208 7.395C35.0908 7.325 35.2008 7.205 35.3508 7.035C35.5008 6.865 35.6758 6.68 35.8758 6.48C36.0858 6.27 36.3058 6.07 36.5358 5.88C36.7658 5.68 36.9958 5.52 37.2258 5.4C37.4558 5.27 37.6758 5.205 37.8858 5.205C38.1358 5.205 38.3058 5.27 38.3958 5.4C38.4958 5.52 38.5458 5.63 38.5458 5.73C38.5458 5.95 38.4758 6.195 38.3358 6.465C38.1958 6.725 38.0208 6.99 37.8108 7.26C37.6008 7.52 37.3908 7.765 37.1808 7.995C36.9708 8.225 36.7958 8.42 36.6558 8.58C36.5158 8.73 36.4458 8.825 36.4458 8.865C36.4458 8.955 36.5508 9 36.7608 9C37.0308 9 37.3008 8.915 37.5708 8.745C37.8508 8.575 38.1158 8.37 38.3658 8.13C38.6158 7.88 38.8408 7.635 39.0408 7.395C39.2508 7.145 39.4208 6.95 39.5508 6.81L39.6708 6.9C39.5508 7.03 39.3808 7.22 39.1608 7.47C38.9508 7.72 38.7108 7.98 38.4408 8.25C38.1708 8.51 37.8908 8.73 37.6008 8.91C37.3108 9.09 37.0208 9.18 36.7308 9.18ZM40.2072 9.18C39.7372 9.18 39.4272 9.075 39.2772 8.865C39.1272 8.645 39.0522 8.415 39.0522 8.175C39.0522 7.765 39.1572 7.385 39.3672 7.035C39.5772 6.675 39.8472 6.355 40.1772 6.075C40.5072 5.795 40.8472 5.58 41.1972 5.43C41.5572 5.27 41.8772 5.19 42.1572 5.19C42.3572 5.19 42.5172 5.22 42.6372 5.28C42.7572 5.33 42.8172 5.44 42.8172 5.61C42.8172 5.77 42.7222 5.94 42.5322 6.12C42.3422 6.3 42.1022 6.475 41.8122 6.645C41.5222 6.805 41.2172 6.955 40.8972 7.095C40.5872 7.225 40.3022 7.33 40.0422 7.41C39.7822 7.49 39.5922 7.53 39.4722 7.53C39.4722 7.53 39.4722 7.505 39.4722 7.455C39.4722 7.395 39.4722 7.365 39.4722 7.365C39.5622 7.375 39.7172 7.345 39.9372 7.275C40.1672 7.205 40.4222 7.115 40.7022 7.005C40.9822 6.885 41.2522 6.75 41.5122 6.6C41.7822 6.45 42.0022 6.29 42.1722 6.12C42.3522 5.95 42.4422 5.785 42.4422 5.625C42.4422 5.545 42.4172 5.475 42.3672 5.415C42.3272 5.355 42.2522 5.325 42.1422 5.325C41.9822 5.325 41.7872 5.405 41.5572 5.565C41.3372 5.715 41.1122 5.915 40.8822 6.165C40.6522 6.415 40.4372 6.68 40.2372 6.96C40.0372 7.24 39.8722 7.51 39.7422 7.77C39.6222 8.02 39.5622 8.23 39.5622 8.4C39.5622 8.6 39.6222 8.75 39.7422 8.85C39.8622 8.95 40.0372 9 40.2672 9C40.6672 9 41.0422 8.905 41.3922 8.715C41.7522 8.515 42.0772 8.285 42.3672 8.025C42.6572 7.755 42.9022 7.505 43.1022 7.275C43.3022 7.035 43.4372 6.88 43.5072 6.81C43.5072 6.81 43.5222 6.825 43.5522 6.855C43.5922 6.885 43.6122 6.9 43.6122 6.9C43.5422 6.98 43.4072 7.14 43.2072 7.38C43.0072 7.62 42.7572 7.88 42.4572 8.16C42.1572 8.44 41.8172 8.68 41.4372 8.88C41.0572 9.08 40.6472 9.18 40.2072 9.18Z" fill="#BB8ED0"/>
</svg>
