<svg width="49" height="10" viewBox="0 0 49 10" fill="none" xmlns="http://www.w3.org/2000/svg">
<path d="M1.245 9.24C0.814999 9.24 0.499999 9.145 0.299999 8.955C0.099999 8.765 -9.61125e-07 8.57 -9.61125e-07 8.37C-9.61125e-07 8.22 0.049999 8.11 0.149999 8.04C0.239999 7.96 0.349999 7.92 0.479999 7.92C0.609999 7.92 0.699999 7.95 0.749999 8.01C0.799999 8.06 0.824999 8.12 0.824999 8.19C0.824999 8.29 0.784999 8.36 0.704999 8.4C0.624999 8.44 0.544999 8.46 0.464999 8.46C0.394999 8.46 0.344999 8.455 0.314999 8.445C0.274999 8.435 0.244999 8.425 0.224999 8.415C0.224999 8.595 0.314999 8.755 0.494999 8.895C0.664999 9.025 0.894999 9.09 1.185 9.09C1.595 9.09 2.01 8.955 2.43 8.685C2.85 8.405 3.255 8.065 3.645 7.665C4.045 7.255 4.425 6.84 4.785 6.42C5.145 6 5.47 5.645 5.76 5.355C6.17 4.945 6.595 4.515 7.035 4.065C7.475 3.615 7.935 3.185 8.415 2.775C8.905 2.365 9.415 2.015 9.945 1.725C10.475 1.425 11.03 1.23 11.61 1.14C11.75 1.12 11.83 1.13 11.85 1.17C11.88 1.2 11.855 1.225 11.775 1.245C11.225 1.345 10.71 1.53 10.23 1.8C9.76 2.06 9.295 2.405 8.835 2.835C8.385 3.255 7.915 3.76 7.425 4.35C6.945 4.93 6.42 5.59 5.85 6.33C5.6 6.66 5.31 6.995 4.98 7.335C4.65 7.675 4.285 7.99 3.885 8.28C3.485 8.57 3.065 8.805 2.625 8.985C2.185 9.155 1.725 9.24 1.245 9.24ZM6.045 9.24C5.285 9.24 4.905 9.03 4.905 8.61C4.905 8.36 5.005 8.115 5.205 7.875C5.405 7.625 5.66 7.395 5.97 7.185C6.29 6.975 6.62 6.81 6.96 6.69C7.3 6.57 7.61 6.515 7.89 6.525C7.95 6.525 7.99 6.55 8.01 6.6C8.03 6.64 7.99 6.66 7.89 6.66C7.63 6.66 7.34 6.72 7.02 6.84C6.7 6.95 6.39 7.1 6.09 7.29C5.8 7.48 5.56 7.69 5.37 7.92C5.18 8.15 5.085 8.38 5.085 8.61C5.085 8.78 5.16 8.9 5.31 8.97C5.46 9.04 5.64 9.075 5.85 9.075C6.15 9.075 6.455 8.995 6.765 8.835C7.075 8.675 7.36 8.455 7.62 8.175C7.89 7.895 8.105 7.575 8.265 7.215C8.425 6.855 8.505 6.48 8.505 6.09C8.505 5.86 8.44 5.675 8.31 5.535C8.19 5.395 8.015 5.325 7.785 5.325C7.555 5.325 7.37 5.345 7.23 5.385C7.09 5.425 7.02 5.47 7.02 5.52C7.02 5.57 7.045 5.605 7.095 5.625C7.155 5.645 7.26 5.655 7.41 5.655C7.7 5.655 8.01 5.575 8.34 5.415C8.68 5.255 9 5.035 9.3 4.755C9.61 4.475 9.86 4.16 10.05 3.81C10.25 3.46 10.35 3.095 10.35 2.715C10.35 2.465 10.28 2.215 10.14 1.965C10 1.705 9.745 1.49 9.375 1.32C9.005 1.14 8.47 1.05 7.77 1.05C7.19 1.05 6.63 1.15 6.09 1.35C5.56 1.54 5.065 1.79 4.605 2.1C4.155 2.41 3.755 2.74 3.405 3.09C3.065 3.44 2.8 3.78 2.61 4.11C2.42 4.43 2.325 4.7 2.325 4.92C2.325 5.09 2.385 5.255 2.505 5.415C2.625 5.565 2.855 5.64 3.195 5.64C3.525 5.64 3.885 5.54 4.275 5.34C4.675 5.13 5.055 4.855 5.415 4.515C5.785 4.165 6.095 3.77 6.345 3.33C6.605 2.88 6.76 2.415 6.81 1.935C6.83 1.815 6.86 1.76 6.9 1.77C6.94 1.78 6.965 1.83 6.975 1.92C7.005 2.38 6.91 2.84 6.69 3.3C6.48 3.75 6.19 4.165 5.82 4.545C5.45 4.915 5.04 5.21 4.59 5.43C4.14 5.65 3.695 5.76 3.255 5.76C2.875 5.76 2.595 5.69 2.415 5.55C2.245 5.41 2.16 5.17 2.16 4.83C2.16 4.45 2.31 4.035 2.61 3.585C2.91 3.135 3.32 2.71 3.84 2.31C4.37 1.9 4.97 1.57 5.64 1.32C6.32 1.06 7.04 0.929996 7.8 0.929996C8.57 0.929996 9.18 1.025 9.63 1.215C10.09 1.405 10.42 1.655 10.62 1.965C10.83 2.275 10.935 2.615 10.935 2.985C10.935 3.385 10.81 3.76 10.56 4.11C10.32 4.45 10.01 4.75 9.63 5.01C9.26 5.27 8.88 5.475 8.49 5.625C8.11 5.765 7.785 5.835 7.515 5.835C7.225 5.835 7.02 5.81 6.9 5.76C6.79 5.71 6.735 5.645 6.735 5.565C6.735 5.465 6.835 5.38 7.035 5.31C7.245 5.24 7.49 5.205 7.77 5.205C7.98 5.205 8.19 5.25 8.4 5.34C8.61 5.43 8.78 5.59 8.91 5.82C9.05 6.05 9.12 6.37 9.12 6.78C9.12 7.08 9.025 7.38 8.835 7.68C8.655 7.97 8.415 8.235 8.115 8.475C7.815 8.705 7.485 8.89 7.125 9.03C6.765 9.17 6.405 9.24 6.045 9.24ZM13.7075 6.465C13.6675 6.545 13.6075 6.615 13.5275 6.675C13.4575 6.735 13.4025 6.775 13.3625 6.795C13.3325 6.805 13.3425 6.775 13.3925 6.705C13.5725 6.485 13.6875 6.28 13.7375 6.09C13.7975 5.9 13.7975 5.75 13.7375 5.64C13.6875 5.52 13.5875 5.46 13.4375 5.46C13.2375 5.46 13.0025 5.54 12.7325 5.7C12.4625 5.86 12.1825 6.07 11.8925 6.33C11.6125 6.59 11.3475 6.87 11.0975 7.17C10.8575 7.46 10.6625 7.745 10.5125 8.025C10.3625 8.295 10.2875 8.53 10.2875 8.73C10.2875 8.88 10.3175 8.975 10.3775 9.015C10.4375 9.055 10.4975 9.075 10.5575 9.075C10.7875 9.075 11.0525 8.97 11.3525 8.76C11.6625 8.54 11.9775 8.265 12.2975 7.935C12.6175 7.605 12.9225 7.27 13.2125 6.93C13.5025 6.58 13.7525 6.265 13.9625 5.985C14.1825 5.705 14.3325 5.515 14.4125 5.415C14.5225 5.455 14.6525 5.47 14.8025 5.46C14.9625 5.45 15.0975 5.44 15.2075 5.43C15.1875 5.46 15.0825 5.585 14.8925 5.805C14.7125 6.025 14.4925 6.29 14.2325 6.6C13.9825 6.9 13.7275 7.21 13.4675 7.53C13.2175 7.85 13.0075 8.13 12.8375 8.37C12.6675 8.61 12.5825 8.77 12.5825 8.85C12.5825 8.95 12.6025 9.015 12.6425 9.045C12.6925 9.065 12.7675 9.075 12.8675 9.075C12.9875 9.065 13.1625 9.01 13.3925 8.91C13.6225 8.8 13.9175 8.59 14.2775 8.28C14.6375 7.97 15.0725 7.51 15.5825 6.9C15.5825 6.9 15.6025 6.915 15.6425 6.945C15.6925 6.975 15.7175 6.99 15.7175 6.99C15.1175 7.69 14.5625 8.24 14.0525 8.64C13.5425 9.03 13.0775 9.225 12.6575 9.225C12.4375 9.225 12.2875 9.19 12.2075 9.12C12.1375 9.05 12.1025 8.95 12.1025 8.82C12.1025 8.72 12.1425 8.6 12.2225 8.46C12.3125 8.31 12.4125 8.165 12.5225 8.025C12.6325 7.885 12.7225 7.775 12.7925 7.695C12.7925 7.695 12.7825 7.69 12.7625 7.68C12.7425 7.67 12.7325 7.665 12.7325 7.665C12.5025 7.945 12.2575 8.205 11.9975 8.445C11.7375 8.685 11.4775 8.875 11.2175 9.015C10.9675 9.155 10.7225 9.225 10.4825 9.225C10.2325 9.225 10.0575 9.165 9.95754 9.045C9.85754 8.915 9.80754 8.72 9.80754 8.46C9.80754 8.21 9.88754 7.91 10.0475 7.56C10.2075 7.2 10.4375 6.85 10.7375 6.51C11.0375 6.16 11.3975 5.87 11.8175 5.64C12.2475 5.41 12.7275 5.295 13.2575 5.295C13.5175 5.295 13.6975 5.345 13.7975 5.445C13.8975 5.535 13.9425 5.645 13.9325 5.775C13.9225 5.905 13.8925 6.035 13.8425 6.165C13.7925 6.295 13.7475 6.395 13.7075 6.465ZM18.4741 6.405C18.3341 6.405 18.2291 6.375 18.1591 6.315C18.0991 6.245 18.0691 6.165 18.0691 6.075C18.0691 5.985 18.1041 5.9 18.1741 5.82C18.2541 5.73 18.3591 5.685 18.4891 5.685C18.5691 5.685 18.6391 5.695 18.6991 5.715C18.7591 5.735 18.7891 5.745 18.7891 5.745C18.7991 5.645 18.7741 5.56 18.7141 5.49C18.6541 5.41 18.5391 5.37 18.3691 5.37C18.2091 5.37 18.0141 5.44 17.7841 5.58C17.5541 5.72 17.3141 5.905 17.0641 6.135C16.8241 6.365 16.5941 6.615 16.3741 6.885C16.1641 7.155 15.9941 7.43 15.8641 7.71C15.7341 7.98 15.6691 8.225 15.6691 8.445C15.6691 8.695 15.7491 8.86 15.9091 8.94C16.0691 9.02 16.2441 9.06 16.4341 9.06C16.7941 9.06 17.1491 8.975 17.4991 8.805C17.8491 8.625 18.1691 8.41 18.4591 8.16C18.7591 7.9 19.0141 7.65 19.2241 7.41C19.4341 7.17 19.5841 6.985 19.6741 6.855L19.8091 6.945C19.7291 7.065 19.5791 7.25 19.3591 7.5C19.1391 7.75 18.8691 8.01 18.5491 8.28C18.2391 8.54 17.8941 8.765 17.5141 8.955C17.1341 9.135 16.7341 9.225 16.3141 9.225C15.9741 9.225 15.6891 9.15 15.4591 9C15.2191 8.84 15.0991 8.595 15.0991 8.265C15.0991 7.985 15.1791 7.675 15.3391 7.335C15.4991 6.985 15.7191 6.655 15.9991 6.345C16.2891 6.025 16.6291 5.765 17.0191 5.565C17.4191 5.355 17.8591 5.25 18.3391 5.25C18.5291 5.25 18.6941 5.29 18.8341 5.37C18.9741 5.45 19.0441 5.59 19.0441 5.79C19.0441 5.97 18.9791 6.12 18.8491 6.24C18.7291 6.35 18.6041 6.405 18.4741 6.405ZM24.4661 0.0149961C24.5761 0.0349958 24.7011 0.0449957 24.8411 0.0449957C24.9911 0.0449957 25.1311 0.0349958 25.2611 0.0149961C25.2411 0.0349958 25.1361 0.174996 24.9461 0.434996C24.7661 0.684996 24.5261 1.02 24.2261 1.44C23.9261 1.86 23.5911 2.33 23.2211 2.85C22.8511 3.37 22.4661 3.91 22.0661 4.47C21.6661 5.02 21.2811 5.56 20.9111 6.09C20.5411 6.62 20.2011 7.105 19.8911 7.545C19.5911 7.975 19.3461 8.33 19.1561 8.61C18.9661 8.89 18.8561 9.055 18.8261 9.105C18.6261 9.035 18.3811 9.045 18.0911 9.135C18.0911 9.135 18.1811 9.01 18.3611 8.76C18.5411 8.5 18.7861 8.155 19.0961 7.725C19.3961 7.285 19.7311 6.795 20.1011 6.255C20.4811 5.715 20.8711 5.155 21.2711 4.575C21.6811 3.995 22.0711 3.435 22.4411 2.895C22.8211 2.355 23.1611 1.87 23.4611 1.44C23.7711 0.999996 24.0161 0.654996 24.1961 0.404996C24.3761 0.144996 24.4661 0.0149961 24.4661 0.0149961ZM24.0761 5.805C23.9761 5.805 23.8861 5.775 23.8061 5.715C23.7361 5.655 23.7011 5.575 23.7011 5.475C23.7011 5.365 23.7361 5.285 23.8061 5.235C23.8861 5.185 23.9261 5.16 23.9261 5.16C23.9061 5.13 23.8661 5.115 23.8061 5.115C23.7461 5.105 23.6911 5.1 23.6411 5.1C23.4511 5.1 23.2661 5.19 23.0861 5.37C22.9061 5.54 22.7211 5.745 22.5311 5.985C22.3411 6.215 22.1361 6.42 21.9161 6.6C21.6961 6.77 21.4411 6.855 21.1511 6.855C21.0311 6.855 20.9311 6.845 20.8511 6.825C20.7811 6.795 20.7461 6.74 20.7461 6.66C20.7461 6.58 20.8061 6.52 20.9261 6.48C21.0561 6.43 21.1811 6.405 21.3011 6.405C21.5411 6.405 21.7511 6.45 21.9311 6.54C22.1211 6.62 22.2661 6.725 22.3661 6.855C22.4661 6.975 22.5161 7.105 22.5161 7.245C22.5161 7.455 22.4611 7.65 22.3511 7.83C22.2511 8 22.1361 8.155 22.0061 8.295C21.8761 8.435 21.7561 8.56 21.6461 8.67C21.5461 8.77 21.4961 8.85 21.4961 8.91C21.4961 8.96 21.5211 9 21.5711 9.03C21.6211 9.05 21.7061 9.06 21.8261 9.06C22.0361 9.06 22.2611 8.995 22.5011 8.865C22.7511 8.725 23.0011 8.545 23.2511 8.325C23.5111 8.105 23.7611 7.87 24.0011 7.62C24.2411 7.36 24.4561 7.11 24.6461 6.87L24.7661 6.975C24.4861 7.285 24.1711 7.615 23.8211 7.965C23.4811 8.315 23.1311 8.615 22.7711 8.865C22.4111 9.105 22.0611 9.225 21.7211 9.225C21.5511 9.225 21.4061 9.185 21.2861 9.105C21.1761 9.035 21.1211 8.9 21.1211 8.7C21.1211 8.51 21.1711 8.33 21.2711 8.16C21.3711 7.98 21.4861 7.815 21.6161 7.665C21.7461 7.505 21.8611 7.37 21.9611 7.26C22.0611 7.15 22.1111 7.065 22.1111 7.005C22.1111 6.865 22.0461 6.775 21.9161 6.735C21.7861 6.695 21.6461 6.68 21.4961 6.69C21.3561 6.69 21.2611 6.69 21.2111 6.69C21.1411 6.69 21.0711 6.69 21.0011 6.69C20.9311 6.69 20.8961 6.68 20.8961 6.66C20.8961 6.63 20.9361 6.615 21.0161 6.615C21.1061 6.615 21.1711 6.615 21.2111 6.615C21.4811 6.615 21.7161 6.53 21.9161 6.36C22.1161 6.19 22.3061 5.995 22.4861 5.775C22.6761 5.545 22.8711 5.345 23.0711 5.175C23.2811 5.005 23.5311 4.92 23.8211 4.92C24.0011 4.92 24.1511 4.965 24.2711 5.055C24.3911 5.135 24.4511 5.25 24.4511 5.4C24.4511 5.52 24.4061 5.62 24.3161 5.7C24.2361 5.77 24.1561 5.805 24.0761 5.805ZM26.3419 6.555C26.3919 6.515 26.4269 6.46 26.4469 6.39C26.4669 6.32 26.4919 6.27 26.5219 6.24H28.7119C28.6119 6.35 28.5569 6.455 28.5469 6.555H26.3419ZM31.1523 9.225C30.6823 9.225 30.3723 9.12 30.2223 8.91C30.0723 8.69 29.9973 8.46 29.9973 8.22C29.9973 7.81 30.1023 7.43 30.3123 7.08C30.5223 6.72 30.7923 6.4 31.1223 6.12C31.4523 5.84 31.7923 5.625 32.1423 5.475C32.5023 5.315 32.8223 5.235 33.1023 5.235C33.3023 5.235 33.4623 5.265 33.5823 5.325C33.7023 5.375 33.7623 5.485 33.7623 5.655C33.7623 5.815 33.6673 5.985 33.4773 6.165C33.2873 6.345 33.0473 6.52 32.7573 6.69C32.4673 6.85 32.1623 7 31.8423 7.14C31.5323 7.27 31.2473 7.375 30.9873 7.455C30.7273 7.535 30.5373 7.575 30.4173 7.575C30.4173 7.575 30.4173 7.55 30.4173 7.5C30.4173 7.44 30.4173 7.41 30.4173 7.41C30.5073 7.42 30.6623 7.39 30.8823 7.32C31.1123 7.25 31.3673 7.16 31.6473 7.05C31.9273 6.93 32.1973 6.795 32.4573 6.645C32.7273 6.495 32.9473 6.335 33.1173 6.165C33.2973 5.995 33.3873 5.83 33.3873 5.67C33.3873 5.59 33.3623 5.52 33.3123 5.46C33.2723 5.4 33.1973 5.37 33.0873 5.37C32.9273 5.37 32.7323 5.45 32.5023 5.61C32.2823 5.76 32.0573 5.96 31.8273 6.21C31.5973 6.46 31.3823 6.725 31.1823 7.005C30.9823 7.285 30.8173 7.555 30.6873 7.815C30.5673 8.065 30.5073 8.275 30.5073 8.445C30.5073 8.645 30.5673 8.795 30.6873 8.895C30.8073 8.995 30.9823 9.045 31.2123 9.045C31.6123 9.045 31.9873 8.95 32.3373 8.76C32.6973 8.56 33.0223 8.33 33.3123 8.07C33.6023 7.8 33.8473 7.55 34.0473 7.32C34.2473 7.08 34.3823 6.925 34.4523 6.855C34.4523 6.855 34.4673 6.87 34.4973 6.9C34.5373 6.93 34.5573 6.945 34.5573 6.945C34.4873 7.025 34.3523 7.185 34.1523 7.425C33.9523 7.665 33.7023 7.925 33.4023 8.205C33.1023 8.485 32.7623 8.725 32.3823 8.925C32.0023 9.125 31.5923 9.225 31.1523 9.225ZM37.582 9.225C37.052 9.225 36.787 9.07 36.787 8.76C36.787 8.56 36.852 8.345 36.982 8.115C37.122 7.885 37.292 7.655 37.492 7.425C37.692 7.185 37.892 6.95 38.092 6.72C38.302 6.49 38.472 6.28 38.602 6.09C38.742 5.89 38.812 5.72 38.812 5.58C38.812 5.53 38.787 5.49 38.737 5.46C38.697 5.42 38.637 5.4 38.557 5.4C38.437 5.4 38.267 5.46 38.047 5.58C37.837 5.7 37.567 5.905 37.237 6.195C36.917 6.475 36.537 6.855 36.097 7.335C35.657 7.805 35.152 8.395 34.582 9.105C34.492 9.085 34.357 9.075 34.177 9.075C33.997 9.075 33.842 9.095 33.712 9.135C34.002 8.715 34.287 8.305 34.567 7.905C34.847 7.505 35.102 7.14 35.332 6.81C35.572 6.48 35.762 6.21 35.902 6C36.042 5.78 36.112 5.645 36.112 5.595C36.112 5.505 36.067 5.46 35.977 5.46C35.877 5.46 35.752 5.54 35.602 5.7C35.452 5.85 35.287 6.045 35.107 6.285C34.927 6.515 34.742 6.75 34.552 6.99L34.417 6.9C34.617 6.67 34.812 6.43 35.002 6.18C35.192 5.93 35.387 5.715 35.587 5.535C35.787 5.355 35.997 5.265 36.217 5.265C36.327 5.265 36.427 5.295 36.517 5.355C36.617 5.405 36.667 5.49 36.667 5.61C36.667 5.72 36.622 5.855 36.532 6.015C36.452 6.165 36.342 6.34 36.202 6.54C36.062 6.73 35.902 6.945 35.722 7.185C35.552 7.415 35.372 7.665 35.182 7.935L35.197 8.025C35.727 7.445 36.172 6.975 36.532 6.615C36.902 6.255 37.207 5.98 37.447 5.79C37.697 5.59 37.912 5.455 38.092 5.385C38.282 5.305 38.462 5.265 38.632 5.265C38.862 5.265 39.027 5.315 39.127 5.415C39.227 5.505 39.277 5.63 39.277 5.79C39.277 6.03 39.207 6.285 39.067 6.555C38.927 6.815 38.752 7.075 38.542 7.335C38.342 7.585 38.137 7.82 37.927 8.04C37.727 8.25 37.557 8.43 37.417 8.58C37.277 8.73 37.207 8.83 37.207 8.88C37.207 8.94 37.222 8.985 37.252 9.015C37.292 9.045 37.387 9.06 37.537 9.06C37.907 9.06 38.257 8.945 38.587 8.715C38.927 8.485 39.252 8.205 39.562 7.875C39.872 7.535 40.162 7.2 40.432 6.87L40.552 6.975C40.282 7.295 39.987 7.63 39.667 7.98C39.347 8.33 39.012 8.625 38.662 8.865C38.312 9.105 37.952 9.225 37.582 9.225ZM40.5432 9.225C40.2632 9.225 40.0682 9.16 39.9582 9.03C39.8482 8.89 39.7932 8.675 39.7932 8.385C39.7932 8.085 39.8932 7.755 40.0932 7.395C40.2932 7.035 40.5582 6.695 40.8882 6.375C41.2282 6.045 41.6082 5.775 42.0282 5.565C42.4482 5.355 42.8782 5.25 43.3182 5.25C43.5582 5.25 43.7232 5.3 43.8132 5.4C43.9132 5.49 43.9632 5.6 43.9632 5.73C43.9732 5.86 43.9432 5.97 43.8732 6.06C43.8732 6.06 43.8432 6.09 43.7832 6.15C43.7332 6.21 43.6832 6.275 43.6332 6.345C43.5832 6.405 43.5582 6.435 43.5582 6.435C43.7582 6.085 43.8282 5.835 43.7682 5.685C43.7182 5.525 43.5782 5.445 43.3482 5.445C43.1782 5.445 42.9632 5.525 42.7032 5.685C42.4532 5.845 42.1832 6.055 41.8932 6.315C41.6132 6.575 41.3482 6.855 41.0982 7.155C40.8482 7.455 40.6432 7.745 40.4832 8.025C40.3332 8.305 40.2582 8.545 40.2582 8.745C40.2582 8.845 40.2932 8.92 40.3632 8.97C40.4332 9.02 40.5232 9.045 40.6332 9.045C40.7832 9.045 40.9582 8.985 41.1582 8.865C41.3582 8.745 41.5632 8.595 41.7732 8.415C41.9832 8.235 42.1782 8.055 42.3582 7.875C42.5382 7.695 42.6832 7.54 42.7932 7.41C42.9132 7.28 42.9782 7.205 42.9882 7.185C43.0282 7.135 43.1432 6.97 43.3332 6.69C43.5332 6.41 43.7832 6.06 44.0832 5.64C44.3832 5.22 44.7032 4.765 45.0432 4.275C45.3932 3.775 45.7382 3.28 46.0782 2.79C46.4182 2.29 46.7332 1.835 47.0232 1.425C47.3132 1.015 47.5482 0.679996 47.7282 0.419996C47.9082 0.159996 48.0082 0.019996 48.0282 -3.75509e-06C48.1282 0.0499962 48.2232 0.084996 48.3132 0.104996C48.4132 0.114996 48.5632 0.109996 48.7632 0.089996C48.7432 0.119996 48.6232 0.289996 48.4032 0.599996C48.1832 0.899996 47.8982 1.295 47.5482 1.785C47.1982 2.275 46.8182 2.81 46.4082 3.39C45.9982 3.97 45.5832 4.55 45.1632 5.13C44.7532 5.71 44.3732 6.245 44.0232 6.735C43.6732 7.225 43.3882 7.625 43.1682 7.935C42.9482 8.235 42.8282 8.4 42.8082 8.43C42.7682 8.49 42.7232 8.57 42.6732 8.67C42.6332 8.76 42.6132 8.845 42.6132 8.925C42.6132 9.005 42.6532 9.045 42.7332 9.045C43.0332 9.045 43.3282 8.96 43.6182 8.79C43.9182 8.61 44.1982 8.395 44.4582 8.145C44.7282 7.895 44.9632 7.655 45.1632 7.425C45.3632 7.185 45.5232 7 45.6432 6.87L45.7632 6.96C45.6532 7.1 45.4882 7.295 45.2682 7.545C45.0482 7.795 44.7932 8.05 44.5032 8.31C44.2232 8.56 43.9282 8.775 43.6182 8.955C43.3082 9.135 43.0082 9.225 42.7182 9.225C42.5282 9.225 42.3832 9.19 42.2832 9.12C42.1832 9.06 42.1332 8.975 42.1332 8.865C42.1332 8.735 42.1782 8.59 42.2682 8.43C42.3682 8.27 42.4732 8.12 42.5832 7.98C42.6932 7.83 42.7732 7.725 42.8232 7.665C42.8232 7.665 42.8132 7.665 42.7932 7.665C42.7832 7.655 42.7782 7.65 42.7782 7.65C42.7682 7.66 42.6882 7.745 42.5382 7.905C42.3982 8.065 42.2132 8.25 41.9832 8.46C41.7632 8.66 41.5282 8.84 41.2782 9C41.0282 9.15 40.7832 9.225 40.5432 9.225Z" fill="#BB8ED0"/>
</svg>
