<svg width="44" height="10" viewBox="0 0 44 10" fill="none" xmlns="http://www.w3.org/2000/svg">
<path d="M1.14 9.18C0.860001 9.18 0.600001 9.145 0.360001 9.075C0.120001 9.015 9.02452e-07 8.91 9.02452e-07 8.76C9.02452e-07 8.66 0.0550009 8.57 0.165001 8.49C0.285001 8.41 0.425001 8.35 0.585001 8.31C0.755001 8.26 0.905001 8.235 1.035 8.235C1.465 8.235 1.88 8.3 2.28 8.43C2.68 8.55 3.09 8.675 3.51 8.805C3.94 8.925 4.4 8.985 4.89 8.985C5.49 8.985 6.065 8.86 6.615 8.61C7.165 8.36 7.655 8.02 8.085 7.59C8.515 7.16 8.85 6.675 9.09 6.135C9.34 5.585 9.465 5.015 9.465 4.425C9.465 3.795 9.355 3.245 9.135 2.775C8.925 2.305 8.585 1.94 8.115 1.68C7.655 1.42 7.055 1.29 6.315 1.29C5.755 1.29 5.21 1.405 4.68 1.635C4.15 1.855 3.675 2.145 3.255 2.505C2.835 2.855 2.5 3.235 2.25 3.645C2 4.055 1.875 4.44 1.875 4.8C1.875 4.99 1.95 5.185 2.1 5.385C2.25 5.585 2.51 5.685 2.88 5.685C3.23 5.685 3.61 5.595 4.02 5.415C4.43 5.225 4.82 4.975 5.19 4.665C5.57 4.345 5.895 3.99 6.165 3.6C6.435 3.2 6.6 2.79 6.66 2.37C6.68 2.24 6.71 2.18 6.75 2.19C6.79 2.2 6.81 2.26 6.81 2.37C6.81 2.8 6.7 3.225 6.48 3.645C6.26 4.055 5.97 4.425 5.61 4.755C5.25 5.085 4.85 5.35 4.41 5.55C3.98 5.75 3.545 5.85 3.105 5.85C2.715 5.85 2.405 5.785 2.175 5.655C1.945 5.525 1.78 5.365 1.68 5.175C1.58 4.975 1.53 4.78 1.53 4.59C1.53 4.21 1.645 3.82 1.875 3.42C2.115 3.01 2.445 2.635 2.865 2.295C3.295 1.955 3.795 1.68 4.365 1.47C4.945 1.26 5.57 1.155 6.24 1.155C6.86 1.155 7.395 1.24 7.845 1.41C8.295 1.57 8.665 1.795 8.955 2.085C9.245 2.365 9.46 2.695 9.6 3.075C9.75 3.445 9.825 3.84 9.825 4.26C9.825 4.96 9.69 5.61 9.42 6.21C9.16 6.8 8.8 7.315 8.34 7.755C7.88 8.195 7.355 8.54 6.765 8.79C6.175 9.03 5.56 9.15 4.92 9.15C4.45 9.15 4.01 9.095 3.6 8.985C3.19 8.875 2.79 8.77 2.4 8.67C2.02 8.56 1.615 8.505 1.185 8.505C1.095 8.505 0.965001 8.51 0.795001 8.52C0.635001 8.53 0.490001 8.555 0.360001 8.595C0.230001 8.625 0.165001 8.68 0.165001 8.76C0.165001 8.83 0.225001 8.885 0.345001 8.925C0.465001 8.965 0.605001 8.99 0.765001 9C0.925001 9.01 1.055 9.015 1.155 9.015C1.615 9.015 2.055 8.93 2.475 8.76C2.895 8.58 3.3 8.335 3.69 8.025C4.08 7.715 4.45 7.365 4.8 6.975C5.16 6.575 5.505 6.155 5.835 5.715C6.255 5.145 6.705 4.605 7.185 4.095C7.665 3.585 8.155 3.135 8.655 2.745C9.155 2.345 9.645 2.035 10.125 1.815C10.605 1.585 11.055 1.47 11.475 1.47C11.605 1.47 11.655 1.495 11.625 1.545C11.595 1.585 11.54 1.605 11.46 1.605C11.12 1.605 10.755 1.72 10.365 1.95C9.975 2.18 9.575 2.49 9.165 2.88C8.765 3.27 8.38 3.7 8.01 4.17C7.64 4.64 7.305 5.115 7.005 5.595C6.755 5.995 6.445 6.405 6.075 6.825C5.705 7.245 5.275 7.635 4.785 7.995C4.295 8.345 3.745 8.63 3.135 8.85C2.525 9.07 1.86 9.18 1.14 9.18ZM13.7036 6.42C13.6636 6.5 13.6036 6.57 13.5236 6.63C13.4536 6.69 13.3986 6.73 13.3586 6.75C13.3286 6.76 13.3386 6.73 13.3886 6.66C13.5686 6.44 13.6836 6.235 13.7336 6.045C13.7936 5.855 13.7936 5.705 13.7336 5.595C13.6836 5.475 13.5836 5.415 13.4336 5.415C13.2336 5.415 12.9986 5.495 12.7286 5.655C12.4586 5.815 12.1786 6.025 11.8886 6.285C11.6086 6.545 11.3436 6.825 11.0936 7.125C10.8536 7.415 10.6586 7.7 10.5086 7.98C10.3586 8.25 10.2836 8.485 10.2836 8.685C10.2836 8.835 10.3136 8.93 10.3736 8.97C10.4336 9.01 10.4936 9.03 10.5536 9.03C10.7836 9.03 11.0486 8.925 11.3486 8.715C11.6586 8.495 11.9736 8.22 12.2936 7.89C12.6136 7.56 12.9186 7.225 13.2086 6.885C13.4986 6.535 13.7486 6.22 13.9586 5.94C14.1786 5.66 14.3286 5.47 14.4086 5.37C14.5186 5.41 14.6486 5.425 14.7986 5.415C14.9586 5.405 15.0936 5.395 15.2036 5.385C15.1836 5.415 15.0786 5.54 14.8886 5.76C14.7086 5.98 14.4886 6.245 14.2286 6.555C13.9786 6.855 13.7236 7.165 13.4636 7.485C13.2136 7.805 13.0036 8.085 12.8336 8.325C12.6636 8.565 12.5786 8.725 12.5786 8.805C12.5786 8.905 12.5986 8.97 12.6386 9C12.6886 9.02 12.7636 9.03 12.8636 9.03C12.9836 9.02 13.1586 8.965 13.3886 8.865C13.6186 8.755 13.9136 8.545 14.2736 8.235C14.6336 7.925 15.0686 7.465 15.5786 6.855C15.5786 6.855 15.5986 6.87 15.6386 6.9C15.6886 6.93 15.7136 6.945 15.7136 6.945C15.1136 7.645 14.5586 8.195 14.0486 8.595C13.5386 8.985 13.0736 9.18 12.6536 9.18C12.4336 9.18 12.2836 9.145 12.2036 9.075C12.1336 9.005 12.0986 8.905 12.0986 8.775C12.0986 8.675 12.1386 8.555 12.2186 8.415C12.3086 8.265 12.4086 8.12 12.5186 7.98C12.6286 7.84 12.7186 7.73 12.7886 7.65C12.7886 7.65 12.7786 7.645 12.7586 7.635C12.7386 7.625 12.7286 7.62 12.7286 7.62C12.4986 7.9 12.2536 8.16 11.9936 8.4C11.7336 8.64 11.4736 8.83 11.2136 8.97C10.9636 9.11 10.7186 9.18 10.4786 9.18C10.2286 9.18 10.0536 9.12 9.95356 9C9.85356 8.87 9.80356 8.675 9.80356 8.415C9.80356 8.165 9.88356 7.865 10.0436 7.515C10.2036 7.155 10.4336 6.805 10.7336 6.465C11.0336 6.115 11.3936 5.825 11.8136 5.595C12.2436 5.365 12.7236 5.25 13.2536 5.25C13.5136 5.25 13.6936 5.3 13.7936 5.4C13.8936 5.49 13.9386 5.6 13.9286 5.73C13.9186 5.86 13.8886 5.99 13.8386 6.12C13.7886 6.25 13.7436 6.35 13.7036 6.42ZM18.5902 2.565C18.6802 2.605 18.8102 2.625 18.9802 2.625C19.1602 2.615 19.3002 2.6 19.4002 2.58C19.0802 3.02 18.7252 3.505 18.3352 4.035C17.9452 4.565 17.5502 5.095 17.1502 5.625C16.7602 6.145 16.3952 6.635 16.0552 7.095C15.7252 7.545 15.4602 7.925 15.2602 8.235C15.0602 8.545 14.9602 8.74 14.9602 8.82C14.9602 8.88 14.9952 8.925 15.0652 8.955C15.1252 8.985 15.2052 9 15.3052 9C15.5252 9 15.7652 8.925 16.0252 8.775C16.2952 8.615 16.5602 8.42 16.8202 8.19C17.0902 7.95 17.3352 7.71 17.5552 7.47C17.7852 7.22 17.9652 7.005 18.0952 6.825L18.2152 6.915C18.0752 7.095 17.8902 7.31 17.6602 7.56C17.4302 7.81 17.1752 8.06 16.8952 8.31C16.6152 8.56 16.3252 8.77 16.0252 8.94C15.7352 9.1 15.4552 9.18 15.1852 9.18C14.9952 9.18 14.8452 9.14 14.7352 9.06C14.6152 8.99 14.5552 8.865 14.5552 8.685C14.5552 8.525 14.6502 8.28 14.8402 7.95C15.0302 7.61 15.2752 7.22 15.5752 6.78C15.8852 6.34 16.2202 5.875 16.5802 5.385C16.9402 4.885 17.2952 4.395 17.6452 3.915C18.0052 3.425 18.3202 2.975 18.5902 2.565ZM16.9402 4.245C16.8402 4.245 16.7902 4.215 16.7902 4.155C16.7902 4.105 16.8402 4.08 16.9402 4.08H19.7902C19.8202 4.08 19.8502 4.085 19.8802 4.095C19.9202 4.105 19.9402 4.125 19.9402 4.155C19.9402 4.195 19.9202 4.22 19.8802 4.23C19.8502 4.24 19.8202 4.245 19.7902 4.245H16.9402ZM21.3354 6.42C21.2954 6.5 21.2354 6.57 21.1554 6.63C21.0854 6.69 21.0304 6.73 20.9904 6.75C20.9604 6.76 20.9704 6.73 21.0204 6.66C21.2004 6.44 21.3154 6.235 21.3654 6.045C21.4254 5.855 21.4254 5.705 21.3654 5.595C21.3154 5.475 21.2154 5.415 21.0654 5.415C20.8654 5.415 20.6304 5.495 20.3604 5.655C20.0904 5.815 19.8104 6.025 19.5204 6.285C19.2404 6.545 18.9754 6.825 18.7254 7.125C18.4854 7.415 18.2904 7.7 18.1404 7.98C17.9904 8.25 17.9154 8.485 17.9154 8.685C17.9154 8.835 17.9454 8.93 18.0054 8.97C18.0654 9.01 18.1254 9.03 18.1854 9.03C18.4154 9.03 18.6804 8.925 18.9804 8.715C19.2904 8.495 19.6054 8.22 19.9254 7.89C20.2454 7.56 20.5504 7.225 20.8404 6.885C21.1304 6.535 21.3804 6.22 21.5904 5.94C21.8104 5.66 21.9604 5.47 22.0404 5.37C22.1504 5.41 22.2804 5.425 22.4304 5.415C22.5904 5.405 22.7254 5.395 22.8354 5.385C22.8154 5.415 22.7104 5.54 22.5204 5.76C22.3404 5.98 22.1204 6.245 21.8604 6.555C21.6104 6.855 21.3554 7.165 21.0954 7.485C20.8454 7.805 20.6354 8.085 20.4654 8.325C20.2954 8.565 20.2104 8.725 20.2104 8.805C20.2104 8.905 20.2304 8.97 20.2704 9C20.3204 9.02 20.3954 9.03 20.4954 9.03C20.6154 9.02 20.7904 8.965 21.0204 8.865C21.2504 8.755 21.5454 8.545 21.9054 8.235C22.2654 7.925 22.7004 7.465 23.2104 6.855C23.2104 6.855 23.2304 6.87 23.2704 6.9C23.3204 6.93 23.3454 6.945 23.3454 6.945C22.7454 7.645 22.1904 8.195 21.6804 8.595C21.1704 8.985 20.7054 9.18 20.2854 9.18C20.0654 9.18 19.9154 9.145 19.8354 9.075C19.7654 9.005 19.7304 8.905 19.7304 8.775C19.7304 8.675 19.7704 8.555 19.8504 8.415C19.9404 8.265 20.0404 8.12 20.1504 7.98C20.2604 7.84 20.3504 7.73 20.4204 7.65C20.4204 7.65 20.4104 7.645 20.3904 7.635C20.3704 7.625 20.3604 7.62 20.3604 7.62C20.1304 7.9 19.8854 8.16 19.6254 8.4C19.3654 8.64 19.1054 8.83 18.8454 8.97C18.5954 9.11 18.3504 9.18 18.1104 9.18C17.8604 9.18 17.6854 9.12 17.5854 9C17.4854 8.87 17.4354 8.675 17.4354 8.415C17.4354 8.165 17.5154 7.865 17.6754 7.515C17.8354 7.155 18.0654 6.805 18.3654 6.465C18.6654 6.115 19.0254 5.825 19.4454 5.595C19.8754 5.365 20.3554 5.25 20.8854 5.25C21.1454 5.25 21.3254 5.3 21.4254 5.4C21.5254 5.49 21.5704 5.6 21.5604 5.73C21.5504 5.86 21.5204 5.99 21.4704 6.12C21.4204 6.25 21.3754 6.35 21.3354 6.42ZM23.432 9.18C23.242 9.18 23.067 9.125 22.907 9.015C22.737 8.895 22.652 8.71 22.652 8.46C22.652 8.2 22.752 7.855 22.952 7.425C23.142 6.995 23.407 6.515 23.747 5.985C24.087 5.455 24.467 4.915 24.887 4.365C25.317 3.805 25.762 3.27 26.222 2.76C26.692 2.24 27.152 1.775 27.602 1.365C28.052 0.944998 28.467 0.614998 28.847 0.374998C29.227 0.124998 29.547 -2.5034e-06 29.807 -2.5034e-06C29.977 0.00999737 30.087 0.0449975 30.137 0.104998C30.197 0.154998 30.227 0.234998 30.227 0.344998C30.227 0.684998 30.122 1.035 29.912 1.395C29.712 1.755 29.442 2.11 29.102 2.46C28.762 2.8 28.392 3.12 27.992 3.42C27.592 3.72 27.192 3.985 26.792 4.215C26.402 4.445 26.042 4.625 25.712 4.755C25.392 4.885 25.147 4.95 24.977 4.95C24.867 4.95 24.802 4.92 24.782 4.86C24.762 4.79 24.827 4.755 24.977 4.755C25.327 4.755 25.722 4.645 26.162 4.425C26.612 4.195 27.062 3.905 27.512 3.555C27.962 3.195 28.377 2.815 28.757 2.415C29.137 2.005 29.442 1.62 29.672 1.26C29.912 0.899998 30.032 0.604998 30.032 0.374998C30.032 0.214998 29.952 0.134998 29.792 0.134998C29.632 0.134998 29.407 0.259998 29.117 0.509998C28.827 0.749998 28.497 1.075 28.127 1.485C27.767 1.895 27.382 2.355 26.972 2.865C26.562 3.365 26.152 3.875 25.742 4.395C25.312 4.945 24.882 5.485 24.452 6.015C24.032 6.545 23.682 7.03 23.402 7.47C23.122 7.91 22.982 8.28 22.982 8.58C22.982 8.73 23.022 8.845 23.102 8.925C23.172 8.995 23.292 9.03 23.462 9.03C23.802 9.03 24.127 8.94 24.437 8.76C24.747 8.58 25.022 8.35 25.262 8.07C25.502 7.78 25.692 7.48 25.832 7.17C25.972 6.85 26.042 6.555 26.042 6.285C26.042 6.225 26.022 6.12 25.982 5.97C25.952 5.81 25.952 5.665 25.982 5.535C26.022 5.405 26.137 5.34 26.327 5.34C26.427 5.34 26.507 5.38 26.567 5.46C26.627 5.53 26.657 5.62 26.657 5.73C26.657 6.1 26.567 6.485 26.387 6.885C26.217 7.285 25.982 7.66 25.682 8.01C25.382 8.36 25.037 8.645 24.647 8.865C24.267 9.075 23.862 9.18 23.432 9.18ZM26.387 8.055C26.217 8.055 26.097 8.005 26.027 7.905C25.967 7.805 25.937 7.7 25.937 7.59C25.937 7.47 25.937 7.38 25.937 7.32C25.937 7.32 25.967 7.315 26.027 7.305C26.087 7.285 26.117 7.27 26.117 7.26C26.117 7.3 26.112 7.375 26.102 7.485C26.092 7.585 26.102 7.68 26.132 7.77C26.172 7.86 26.257 7.905 26.387 7.905C26.537 7.905 26.692 7.855 26.852 7.755C27.022 7.645 27.182 7.52 27.332 7.38C27.482 7.24 27.602 7.115 27.692 7.005C27.792 6.885 27.847 6.81 27.857 6.78C27.857 6.78 27.877 6.795 27.917 6.825C27.957 6.855 27.977 6.87 27.977 6.87C27.957 6.9 27.892 6.98 27.782 7.11C27.682 7.23 27.552 7.365 27.392 7.515C27.242 7.655 27.077 7.78 26.897 7.89C26.727 8 26.557 8.055 26.387 8.055ZM31.0766 6.42C31.0366 6.5 30.9766 6.57 30.8966 6.63C30.8266 6.69 30.7716 6.73 30.7316 6.75C30.7016 6.76 30.7116 6.73 30.7616 6.66C30.9416 6.44 31.0566 6.235 31.1066 6.045C31.1666 5.855 31.1666 5.705 31.1066 5.595C31.0566 5.475 30.9566 5.415 30.8066 5.415C30.6066 5.415 30.3716 5.495 30.1016 5.655C29.8316 5.815 29.5516 6.025 29.2616 6.285C28.9816 6.545 28.7166 6.825 28.4666 7.125C28.2266 7.415 28.0316 7.7 27.8816 7.98C27.7316 8.25 27.6566 8.485 27.6566 8.685C27.6566 8.835 27.6866 8.93 27.7466 8.97C27.8066 9.01 27.8666 9.03 27.9266 9.03C28.1566 9.03 28.4216 8.925 28.7216 8.715C29.0316 8.495 29.3466 8.22 29.6666 7.89C29.9866 7.56 30.2916 7.225 30.5816 6.885C30.8716 6.535 31.1216 6.22 31.3316 5.94C31.5516 5.66 31.7016 5.47 31.7816 5.37C31.8916 5.41 32.0216 5.425 32.1716 5.415C32.3316 5.405 32.4666 5.395 32.5766 5.385C32.5566 5.415 32.4516 5.54 32.2616 5.76C32.0816 5.98 31.8616 6.245 31.6016 6.555C31.3516 6.855 31.0966 7.165 30.8366 7.485C30.5866 7.805 30.3766 8.085 30.2066 8.325C30.0366 8.565 29.9516 8.725 29.9516 8.805C29.9516 8.905 29.9716 8.97 30.0116 9C30.0616 9.02 30.1366 9.03 30.2366 9.03C30.3566 9.02 30.5316 8.965 30.7616 8.865C30.9916 8.755 31.2866 8.545 31.6466 8.235C32.0066 7.925 32.4416 7.465 32.9516 6.855C32.9516 6.855 32.9716 6.87 33.0116 6.9C33.0616 6.93 33.0866 6.945 33.0866 6.945C32.4866 7.645 31.9316 8.195 31.4216 8.595C30.9116 8.985 30.4466 9.18 30.0266 9.18C29.8066 9.18 29.6566 9.145 29.5766 9.075C29.5066 9.005 29.4716 8.905 29.4716 8.775C29.4716 8.675 29.5116 8.555 29.5916 8.415C29.6816 8.265 29.7816 8.12 29.8916 7.98C30.0016 7.84 30.0916 7.73 30.1616 7.65C30.1616 7.65 30.1516 7.645 30.1316 7.635C30.1116 7.625 30.1016 7.62 30.1016 7.62C29.8716 7.9 29.6266 8.16 29.3666 8.4C29.1066 8.64 28.8466 8.83 28.5866 8.97C28.3366 9.11 28.0916 9.18 27.8516 9.18C27.6016 9.18 27.4266 9.12 27.3266 9C27.2266 8.87 27.1766 8.675 27.1766 8.415C27.1766 8.165 27.2566 7.865 27.4166 7.515C27.5766 7.155 27.8066 6.805 28.1066 6.465C28.4066 6.115 28.7666 5.825 29.1866 5.595C29.6166 5.365 30.0966 5.25 30.6266 5.25C30.8866 5.25 31.0666 5.3 31.1666 5.4C31.2666 5.49 31.3116 5.6 31.3016 5.73C31.2916 5.86 31.2616 5.99 31.2116 6.12C31.1616 6.25 31.1166 6.35 31.0766 6.42ZM32.4682 9.39C32.1182 9.39 31.8532 9.325 31.6732 9.195C31.4932 9.065 31.4032 8.89 31.4032 8.67C31.4032 8.51 31.4582 8.37 31.5682 8.25C31.6682 8.12 31.7882 8.02 31.9282 7.95C32.0682 7.87 32.1782 7.83 32.2582 7.83C32.3682 7.83 32.4432 7.855 32.4832 7.905C32.5132 7.945 32.5282 7.99 32.5282 8.04C32.5282 8.12 32.4832 8.185 32.3932 8.235C32.2932 8.285 32.2132 8.31 32.1532 8.31C32.0832 8.31 32.0232 8.29 31.9732 8.25C31.9132 8.2 31.8832 8.175 31.8832 8.175C31.8332 8.185 31.7632 8.24 31.6732 8.34C31.5832 8.44 31.5382 8.55 31.5382 8.67C31.5382 8.79 31.6032 8.905 31.7332 9.015C31.8632 9.125 32.0732 9.18 32.3632 9.18C32.6632 9.18 32.9482 9.08 33.2182 8.88C33.4982 8.68 33.7282 8.425 33.9082 8.115C34.0882 7.805 34.1782 7.49 34.1782 7.17C34.1782 7.06 34.1782 6.915 34.1782 6.735C34.1782 6.545 34.1782 6.39 34.1782 6.27C34.1782 6.12 34.2032 5.95 34.2532 5.76C34.3032 5.56 34.3582 5.375 34.4182 5.205C34.4882 5.035 34.5432 4.93 34.5832 4.89C34.6632 4.82 34.7232 4.8 34.7632 4.83C34.8032 4.86 34.8132 4.89 34.7932 4.92C34.7832 4.93 34.7182 5.01 34.5982 5.16C34.4782 5.3 34.3282 5.475 34.1482 5.685C33.9682 5.895 33.7882 6.105 33.6082 6.315C33.4282 6.525 33.2682 6.71 33.1282 6.87C32.9982 7.03 32.9232 7.125 32.9032 7.155C32.8532 7.225 32.8082 7.24 32.7682 7.2C32.7282 7.16 32.7382 7.11 32.7982 7.05C32.9082 6.91 33.0432 6.745 33.2032 6.555C33.3732 6.355 33.5432 6.16 33.7132 5.97C33.8832 5.78 34.0282 5.62 34.1482 5.49C34.2782 5.35 34.3482 5.27 34.3582 5.25C34.3882 5.21 34.4132 5.14 34.4332 5.04C34.4632 4.94 34.4982 4.845 34.5382 4.755C34.5882 4.665 34.6482 4.62 34.7182 4.62C34.8882 4.62 34.9732 4.68 34.9732 4.8C34.9732 4.89 34.9032 5 34.7632 5.13C34.6332 5.26 34.5582 5.365 34.5382 5.445C34.5082 5.565 34.5082 5.735 34.5382 5.955C34.5782 6.165 34.6182 6.405 34.6582 6.675C34.7082 6.945 34.7332 7.23 34.7332 7.53C34.7332 7.93 34.6532 8.255 34.4932 8.505C34.3332 8.745 34.1332 8.93 33.8932 9.06C33.6532 9.19 33.4032 9.275 33.1432 9.315C32.8932 9.365 32.6682 9.39 32.4682 9.39ZM34.7782 8.355C34.5182 8.355 34.3482 8.305 34.2682 8.205C34.1982 8.105 34.1732 7.99 34.1932 7.86C34.2232 7.72 34.2582 7.595 34.2982 7.485L34.4482 7.5C34.4182 7.6 34.3882 7.705 34.3582 7.815C34.3382 7.925 34.3532 8.02 34.4032 8.1C34.4532 8.18 34.5832 8.22 34.7932 8.22C34.9432 8.22 35.1132 8.15 35.3032 8.01C35.4932 7.87 35.6782 7.7 35.8582 7.5C36.0482 7.3 36.2082 7.105 36.3382 6.915L36.4732 7.02C36.3432 7.18 36.1832 7.365 35.9932 7.575C35.8132 7.785 35.6182 7.97 35.4082 8.13C35.1982 8.28 34.9882 8.355 34.7782 8.355ZM37.037 9.18C36.567 9.18 36.257 9.075 36.107 8.865C35.957 8.645 35.882 8.415 35.882 8.175C35.882 7.765 35.987 7.385 36.197 7.035C36.407 6.675 36.677 6.355 37.007 6.075C37.337 5.795 37.677 5.58 38.027 5.43C38.387 5.27 38.707 5.19 38.987 5.19C39.187 5.19 39.347 5.22 39.467 5.28C39.587 5.33 39.647 5.44 39.647 5.61C39.647 5.77 39.552 5.94 39.362 6.12C39.172 6.3 38.932 6.475 38.642 6.645C38.352 6.805 38.047 6.955 37.727 7.095C37.417 7.225 37.132 7.33 36.872 7.41C36.612 7.49 36.422 7.53 36.302 7.53C36.302 7.53 36.302 7.505 36.302 7.455C36.302 7.395 36.302 7.365 36.302 7.365C36.392 7.375 36.547 7.345 36.767 7.275C36.997 7.205 37.252 7.115 37.532 7.005C37.812 6.885 38.082 6.75 38.342 6.6C38.612 6.45 38.832 6.29 39.002 6.12C39.182 5.95 39.272 5.785 39.272 5.625C39.272 5.545 39.247 5.475 39.197 5.415C39.157 5.355 39.082 5.325 38.972 5.325C38.812 5.325 38.617 5.405 38.387 5.565C38.167 5.715 37.942 5.915 37.712 6.165C37.482 6.415 37.267 6.68 37.067 6.96C36.867 7.24 36.702 7.51 36.572 7.77C36.452 8.02 36.392 8.23 36.392 8.4C36.392 8.6 36.452 8.75 36.572 8.85C36.692 8.95 36.867 9 37.097 9C37.497 9 37.872 8.905 38.222 8.715C38.582 8.515 38.907 8.285 39.197 8.025C39.487 7.755 39.732 7.505 39.932 7.275C40.132 7.035 40.267 6.88 40.337 6.81C40.337 6.81 40.352 6.825 40.382 6.855C40.422 6.885 40.442 6.9 40.442 6.9C40.372 6.98 40.237 7.14 40.037 7.38C39.837 7.62 39.587 7.88 39.287 8.16C38.987 8.44 38.647 8.68 38.267 8.88C37.887 9.08 37.477 9.18 37.037 9.18ZM39.8217 9.39C39.4717 9.39 39.2067 9.325 39.0267 9.195C38.8467 9.065 38.7567 8.89 38.7567 8.67C38.7567 8.51 38.8117 8.37 38.9217 8.25C39.0217 8.12 39.1417 8.02 39.2817 7.95C39.4217 7.87 39.5317 7.83 39.6117 7.83C39.7217 7.83 39.7967 7.855 39.8367 7.905C39.8667 7.945 39.8817 7.99 39.8817 8.04C39.8817 8.12 39.8367 8.185 39.7467 8.235C39.6467 8.285 39.5667 8.31 39.5067 8.31C39.4367 8.31 39.3767 8.29 39.3267 8.25C39.2667 8.2 39.2367 8.175 39.2367 8.175C39.1867 8.185 39.1167 8.24 39.0267 8.34C38.9367 8.44 38.8917 8.55 38.8917 8.67C38.8917 8.79 38.9567 8.905 39.0867 9.015C39.2167 9.125 39.4267 9.18 39.7167 9.18C40.0167 9.18 40.3017 9.08 40.5717 8.88C40.8517 8.68 41.0817 8.425 41.2617 8.115C41.4417 7.805 41.5317 7.49 41.5317 7.17C41.5317 7.06 41.5317 6.915 41.5317 6.735C41.5317 6.545 41.5317 6.39 41.5317 6.27C41.5317 6.12 41.5567 5.95 41.6067 5.76C41.6567 5.56 41.7117 5.375 41.7717 5.205C41.8417 5.035 41.8967 4.93 41.9367 4.89C42.0167 4.82 42.0767 4.8 42.1167 4.83C42.1567 4.86 42.1667 4.89 42.1467 4.92C42.1367 4.93 42.0717 5.01 41.9517 5.16C41.8317 5.3 41.6817 5.475 41.5017 5.685C41.3217 5.895 41.1417 6.105 40.9617 6.315C40.7817 6.525 40.6217 6.71 40.4817 6.87C40.3517 7.03 40.2767 7.125 40.2567 7.155C40.2067 7.225 40.1617 7.24 40.1217 7.2C40.0817 7.16 40.0917 7.11 40.1517 7.05C40.2617 6.91 40.3967 6.745 40.5567 6.555C40.7267 6.355 40.8967 6.16 41.0667 5.97C41.2367 5.78 41.3817 5.62 41.5017 5.49C41.6317 5.35 41.7017 5.27 41.7117 5.25C41.7417 5.21 41.7667 5.14 41.7867 5.04C41.8167 4.94 41.8517 4.845 41.8917 4.755C41.9417 4.665 42.0017 4.62 42.0717 4.62C42.2417 4.62 42.3267 4.68 42.3267 4.8C42.3267 4.89 42.2567 5 42.1167 5.13C41.9867 5.26 41.9117 5.365 41.8917 5.445C41.8617 5.565 41.8617 5.735 41.8917 5.955C41.9317 6.165 41.9717 6.405 42.0117 6.675C42.0617 6.945 42.0867 7.23 42.0867 7.53C42.0867 7.93 42.0067 8.255 41.8467 8.505C41.6867 8.745 41.4867 8.93 41.2467 9.06C41.0067 9.19 40.7567 9.275 40.4967 9.315C40.2467 9.365 40.0217 9.39 39.8217 9.39ZM42.1317 8.355C41.8717 8.355 41.7017 8.305 41.6217 8.205C41.5517 8.105 41.5267 7.99 41.5467 7.86C41.5767 7.72 41.6117 7.595 41.6517 7.485L41.8017 7.5C41.7717 7.6 41.7417 7.705 41.7117 7.815C41.6917 7.925 41.7067 8.02 41.7567 8.1C41.8067 8.18 41.9367 8.22 42.1467 8.22C42.2967 8.22 42.4667 8.15 42.6567 8.01C42.8467 7.87 43.0317 7.7 43.2117 7.5C43.4017 7.3 43.5617 7.105 43.6917 6.915L43.8267 7.02C43.6967 7.18 43.5367 7.365 43.3467 7.575C43.1667 7.785 42.9717 7.97 42.7617 8.13C42.5517 8.28 42.3417 8.355 42.1317 8.355Z" fill="#BB8ED0"/>
</svg>
