<svg width="91" height="14" viewBox="0 0 91 14" fill="none" xmlns="http://www.w3.org/2000/svg">
<path d="M1.14 9.225C0.860001 9.225 0.600001 9.19 0.360001 9.12C0.120001 9.06 9.02452e-07 8.955 9.02452e-07 8.805C9.02452e-07 8.705 0.0550009 8.615 0.165001 8.535C0.285001 8.455 0.425001 8.395 0.585001 8.355C0.755001 8.305 0.905001 8.28 1.035 8.28C1.465 8.28 1.88 8.345 2.28 8.475C2.68 8.595 3.09 8.72 3.51 8.85C3.94 8.97 4.4 9.03 4.89 9.03C5.49 9.03 6.065 8.905 6.615 8.655C7.165 8.405 7.655 8.065 8.085 7.635C8.515 7.205 8.85 6.72 9.09 6.18C9.34 5.63 9.465 5.06 9.465 4.47C9.465 3.84 9.355 3.29 9.135 2.82C8.925 2.35 8.585 1.985 8.115 1.725C7.655 1.465 7.055 1.335 6.315 1.335C5.755 1.335 5.21 1.45 4.68 1.68C4.15 1.9 3.675 2.19 3.255 2.55C2.835 2.9 2.5 3.28 2.25 3.69C2 4.1 1.875 4.485 1.875 4.845C1.875 5.035 1.95 5.23 2.1 5.43C2.25 5.63 2.51 5.73 2.88 5.73C3.23 5.73 3.61 5.64 4.02 5.46C4.43 5.27 4.82 5.02 5.19 4.71C5.57 4.39 5.895 4.035 6.165 3.645C6.435 3.245 6.6 2.835 6.66 2.415C6.68 2.285 6.71 2.225 6.75 2.235C6.79 2.245 6.81 2.305 6.81 2.415C6.81 2.845 6.7 3.27 6.48 3.69C6.26 4.1 5.97 4.47 5.61 4.8C5.25 5.13 4.85 5.395 4.41 5.595C3.98 5.795 3.545 5.895 3.105 5.895C2.715 5.895 2.405 5.83 2.175 5.7C1.945 5.57 1.78 5.41 1.68 5.22C1.58 5.02 1.53 4.825 1.53 4.635C1.53 4.255 1.645 3.865 1.875 3.465C2.115 3.055 2.445 2.68 2.865 2.34C3.295 2 3.795 1.725 4.365 1.515C4.945 1.305 5.57 1.2 6.24 1.2C6.86 1.2 7.395 1.285 7.845 1.455C8.295 1.615 8.665 1.84 8.955 2.13C9.245 2.41 9.46 2.74 9.6 3.12C9.75 3.49 9.825 3.885 9.825 4.305C9.825 5.005 9.69 5.655 9.42 6.255C9.16 6.845 8.8 7.36 8.34 7.8C7.88 8.24 7.355 8.585 6.765 8.835C6.175 9.075 5.56 9.195 4.92 9.195C4.45 9.195 4.01 9.14 3.6 9.03C3.19 8.92 2.79 8.815 2.4 8.715C2.02 8.605 1.615 8.55 1.185 8.55C1.095 8.55 0.965001 8.555 0.795001 8.565C0.635001 8.575 0.490001 8.6 0.360001 8.64C0.230001 8.67 0.165001 8.725 0.165001 8.805C0.165001 8.875 0.225001 8.93 0.345001 8.97C0.465001 9.01 0.605001 9.035 0.765001 9.045C0.925001 9.055 1.055 9.06 1.155 9.06C1.615 9.06 2.055 8.975 2.475 8.805C2.895 8.625 3.3 8.38 3.69 8.07C4.08 7.76 4.45 7.41 4.8 7.02C5.16 6.62 5.505 6.2 5.835 5.76C6.255 5.19 6.705 4.65 7.185 4.14C7.665 3.63 8.155 3.18 8.655 2.79C9.155 2.39 9.645 2.08 10.125 1.86C10.605 1.63 11.055 1.515 11.475 1.515C11.605 1.515 11.655 1.54 11.625 1.59C11.595 1.63 11.54 1.65 11.46 1.65C11.12 1.65 10.755 1.765 10.365 1.995C9.975 2.225 9.575 2.535 9.165 2.925C8.765 3.315 8.38 3.745 8.01 4.215C7.64 4.685 7.305 5.16 7.005 5.64C6.755 6.04 6.445 6.45 6.075 6.87C5.705 7.29 5.275 7.68 4.785 8.04C4.295 8.39 3.745 8.675 3.135 8.895C2.525 9.115 1.86 9.225 1.14 9.225ZM11.1386 9.225C10.6686 9.225 10.3586 9.12 10.2086 8.91C10.0586 8.69 9.98356 8.46 9.98356 8.22C9.98356 7.81 10.0886 7.43 10.2986 7.08C10.5086 6.72 10.7786 6.4 11.1086 6.12C11.4386 5.84 11.7786 5.625 12.1286 5.475C12.4886 5.315 12.8086 5.235 13.0886 5.235C13.2886 5.235 13.4486 5.265 13.5686 5.325C13.6886 5.375 13.7486 5.485 13.7486 5.655C13.7486 5.815 13.6536 5.985 13.4636 6.165C13.2736 6.345 13.0336 6.52 12.7436 6.69C12.4536 6.85 12.1486 7 11.8286 7.14C11.5186 7.27 11.2336 7.375 10.9736 7.455C10.7136 7.535 10.5236 7.575 10.4036 7.575C10.4036 7.575 10.4036 7.55 10.4036 7.5C10.4036 7.44 10.4036 7.41 10.4036 7.41C10.4936 7.42 10.6486 7.39 10.8686 7.32C11.0986 7.25 11.3536 7.16 11.6336 7.05C11.9136 6.93 12.1836 6.795 12.4436 6.645C12.7136 6.495 12.9336 6.335 13.1036 6.165C13.2836 5.995 13.3736 5.83 13.3736 5.67C13.3736 5.59 13.3486 5.52 13.2986 5.46C13.2586 5.4 13.1836 5.37 13.0736 5.37C12.9136 5.37 12.7186 5.45 12.4886 5.61C12.2686 5.76 12.0436 5.96 11.8136 6.21C11.5836 6.46 11.3686 6.725 11.1686 7.005C10.9686 7.285 10.8036 7.555 10.6736 7.815C10.5536 8.065 10.4936 8.275 10.4936 8.445C10.4936 8.645 10.5536 8.795 10.6736 8.895C10.7936 8.995 10.9686 9.045 11.1986 9.045C11.5986 9.045 11.9736 8.95 12.3236 8.76C12.6836 8.56 13.0086 8.33 13.2986 8.07C13.5886 7.8 13.8336 7.55 14.0336 7.32C14.2336 7.08 14.3686 6.925 14.4386 6.855C14.4386 6.855 14.4536 6.87 14.4836 6.9C14.5236 6.93 14.5436 6.945 14.5436 6.945C14.4736 7.025 14.3386 7.185 14.1386 7.425C13.9386 7.665 13.6886 7.925 13.3886 8.205C13.0886 8.485 12.7486 8.725 12.3686 8.925C11.9886 9.125 11.5786 9.225 11.1386 9.225ZM13.9233 9.435C13.5733 9.435 13.3083 9.37 13.1283 9.24C12.9483 9.11 12.8583 8.935 12.8583 8.715C12.8583 8.555 12.9133 8.415 13.0233 8.295C13.1233 8.165 13.2433 8.065 13.3833 7.995C13.5233 7.915 13.6333 7.875 13.7133 7.875C13.8233 7.875 13.8983 7.9 13.9383 7.95C13.9683 7.99 13.9833 8.035 13.9833 8.085C13.9833 8.165 13.9383 8.23 13.8483 8.28C13.7483 8.33 13.6683 8.355 13.6083 8.355C13.5383 8.355 13.4783 8.335 13.4283 8.295C13.3683 8.245 13.3383 8.22 13.3383 8.22C13.2883 8.23 13.2183 8.285 13.1283 8.385C13.0383 8.485 12.9933 8.595 12.9933 8.715C12.9933 8.835 13.0583 8.95 13.1883 9.06C13.3183 9.17 13.5283 9.225 13.8183 9.225C14.1183 9.225 14.4033 9.125 14.6733 8.925C14.9533 8.725 15.1833 8.47 15.3633 8.16C15.5433 7.85 15.6333 7.535 15.6333 7.215C15.6333 7.105 15.6333 6.96 15.6333 6.78C15.6333 6.59 15.6333 6.435 15.6333 6.315C15.6333 6.165 15.6583 5.995 15.7083 5.805C15.7583 5.605 15.8133 5.42 15.8733 5.25C15.9433 5.08 15.9983 4.975 16.0383 4.935C16.1183 4.865 16.1783 4.845 16.2183 4.875C16.2583 4.905 16.2683 4.935 16.2483 4.965C16.2383 4.975 16.1733 5.055 16.0533 5.205C15.9333 5.345 15.7833 5.52 15.6033 5.73C15.4233 5.94 15.2433 6.15 15.0633 6.36C14.8833 6.57 14.7233 6.755 14.5833 6.915C14.4533 7.075 14.3783 7.17 14.3583 7.2C14.3083 7.27 14.2633 7.285 14.2233 7.245C14.1833 7.205 14.1933 7.155 14.2533 7.095C14.3633 6.955 14.4983 6.79 14.6583 6.6C14.8283 6.4 14.9983 6.205 15.1683 6.015C15.3383 5.825 15.4833 5.665 15.6033 5.535C15.7333 5.395 15.8033 5.315 15.8133 5.295C15.8433 5.255 15.8683 5.185 15.8883 5.085C15.9183 4.985 15.9533 4.89 15.9933 4.8C16.0433 4.71 16.1033 4.665 16.1733 4.665C16.3433 4.665 16.4283 4.725 16.4283 4.845C16.4283 4.935 16.3583 5.045 16.2183 5.175C16.0883 5.305 16.0133 5.41 15.9933 5.49C15.9633 5.61 15.9633 5.78 15.9933 6C16.0333 6.21 16.0733 6.45 16.1133 6.72C16.1633 6.99 16.1883 7.275 16.1883 7.575C16.1883 7.975 16.1083 8.3 15.9483 8.55C15.7883 8.79 15.5883 8.975 15.3483 9.105C15.1083 9.235 14.8583 9.32 14.5983 9.36C14.3483 9.41 14.1233 9.435 13.9233 9.435ZM16.2333 8.4C15.9733 8.4 15.8033 8.35 15.7233 8.25C15.6533 8.15 15.6283 8.035 15.6483 7.905C15.6783 7.765 15.7133 7.64 15.7533 7.53L15.9033 7.545C15.8733 7.645 15.8433 7.75 15.8133 7.86C15.7933 7.97 15.8083 8.065 15.8583 8.145C15.9083 8.225 16.0383 8.265 16.2483 8.265C16.3983 8.265 16.5683 8.195 16.7583 8.055C16.9483 7.915 17.1333 7.745 17.3133 7.545C17.5033 7.345 17.6633 7.15 17.7933 6.96L17.9283 7.065C17.7983 7.225 17.6383 7.41 17.4483 7.62C17.2683 7.83 17.0733 8.015 16.8633 8.175C16.6533 8.325 16.4433 8.4 16.2333 8.4ZM17.4871 9.225C17.3471 9.225 17.1921 9.185 17.0221 9.105C16.8421 9.035 16.7521 8.915 16.7521 8.745C16.7521 8.535 16.8471 8.27 17.0371 7.95C17.2271 7.63 17.4621 7.3 17.7421 6.96C18.0121 6.62 18.2771 6.3 18.5371 6C18.7971 5.7 18.9921 5.465 19.1221 5.295C19.2321 5.305 19.3621 5.31 19.5121 5.31C19.6721 5.31 19.8121 5.305 19.9321 5.295C19.7921 5.465 19.6071 5.68 19.3771 5.94C19.1571 6.2 18.9221 6.48 18.6721 6.78C18.4321 7.07 18.1971 7.355 17.9671 7.635C17.7471 7.915 17.5671 8.165 17.4271 8.385C17.2871 8.605 17.2171 8.765 17.2171 8.865C17.2171 8.935 17.2471 8.985 17.3071 9.015C17.3671 9.045 17.4671 9.06 17.6071 9.06C17.8471 9.06 18.1121 8.97 18.4021 8.79C18.7021 8.6 18.9921 8.375 19.2721 8.115C19.5521 7.855 19.8021 7.61 20.0221 7.38C20.2421 7.14 20.3971 6.965 20.4871 6.855L20.6071 6.96C20.5171 7.06 20.3621 7.235 20.1421 7.485C19.9321 7.725 19.6771 7.98 19.3771 8.25C19.0871 8.52 18.7771 8.75 18.4471 8.94C18.1271 9.13 17.8071 9.225 17.4871 9.225ZM20.4871 4.155C20.3671 4.155 20.2771 4.12 20.2171 4.05C20.1571 3.97 20.1271 3.88 20.1271 3.78C20.1271 3.67 20.1871 3.555 20.3071 3.435C20.4271 3.315 20.5521 3.255 20.6821 3.255C20.8221 3.255 20.9221 3.295 20.9821 3.375C21.0421 3.445 21.0721 3.515 21.0721 3.585C21.0721 3.735 21.0121 3.87 20.8921 3.99C20.7721 4.1 20.6371 4.155 20.4871 4.155ZM23.2877 5.265C23.5877 5.265 23.7927 5.31 23.9027 5.4C24.0227 5.49 24.0827 5.61 24.0827 5.76C24.0827 5.9 24.0477 6.045 23.9777 6.195C23.9077 6.335 23.8327 6.465 23.7527 6.585C23.6827 6.705 23.6377 6.785 23.6177 6.825C23.5577 6.925 23.4877 6.99 23.4077 7.02C23.3277 7.04 23.3527 6.96 23.4827 6.78C23.6527 6.56 23.7777 6.35 23.8577 6.15C23.9377 5.94 23.9427 5.77 23.8727 5.64C23.8127 5.5 23.6427 5.43 23.3627 5.43C23.1727 5.43 22.9477 5.515 22.6877 5.685C22.4377 5.845 22.1777 6.06 21.9077 6.33C21.6377 6.59 21.3827 6.875 21.1427 7.185C20.9127 7.485 20.7227 7.775 20.5727 8.055C20.4327 8.325 20.3627 8.555 20.3627 8.745C20.3627 8.885 20.3927 8.97 20.4527 9C20.5127 9.03 20.5877 9.045 20.6777 9.045C20.9077 9.045 21.1727 8.945 21.4727 8.745C21.7727 8.535 22.0827 8.27 22.4027 7.95C22.7227 7.63 23.0277 7.3 23.3177 6.96C23.6177 6.61 23.8777 6.295 24.0977 6.015C24.3177 5.725 24.4727 5.515 24.5627 5.385C24.6727 5.415 24.7827 5.435 24.8927 5.445C25.0127 5.445 25.1677 5.43 25.3577 5.4C24.6977 6.16 24.0827 6.935 23.5127 7.725C22.9427 8.515 22.3977 9.27 21.8777 9.99C21.3577 10.71 20.8477 11.35 20.3477 11.91C19.8377 12.48 19.3227 12.93 18.8027 13.26C18.2827 13.59 17.7377 13.755 17.1677 13.755C16.9777 13.755 16.8277 13.715 16.7177 13.635C16.5977 13.555 16.5377 13.45 16.5377 13.32C16.5377 13.1 16.6527 12.87 16.8827 12.63C17.1127 12.4 17.4127 12.175 17.7827 11.955C18.1527 11.735 18.5527 11.52 18.9827 11.31C19.4027 11.11 19.8127 10.93 20.2127 10.77C20.6027 10.61 20.9327 10.475 21.2027 10.365C21.6727 10.175 22.1427 9.935 22.6127 9.645C23.0827 9.355 23.5227 9.04 23.9327 8.7C24.3527 8.36 24.7227 8.03 25.0427 7.71C25.3727 7.39 25.6277 7.105 25.8077 6.855C25.8077 6.855 25.8227 6.875 25.8527 6.915C25.8927 6.955 25.9127 6.975 25.9127 6.975C25.6627 7.305 25.3177 7.685 24.8777 8.115C24.4377 8.535 23.9127 8.955 23.3027 9.375C22.6927 9.795 22.0077 10.165 21.2477 10.485C20.9877 10.595 20.6677 10.73 20.2877 10.89C19.9077 11.05 19.5127 11.225 19.1027 11.415C18.6927 11.615 18.3077 11.82 17.9477 12.03C17.5877 12.25 17.2977 12.465 17.0777 12.675C16.8477 12.895 16.7327 13.105 16.7327 13.305C16.7327 13.375 16.7677 13.445 16.8377 13.515C16.9077 13.585 17.0177 13.62 17.1677 13.62C17.4477 13.62 17.7577 13.5 18.0977 13.26C18.4377 13.02 18.7977 12.705 19.1777 12.315C19.5477 11.925 19.9227 11.5 20.3027 11.04C20.6727 10.59 21.0277 10.14 21.3677 9.69C21.7077 9.24 22.0127 8.835 22.2827 8.475C22.5627 8.115 22.7877 7.845 22.9577 7.665C22.9577 7.665 22.9477 7.66 22.9277 7.65C22.9177 7.64 22.9127 7.635 22.9127 7.635C22.8727 7.685 22.7727 7.795 22.6127 7.965C22.4627 8.125 22.2727 8.305 22.0427 8.505C21.8127 8.695 21.5677 8.865 21.3077 9.015C21.0477 9.155 20.7927 9.225 20.5427 9.225C20.2827 9.225 20.1077 9.15 20.0177 9C19.9177 8.85 19.8677 8.68 19.8677 8.49C19.8677 8.17 19.9577 7.825 20.1377 7.455C20.3077 7.085 20.5477 6.735 20.8577 6.405C21.1777 6.075 21.5427 5.805 21.9527 5.595C22.3727 5.375 22.8177 5.265 23.2877 5.265ZM28.9208 9.225C28.3908 9.225 28.1258 9.07 28.1258 8.76C28.1258 8.56 28.1908 8.345 28.3208 8.115C28.4608 7.885 28.6308 7.655 28.8308 7.425C29.0308 7.185 29.2308 6.95 29.4308 6.72C29.6408 6.49 29.8108 6.28 29.9408 6.09C30.0808 5.89 30.1508 5.72 30.1508 5.58C30.1508 5.53 30.1258 5.49 30.0758 5.46C30.0358 5.42 29.9758 5.4 29.8958 5.4C29.7758 5.4 29.6058 5.46 29.3858 5.58C29.1758 5.7 28.9058 5.905 28.5758 6.195C28.2558 6.475 27.8758 6.855 27.4358 7.335C26.9958 7.805 26.4908 8.395 25.9208 9.105C25.8308 9.085 25.6958 9.075 25.5158 9.075C25.3358 9.075 25.1808 9.095 25.0508 9.135C25.3408 8.715 25.6258 8.305 25.9058 7.905C26.1858 7.505 26.4408 7.14 26.6708 6.81C26.9108 6.48 27.1008 6.21 27.2408 6C27.3808 5.78 27.4508 5.645 27.4508 5.595C27.4508 5.505 27.4058 5.46 27.3158 5.46C27.2158 5.46 27.0908 5.54 26.9408 5.7C26.7908 5.85 26.6258 6.045 26.4458 6.285C26.2658 6.515 26.0808 6.75 25.8908 6.99L25.7558 6.9C25.9558 6.67 26.1508 6.43 26.3408 6.18C26.5308 5.93 26.7258 5.715 26.9258 5.535C27.1258 5.355 27.3358 5.265 27.5558 5.265C27.6658 5.265 27.7658 5.295 27.8558 5.355C27.9558 5.405 28.0058 5.49 28.0058 5.61C28.0058 5.72 27.9608 5.855 27.8708 6.015C27.7908 6.165 27.6808 6.34 27.5408 6.54C27.4008 6.73 27.2408 6.945 27.0608 7.185C26.8908 7.415 26.7108 7.665 26.5208 7.935L26.5358 8.025C27.0658 7.445 27.5108 6.975 27.8708 6.615C28.2408 6.255 28.5458 5.98 28.7858 5.79C29.0358 5.59 29.2508 5.455 29.4308 5.385C29.6208 5.305 29.8008 5.265 29.9708 5.265C30.2008 5.265 30.3658 5.315 30.4658 5.415C30.5658 5.505 30.6158 5.63 30.6158 5.79C30.6158 6.03 30.5458 6.285 30.4058 6.555C30.2658 6.815 30.0908 7.075 29.8808 7.335C29.6808 7.585 29.4758 7.82 29.2658 8.04C29.0658 8.25 28.8958 8.43 28.7558 8.58C28.6158 8.73 28.5458 8.83 28.5458 8.88C28.5458 8.94 28.5608 8.985 28.5908 9.015C28.6308 9.045 28.7258 9.06 28.8758 9.06C29.2458 9.06 29.5958 8.945 29.9258 8.715C30.2658 8.485 30.5908 8.205 30.9008 7.875C31.2108 7.535 31.5008 7.2 31.7708 6.87L31.8908 6.975C31.6208 7.295 31.3258 7.63 31.0058 7.98C30.6858 8.33 30.3508 8.625 30.0008 8.865C29.6508 9.105 29.2908 9.225 28.9208 9.225ZM42.5141 3.495C42.5941 3.435 42.6441 3.425 42.6641 3.465C42.6841 3.495 42.6691 3.535 42.6191 3.585C42.3191 3.835 42.0141 4.15 41.7041 4.53C41.3941 4.91 41.0891 5.315 40.7891 5.745C40.4891 6.175 40.2091 6.605 39.9491 7.035C39.6891 7.455 39.4641 7.85 39.2741 8.22C39.0841 8.58 38.9441 8.875 38.8541 9.105C38.7341 9.085 38.5891 9.075 38.4191 9.075C38.2591 9.075 38.0941 9.085 37.9241 9.105C37.9641 9.045 38.0491 8.905 38.1791 8.685C38.3191 8.455 38.4691 8.185 38.6291 7.875C38.7991 7.555 38.9441 7.22 39.0641 6.87C39.1841 6.51 39.2441 6.17 39.2441 5.85C39.2441 5.65 39.1841 5.45 39.0641 5.25C38.9541 5.05 38.7841 4.95 38.5541 4.95C38.3941 4.95 38.2141 5.07 38.0141 5.31C37.8241 5.55 37.7291 5.875 37.7291 6.285C37.7291 6.725 37.8191 7.13 37.9991 7.5C38.1791 7.86 38.4341 8.15 38.7641 8.37C39.0941 8.58 39.4841 8.685 39.9341 8.685C40.2841 8.685 40.5941 8.6 40.8641 8.43C41.1441 8.25 41.3591 8.04 41.5091 7.8C41.6591 7.55 41.7141 7.315 41.6741 7.095C41.6141 7.095 41.5591 7.08 41.5091 7.05C41.4591 7.02 41.4341 6.965 41.4341 6.885C41.4341 6.845 41.4491 6.81 41.4791 6.78C41.5191 6.74 41.5691 6.72 41.6291 6.72C41.7991 6.72 41.8841 6.865 41.8841 7.155C41.8841 7.415 41.7941 7.68 41.6141 7.95C41.4441 8.21 41.2091 8.425 40.9091 8.595C40.6191 8.765 40.2891 8.85 39.9191 8.85C39.4591 8.85 39.0341 8.73 38.6441 8.49C38.2641 8.25 37.9591 7.93 37.7291 7.53C37.5091 7.13 37.3991 6.7 37.3991 6.24C37.3991 5.99 37.4441 5.75 37.5341 5.52C37.6341 5.29 37.7641 5.1 37.9241 4.95C38.0841 4.8 38.2691 4.725 38.4791 4.725C38.6891 4.725 38.8641 4.79 39.0041 4.92C39.1441 5.05 39.2491 5.205 39.3191 5.385C39.3891 5.555 39.4241 5.715 39.4241 5.865C39.4241 6.095 39.3841 6.35 39.3041 6.63C39.2241 6.9 39.1291 7.165 39.0191 7.425C38.9191 7.685 38.8241 7.91 38.7341 8.1C38.6441 8.28 38.5841 8.39 38.5541 8.43C38.5041 8.51 38.4541 8.56 38.4041 8.58C38.3641 8.59 38.3791 8.535 38.4491 8.415C38.4991 8.315 38.6191 8.125 38.8091 7.845C39.0091 7.555 39.2541 7.22 39.5441 6.84C39.8341 6.45 40.1441 6.05 40.4741 5.64C40.8141 5.22 41.1591 4.82 41.5091 4.44C41.8691 4.06 42.2041 3.745 42.5141 3.495ZM50.3414 5.295C50.4414 5.305 50.5764 5.32 50.7464 5.34C50.9264 5.35 51.0964 5.34 51.2564 5.31C51.0964 5.48 50.8914 5.695 50.6414 5.955C50.3914 6.205 50.1214 6.47 49.8314 6.75C49.5514 7.03 49.2864 7.305 49.0364 7.575C48.7964 7.845 48.5964 8.085 48.4364 8.295C48.2764 8.505 48.1964 8.665 48.1964 8.775C48.1964 8.875 48.2264 8.95 48.2864 9C48.3464 9.05 48.4514 9.075 48.6014 9.075C48.7614 9.075 48.9814 9.015 49.2614 8.895C49.5514 8.775 49.8614 8.615 50.1914 8.415C50.5214 8.215 50.8414 7.99 51.1514 7.74C51.4614 7.48 51.7214 7.215 51.9314 6.945C52.1514 6.665 52.2814 6.39 52.3214 6.12C52.3514 5.94 52.3664 5.755 52.3664 5.565C52.3664 5.455 52.4114 5.355 52.5014 5.265C52.6014 5.165 52.7014 5.115 52.8014 5.115C53.0214 5.115 53.1314 5.245 53.1314 5.505C53.1314 5.735 53.0164 6.01 52.7864 6.33C52.5664 6.65 52.2714 6.98 51.9014 7.32C51.5414 7.65 51.1464 7.96 50.7164 8.25C50.2964 8.54 49.8814 8.775 49.4714 8.955C49.0714 9.135 48.7214 9.225 48.4214 9.225C48.2414 9.225 48.0964 9.18 47.9864 9.09C47.8664 9 47.8064 8.87 47.8064 8.7C47.8064 8.51 47.8864 8.28 48.0464 8.01C48.2064 7.74 48.4114 7.455 48.6614 7.155C48.9014 6.855 49.1414 6.57 49.3814 6.3C49.6314 6.03 49.8464 5.805 50.0264 5.625C50.2064 5.445 50.3114 5.335 50.3414 5.295ZM51.8114 7.2L51.9314 7.29C51.8314 7.38 51.7464 7.475 51.6764 7.575C51.6164 7.665 51.5864 7.765 51.5864 7.875C51.5864 8.035 51.6814 8.115 51.8714 8.115C52.0514 8.115 52.2414 8.04 52.4414 7.89C52.6514 7.74 52.8564 7.565 53.0564 7.365C53.2564 7.165 53.4264 7 53.5664 6.87L53.6864 6.96C53.5464 7.11 53.3714 7.29 53.1614 7.5C52.9614 7.7 52.7464 7.875 52.5164 8.025C52.2864 8.175 52.0714 8.25 51.8714 8.25C51.5814 8.25 51.4364 8.13 51.4364 7.89C51.4364 7.75 51.4614 7.64 51.5114 7.56C51.5614 7.47 51.6614 7.35 51.8114 7.2ZM53.2586 9.225C53.1186 9.225 52.9636 9.185 52.7936 9.105C52.6136 9.035 52.5236 8.915 52.5236 8.745C52.5236 8.535 52.6186 8.27 52.8086 7.95C52.9986 7.63 53.2336 7.3 53.5136 6.96C53.7836 6.62 54.0486 6.3 54.3086 6C54.5686 5.7 54.7636 5.465 54.8936 5.295C55.0036 5.305 55.1336 5.31 55.2836 5.31C55.4436 5.31 55.5836 5.305 55.7036 5.295C55.5636 5.465 55.3786 5.68 55.1486 5.94C54.9286 6.2 54.6936 6.48 54.4436 6.78C54.2036 7.07 53.9686 7.355 53.7386 7.635C53.5186 7.915 53.3386 8.165 53.1986 8.385C53.0586 8.605 52.9886 8.765 52.9886 8.865C52.9886 8.935 53.0186 8.985 53.0786 9.015C53.1386 9.045 53.2386 9.06 53.3786 9.06C53.6186 9.06 53.8836 8.97 54.1736 8.79C54.4736 8.6 54.7636 8.375 55.0436 8.115C55.3236 7.855 55.5736 7.61 55.7936 7.38C56.0136 7.14 56.1686 6.965 56.2586 6.855L56.3786 6.96C56.2886 7.06 56.1336 7.235 55.9136 7.485C55.7036 7.725 55.4486 7.98 55.1486 8.25C54.8586 8.52 54.5486 8.75 54.2186 8.94C53.8986 9.13 53.5786 9.225 53.2586 9.225ZM56.2586 4.155C56.1386 4.155 56.0486 4.12 55.9886 4.05C55.9286 3.97 55.8986 3.88 55.8986 3.78C55.8986 3.67 55.9586 3.555 56.0786 3.435C56.1986 3.315 56.3236 3.255 56.4536 3.255C56.5936 3.255 56.6936 3.295 56.7536 3.375C56.8136 3.445 56.8436 3.515 56.8436 3.585C56.8436 3.735 56.7836 3.87 56.6636 3.99C56.5436 4.1 56.4086 4.155 56.2586 4.155ZM56.3742 9.225C56.0942 9.225 55.8992 9.16 55.7892 9.03C55.6792 8.89 55.6242 8.675 55.6242 8.385C55.6242 8.085 55.7242 7.755 55.9242 7.395C56.1242 7.035 56.3892 6.695 56.7192 6.375C57.0592 6.045 57.4392 5.775 57.8592 5.565C58.2792 5.355 58.7092 5.25 59.1492 5.25C59.3892 5.25 59.5542 5.3 59.6442 5.4C59.7442 5.49 59.7942 5.6 59.7942 5.73C59.8042 5.86 59.7742 5.97 59.7042 6.06C59.7042 6.06 59.6742 6.09 59.6142 6.15C59.5642 6.21 59.5142 6.275 59.4642 6.345C59.4142 6.405 59.3892 6.435 59.3892 6.435C59.5892 6.085 59.6592 5.835 59.5992 5.685C59.5492 5.525 59.4092 5.445 59.1792 5.445C59.0092 5.445 58.7942 5.525 58.5342 5.685C58.2842 5.845 58.0142 6.055 57.7242 6.315C57.4442 6.575 57.1792 6.855 56.9292 7.155C56.6792 7.455 56.4742 7.745 56.3142 8.025C56.1642 8.305 56.0892 8.545 56.0892 8.745C56.0892 8.845 56.1242 8.92 56.1942 8.97C56.2642 9.02 56.3542 9.045 56.4642 9.045C56.6142 9.045 56.7892 8.985 56.9892 8.865C57.1892 8.745 57.3942 8.595 57.6042 8.415C57.8142 8.235 58.0092 8.055 58.1892 7.875C58.3692 7.695 58.5142 7.54 58.6242 7.41C58.7442 7.28 58.8092 7.205 58.8192 7.185C58.8592 7.135 58.9742 6.97 59.1642 6.69C59.3642 6.41 59.6142 6.06 59.9142 5.64C60.2142 5.22 60.5342 4.765 60.8742 4.275C61.2242 3.775 61.5692 3.28 61.9092 2.79C62.2492 2.29 62.5642 1.835 62.8542 1.425C63.1442 1.015 63.3792 0.679996 63.5592 0.419996C63.7392 0.159996 63.8392 0.019996 63.8592 -3.75509e-06C63.9592 0.0499962 64.0542 0.084996 64.1442 0.104996C64.2442 0.114996 64.3942 0.109996 64.5942 0.089996C64.5742 0.119996 64.4542 0.289996 64.2342 0.599996C64.0142 0.899996 63.7292 1.295 63.3792 1.785C63.0292 2.275 62.6492 2.81 62.2392 3.39C61.8292 3.97 61.4142 4.55 60.9942 5.13C60.5842 5.71 60.2042 6.245 59.8542 6.735C59.5042 7.225 59.2192 7.625 58.9992 7.935C58.7792 8.235 58.6592 8.4 58.6392 8.43C58.5992 8.49 58.5542 8.57 58.5042 8.67C58.4642 8.76 58.4442 8.845 58.4442 8.925C58.4442 9.005 58.4842 9.045 58.5642 9.045C58.8642 9.045 59.1592 8.96 59.4492 8.79C59.7492 8.61 60.0292 8.395 60.2892 8.145C60.5592 7.895 60.7942 7.655 60.9942 7.425C61.1942 7.185 61.3542 7 61.4742 6.87L61.5942 6.96C61.4842 7.1 61.3192 7.295 61.0992 7.545C60.8792 7.795 60.6242 8.05 60.3342 8.31C60.0542 8.56 59.7592 8.775 59.4492 8.955C59.1392 9.135 58.8392 9.225 58.5492 9.225C58.3592 9.225 58.2142 9.19 58.1142 9.12C58.0142 9.06 57.9642 8.975 57.9642 8.865C57.9642 8.735 58.0092 8.59 58.0992 8.43C58.1992 8.27 58.3042 8.12 58.4142 7.98C58.5242 7.83 58.6042 7.725 58.6542 7.665C58.6542 7.665 58.6442 7.665 58.6242 7.665C58.6142 7.655 58.6092 7.65 58.6092 7.65C58.5992 7.66 58.5192 7.745 58.3692 7.905C58.2292 8.065 58.0442 8.25 57.8142 8.46C57.5942 8.66 57.3592 8.84 57.1092 9C56.8592 9.15 56.6142 9.225 56.3742 9.225ZM62.1737 9.225C61.7037 9.225 61.3937 9.12 61.2437 8.91C61.0937 8.69 61.0187 8.46 61.0187 8.22C61.0187 7.81 61.1237 7.43 61.3337 7.08C61.5437 6.72 61.8137 6.4 62.1437 6.12C62.4737 5.84 62.8137 5.625 63.1637 5.475C63.5237 5.315 63.8437 5.235 64.1237 5.235C64.3237 5.235 64.4837 5.265 64.6037 5.325C64.7237 5.375 64.7837 5.485 64.7837 5.655C64.7837 5.815 64.6887 5.985 64.4987 6.165C64.3087 6.345 64.0687 6.52 63.7787 6.69C63.4887 6.85 63.1837 7 62.8637 7.14C62.5537 7.27 62.2687 7.375 62.0087 7.455C61.7487 7.535 61.5587 7.575 61.4387 7.575C61.4387 7.575 61.4387 7.55 61.4387 7.5C61.4387 7.44 61.4387 7.41 61.4387 7.41C61.5287 7.42 61.6837 7.39 61.9037 7.32C62.1337 7.25 62.3887 7.16 62.6687 7.05C62.9487 6.93 63.2187 6.795 63.4787 6.645C63.7487 6.495 63.9687 6.335 64.1387 6.165C64.3187 5.995 64.4087 5.83 64.4087 5.67C64.4087 5.59 64.3837 5.52 64.3337 5.46C64.2937 5.4 64.2187 5.37 64.1087 5.37C63.9487 5.37 63.7537 5.45 63.5237 5.61C63.3037 5.76 63.0787 5.96 62.8487 6.21C62.6187 6.46 62.4037 6.725 62.2037 7.005C62.0037 7.285 61.8387 7.555 61.7087 7.815C61.5887 8.065 61.5287 8.275 61.5287 8.445C61.5287 8.645 61.5887 8.795 61.7087 8.895C61.8287 8.995 62.0037 9.045 62.2337 9.045C62.6337 9.045 63.0087 8.95 63.3587 8.76C63.7187 8.56 64.0437 8.33 64.3337 8.07C64.6237 7.8 64.8687 7.55 65.0687 7.32C65.2687 7.08 65.4037 6.925 65.4737 6.855C65.4737 6.855 65.4887 6.87 65.5187 6.9C65.5587 6.93 65.5787 6.945 65.5787 6.945C65.5087 7.025 65.3737 7.185 65.1737 7.425C64.9737 7.665 64.7237 7.925 64.4237 8.205C64.1237 8.485 63.7837 8.725 63.4037 8.925C63.0237 9.125 62.6137 9.225 62.1737 9.225ZM68.0334 5.265C68.5334 5.265 68.7834 5.505 68.7834 5.985C68.7834 6.355 68.6984 6.735 68.5284 7.125C68.3584 7.505 68.1284 7.855 67.8384 8.175C67.5484 8.485 67.2334 8.74 66.8934 8.94C66.5534 9.13 66.2084 9.225 65.8584 9.225C65.5884 9.225 65.3634 9.16 65.1834 9.03C64.9934 8.89 64.8984 8.665 64.8984 8.355C64.8984 8.065 64.9834 7.745 65.1534 7.395C65.3234 7.035 65.5534 6.695 65.8434 6.375C66.1434 6.055 66.4784 5.79 66.8484 5.58C67.2284 5.37 67.6234 5.265 68.0334 5.265ZM68.1984 5.475C68.0284 5.475 67.8284 5.55 67.5984 5.7C67.3684 5.85 67.1334 6.045 66.8934 6.285C66.6534 6.525 66.4284 6.785 66.2184 7.065C66.0184 7.335 65.8534 7.6 65.7234 7.86C65.6034 8.12 65.5434 8.34 65.5434 8.52C65.5434 8.72 65.5984 8.86 65.7084 8.94C65.8184 9.01 65.9434 9.045 66.0834 9.045C66.3134 9.045 66.5734 8.95 66.8634 8.76C67.1534 8.56 67.4334 8.31 67.7034 8.01C67.9734 7.71 68.1934 7.395 68.3634 7.065C68.5434 6.725 68.6334 6.415 68.6334 6.135C68.6334 5.875 68.5884 5.7 68.4984 5.61C68.4084 5.52 68.3084 5.475 68.1984 5.475ZM68.4684 7.02C68.5184 7.02 68.5384 7.04 68.5284 7.08C68.5284 7.11 68.5034 7.125 68.4534 7.125C68.4134 7.125 68.3534 7.18 68.2734 7.29C68.2034 7.39 68.1384 7.495 68.0784 7.605C68.0184 7.715 67.9884 7.775 67.9884 7.785C67.9884 8.015 68.0734 8.13 68.2434 8.13C68.4034 8.13 68.5834 8.055 68.7834 7.905C68.9934 7.755 69.1934 7.585 69.3834 7.395C69.5834 7.195 69.7434 7.02 69.8634 6.87L69.9834 6.975C69.8534 7.125 69.6884 7.305 69.4884 7.515C69.2884 7.715 69.0784 7.895 68.8584 8.055C68.6384 8.205 68.4334 8.28 68.2434 8.28C68.0834 8.28 67.9734 8.245 67.9134 8.175C67.8534 8.105 67.8234 7.98 67.8234 7.8C67.8234 7.56 67.9034 7.37 68.0634 7.23C68.2334 7.09 68.3684 7.02 68.4684 7.02ZM75.0497 9.225C74.5797 9.225 74.2697 9.12 74.1197 8.91C73.9697 8.69 73.8947 8.46 73.8947 8.22C73.8947 7.81 73.9997 7.43 74.2097 7.08C74.4197 6.72 74.6897 6.4 75.0197 6.12C75.3497 5.84 75.6897 5.625 76.0397 5.475C76.3997 5.315 76.7197 5.235 76.9997 5.235C77.1997 5.235 77.3597 5.265 77.4797 5.325C77.5997 5.375 77.6597 5.485 77.6597 5.655C77.6597 5.815 77.5647 5.985 77.3747 6.165C77.1847 6.345 76.9447 6.52 76.6547 6.69C76.3647 6.85 76.0597 7 75.7397 7.14C75.4297 7.27 75.1447 7.375 74.8847 7.455C74.6247 7.535 74.4347 7.575 74.3147 7.575C74.3147 7.575 74.3147 7.55 74.3147 7.5C74.3147 7.44 74.3147 7.41 74.3147 7.41C74.4047 7.42 74.5597 7.39 74.7797 7.32C75.0097 7.25 75.2647 7.16 75.5447 7.05C75.8247 6.93 76.0947 6.795 76.3547 6.645C76.6247 6.495 76.8447 6.335 77.0147 6.165C77.1947 5.995 77.2847 5.83 77.2847 5.67C77.2847 5.59 77.2597 5.52 77.2097 5.46C77.1697 5.4 77.0947 5.37 76.9847 5.37C76.8247 5.37 76.6297 5.45 76.3997 5.61C76.1797 5.76 75.9547 5.96 75.7247 6.21C75.4947 6.46 75.2797 6.725 75.0797 7.005C74.8797 7.285 74.7147 7.555 74.5847 7.815C74.4647 8.065 74.4047 8.275 74.4047 8.445C74.4047 8.645 74.4647 8.795 74.5847 8.895C74.7047 8.995 74.8797 9.045 75.1097 9.045C75.5097 9.045 75.8847 8.95 76.2347 8.76C76.5947 8.56 76.9197 8.33 77.2097 8.07C77.4997 7.8 77.7447 7.55 77.9447 7.32C78.1447 7.08 78.2797 6.925 78.3497 6.855C78.3497 6.855 78.3647 6.87 78.3947 6.9C78.4347 6.93 78.4547 6.945 78.4547 6.945C78.3847 7.025 78.2497 7.185 78.0497 7.425C77.8497 7.665 77.5997 7.925 77.2997 8.205C76.9997 8.485 76.6597 8.725 76.2797 8.925C75.8997 9.125 75.4897 9.225 75.0497 9.225ZM78.4494 9.225C78.1694 9.225 77.9744 9.16 77.8644 9.03C77.7544 8.89 77.6994 8.675 77.6994 8.385C77.6994 8.085 77.7994 7.755 77.9994 7.395C78.1994 7.035 78.4644 6.695 78.7944 6.375C79.1344 6.045 79.5144 5.775 79.9344 5.565C80.3544 5.355 80.7844 5.25 81.2244 5.25C81.4644 5.25 81.6294 5.3 81.7194 5.4C81.8194 5.49 81.8694 5.6 81.8694 5.73C81.8794 5.86 81.8494 5.97 81.7794 6.06C81.7794 6.06 81.7494 6.09 81.6894 6.15C81.6394 6.21 81.5894 6.275 81.5394 6.345C81.4894 6.405 81.4644 6.435 81.4644 6.435C81.6644 6.085 81.7344 5.835 81.6744 5.685C81.6244 5.525 81.4844 5.445 81.2544 5.445C81.0844 5.445 80.8694 5.525 80.6094 5.685C80.3594 5.845 80.0894 6.055 79.7994 6.315C79.5194 6.575 79.2544 6.855 79.0044 7.155C78.7544 7.455 78.5494 7.745 78.3894 8.025C78.2394 8.305 78.1644 8.545 78.1644 8.745C78.1644 8.845 78.1994 8.92 78.2694 8.97C78.3394 9.02 78.4294 9.045 78.5394 9.045C78.6894 9.045 78.8644 8.985 79.0644 8.865C79.2644 8.745 79.4694 8.595 79.6794 8.415C79.8894 8.235 80.0844 8.055 80.2644 7.875C80.4444 7.695 80.5894 7.54 80.6994 7.41C80.8194 7.28 80.8844 7.205 80.8944 7.185C80.9344 7.135 81.0494 6.97 81.2394 6.69C81.4394 6.41 81.6894 6.06 81.9894 5.64C82.2894 5.22 82.6094 4.765 82.9494 4.275C83.2994 3.775 83.6444 3.28 83.9844 2.79C84.3244 2.29 84.6394 1.835 84.9294 1.425C85.2194 1.015 85.4544 0.679996 85.6344 0.419996C85.8144 0.159996 85.9144 0.019996 85.9344 -3.75509e-06C86.0344 0.0499962 86.1294 0.084996 86.2194 0.104996C86.3194 0.114996 86.4694 0.109996 86.6694 0.089996C86.6494 0.119996 86.5294 0.289996 86.3094 0.599996C86.0894 0.899996 85.8044 1.295 85.4544 1.785C85.1044 2.275 84.7244 2.81 84.3144 3.39C83.9044 3.97 83.4894 4.55 83.0694 5.13C82.6594 5.71 82.2794 6.245 81.9294 6.735C81.5794 7.225 81.2944 7.625 81.0744 7.935C80.8544 8.235 80.7344 8.4 80.7144 8.43C80.6744 8.49 80.6294 8.57 80.5794 8.67C80.5394 8.76 80.5194 8.845 80.5194 8.925C80.5194 9.005 80.5594 9.045 80.6394 9.045C80.9394 9.045 81.2344 8.96 81.5244 8.79C81.8244 8.61 82.1044 8.395 82.3644 8.145C82.6344 7.895 82.8694 7.655 83.0694 7.425C83.2694 7.185 83.4294 7 83.5494 6.87L83.6694 6.96C83.5594 7.1 83.3944 7.295 83.1744 7.545C82.9544 7.795 82.6994 8.05 82.4094 8.31C82.1294 8.56 81.8344 8.775 81.5244 8.955C81.2144 9.135 80.9144 9.225 80.6244 9.225C80.4344 9.225 80.2894 9.19 80.1894 9.12C80.0894 9.06 80.0394 8.975 80.0394 8.865C80.0394 8.735 80.0844 8.59 80.1744 8.43C80.2744 8.27 80.3794 8.12 80.4894 7.98C80.5994 7.83 80.6794 7.725 80.7294 7.665C80.7294 7.665 80.7194 7.665 80.6994 7.665C80.6894 7.655 80.6844 7.65 80.6844 7.65C80.6744 7.66 80.5944 7.745 80.4444 7.905C80.3044 8.065 80.1194 8.25 79.8894 8.46C79.6694 8.66 79.4344 8.84 79.1844 9C78.9344 9.15 78.6894 9.225 78.4494 9.225ZM83.2439 9.225C83.1039 9.225 82.9489 9.185 82.7789 9.105C82.5989 9.035 82.5089 8.915 82.5089 8.745C82.5089 8.535 82.6039 8.27 82.7939 7.95C82.9839 7.63 83.2189 7.3 83.4989 6.96C83.7689 6.62 84.0339 6.3 84.2939 6C84.5539 5.7 84.7489 5.465 84.8789 5.295C84.9889 5.305 85.1189 5.31 85.2689 5.31C85.4289 5.31 85.5689 5.305 85.6889 5.295C85.5489 5.465 85.3639 5.68 85.1339 5.94C84.9139 6.2 84.6789 6.48 84.4289 6.78C84.1889 7.07 83.9539 7.355 83.7239 7.635C83.5039 7.915 83.3239 8.165 83.1839 8.385C83.0439 8.605 82.9739 8.765 82.9739 8.865C82.9739 8.935 83.0039 8.985 83.0639 9.015C83.1239 9.045 83.2239 9.06 83.3639 9.06C83.6039 9.06 83.8689 8.97 84.1589 8.79C84.4589 8.6 84.7489 8.375 85.0289 8.115C85.3089 7.855 85.5589 7.61 85.7789 7.38C85.9989 7.14 86.1539 6.965 86.2439 6.855L86.3639 6.96C86.2739 7.06 86.1189 7.235 85.8989 7.485C85.6889 7.725 85.4339 7.98 85.1339 8.25C84.8439 8.52 84.5339 8.75 84.2039 8.94C83.8839 9.13 83.5639 9.225 83.2439 9.225ZM86.2439 4.155C86.1239 4.155 86.0339 4.12 85.9739 4.05C85.9139 3.97 85.8839 3.88 85.8839 3.78C85.8839 3.67 85.9439 3.555 86.0639 3.435C86.1839 3.315 86.3089 3.255 86.4389 3.255C86.5789 3.255 86.6789 3.295 86.7389 3.375C86.7989 3.445 86.8289 3.515 86.8289 3.585C86.8289 3.735 86.7689 3.87 86.6489 3.99C86.5289 4.1 86.3939 4.155 86.2439 4.155ZM89.2396 2.61C89.3296 2.65 89.4596 2.67 89.6296 2.67C89.8096 2.66 89.9496 2.645 90.0496 2.625C89.7296 3.065 89.3746 3.55 88.9846 4.08C88.5946 4.61 88.1996 5.14 87.7996 5.67C87.4096 6.19 87.0446 6.68 86.7046 7.14C86.3746 7.59 86.1096 7.97 85.9096 8.28C85.7096 8.59 85.6096 8.785 85.6096 8.865C85.6096 8.925 85.6446 8.97 85.7146 9C85.7746 9.03 85.8546 9.045 85.9546 9.045C86.1746 9.045 86.4146 8.97 86.6746 8.82C86.9446 8.66 87.2096 8.465 87.4696 8.235C87.7396 7.995 87.9846 7.755 88.2046 7.515C88.4346 7.265 88.6146 7.05 88.7446 6.87L88.8646 6.96C88.7246 7.14 88.5396 7.355 88.3096 7.605C88.0796 7.855 87.8246 8.105 87.5446 8.355C87.2646 8.605 86.9746 8.815 86.6746 8.985C86.3846 9.145 86.1046 9.225 85.8346 9.225C85.6446 9.225 85.4946 9.185 85.3846 9.105C85.2646 9.035 85.2046 8.91 85.2046 8.73C85.2046 8.57 85.2996 8.325 85.4896 7.995C85.6796 7.655 85.9246 7.265 86.2246 6.825C86.5346 6.385 86.8696 5.92 87.2296 5.43C87.5896 4.93 87.9446 4.44 88.2946 3.96C88.6546 3.47 88.9696 3.02 89.2396 2.61ZM87.5896 4.29C87.4896 4.29 87.4396 4.26 87.4396 4.2C87.4396 4.15 87.4896 4.125 87.5896 4.125H90.4396C90.4696 4.125 90.4996 4.13 90.5296 4.14C90.5696 4.15 90.5896 4.17 90.5896 4.2C90.5896 4.24 90.5696 4.265 90.5296 4.275C90.4996 4.285 90.4696 4.29 90.4396 4.29H87.5896Z" fill="#BB8ED0"/>
</svg>
