<svg width="58" height="14" viewBox="0 0 58 14" fill="none" xmlns="http://www.w3.org/2000/svg">
<path d="M1.14 9.225C0.860001 9.225 0.600001 9.19 0.360001 9.12C0.120001 9.06 9.02452e-07 8.955 9.02452e-07 8.805C9.02452e-07 8.705 0.0550009 8.615 0.165001 8.535C0.285001 8.455 0.425001 8.395 0.585001 8.355C0.755001 8.305 0.905001 8.28 1.035 8.28C1.465 8.28 1.88 8.345 2.28 8.475C2.68 8.595 3.09 8.72 3.51 8.85C3.94 8.97 4.4 9.03 4.89 9.03C5.49 9.03 6.065 8.905 6.615 8.655C7.165 8.405 7.655 8.065 8.085 7.635C8.515 7.205 8.85 6.72 9.09 6.18C9.34 5.63 9.465 5.06 9.465 4.47C9.465 3.84 9.355 3.29 9.135 2.82C8.925 2.35 8.585 1.985 8.115 1.725C7.655 1.465 7.055 1.335 6.315 1.335C5.755 1.335 5.21 1.45 4.68 1.68C4.15 1.9 3.675 2.19 3.255 2.55C2.835 2.9 2.5 3.28 2.25 3.69C2 4.1 1.875 4.485 1.875 4.845C1.875 5.035 1.95 5.23 2.1 5.43C2.25 5.63 2.51 5.73 2.88 5.73C3.23 5.73 3.61 5.64 4.02 5.46C4.43 5.27 4.82 5.02 5.19 4.71C5.57 4.39 5.895 4.035 6.165 3.645C6.435 3.245 6.6 2.835 6.66 2.415C6.68 2.285 6.71 2.225 6.75 2.235C6.79 2.245 6.81 2.305 6.81 2.415C6.81 2.845 6.7 3.27 6.48 3.69C6.26 4.1 5.97 4.47 5.61 4.8C5.25 5.13 4.85 5.395 4.41 5.595C3.98 5.795 3.545 5.895 3.105 5.895C2.715 5.895 2.405 5.83 2.175 5.7C1.945 5.57 1.78 5.41 1.68 5.22C1.58 5.02 1.53 4.825 1.53 4.635C1.53 4.255 1.645 3.865 1.875 3.465C2.115 3.055 2.445 2.68 2.865 2.34C3.295 2 3.795 1.725 4.365 1.515C4.945 1.305 5.57 1.2 6.24 1.2C6.86 1.2 7.395 1.285 7.845 1.455C8.295 1.615 8.665 1.84 8.955 2.13C9.245 2.41 9.46 2.74 9.6 3.12C9.75 3.49 9.825 3.885 9.825 4.305C9.825 5.005 9.69 5.655 9.42 6.255C9.16 6.845 8.8 7.36 8.34 7.8C7.88 8.24 7.355 8.585 6.765 8.835C6.175 9.075 5.56 9.195 4.92 9.195C4.45 9.195 4.01 9.14 3.6 9.03C3.19 8.92 2.79 8.815 2.4 8.715C2.02 8.605 1.615 8.55 1.185 8.55C1.095 8.55 0.965001 8.555 0.795001 8.565C0.635001 8.575 0.490001 8.6 0.360001 8.64C0.230001 8.67 0.165001 8.725 0.165001 8.805C0.165001 8.875 0.225001 8.93 0.345001 8.97C0.465001 9.01 0.605001 9.035 0.765001 9.045C0.925001 9.055 1.055 9.06 1.155 9.06C1.615 9.06 2.055 8.975 2.475 8.805C2.895 8.625 3.3 8.38 3.69 8.07C4.08 7.76 4.45 7.41 4.8 7.02C5.16 6.62 5.505 6.2 5.835 5.76C6.255 5.19 6.705 4.65 7.185 4.14C7.665 3.63 8.155 3.18 8.655 2.79C9.155 2.39 9.645 2.08 10.125 1.86C10.605 1.63 11.055 1.515 11.475 1.515C11.605 1.515 11.655 1.54 11.625 1.59C11.595 1.63 11.54 1.65 11.46 1.65C11.12 1.65 10.755 1.765 10.365 1.995C9.975 2.225 9.575 2.535 9.165 2.925C8.765 3.315 8.38 3.745 8.01 4.215C7.64 4.685 7.305 5.16 7.005 5.64C6.755 6.04 6.445 6.45 6.075 6.87C5.705 7.29 5.275 7.68 4.785 8.04C4.295 8.39 3.745 8.675 3.135 8.895C2.525 9.115 1.86 9.225 1.14 9.225ZM11.1386 9.225C10.6686 9.225 10.3586 9.12 10.2086 8.91C10.0586 8.69 9.98356 8.46 9.98356 8.22C9.98356 7.81 10.0886 7.43 10.2986 7.08C10.5086 6.72 10.7786 6.4 11.1086 6.12C11.4386 5.84 11.7786 5.625 12.1286 5.475C12.4886 5.315 12.8086 5.235 13.0886 5.235C13.2886 5.235 13.4486 5.265 13.5686 5.325C13.6886 5.375 13.7486 5.485 13.7486 5.655C13.7486 5.815 13.6536 5.985 13.4636 6.165C13.2736 6.345 13.0336 6.52 12.7436 6.69C12.4536 6.85 12.1486 7 11.8286 7.14C11.5186 7.27 11.2336 7.375 10.9736 7.455C10.7136 7.535 10.5236 7.575 10.4036 7.575C10.4036 7.575 10.4036 7.55 10.4036 7.5C10.4036 7.44 10.4036 7.41 10.4036 7.41C10.4936 7.42 10.6486 7.39 10.8686 7.32C11.0986 7.25 11.3536 7.16 11.6336 7.05C11.9136 6.93 12.1836 6.795 12.4436 6.645C12.7136 6.495 12.9336 6.335 13.1036 6.165C13.2836 5.995 13.3736 5.83 13.3736 5.67C13.3736 5.59 13.3486 5.52 13.2986 5.46C13.2586 5.4 13.1836 5.37 13.0736 5.37C12.9136 5.37 12.7186 5.45 12.4886 5.61C12.2686 5.76 12.0436 5.96 11.8136 6.21C11.5836 6.46 11.3686 6.725 11.1686 7.005C10.9686 7.285 10.8036 7.555 10.6736 7.815C10.5536 8.065 10.4936 8.275 10.4936 8.445C10.4936 8.645 10.5536 8.795 10.6736 8.895C10.7936 8.995 10.9686 9.045 11.1986 9.045C11.5986 9.045 11.9736 8.95 12.3236 8.76C12.6836 8.56 13.0086 8.33 13.2986 8.07C13.5886 7.8 13.8336 7.55 14.0336 7.32C14.2336 7.08 14.3686 6.925 14.4386 6.855C14.4386 6.855 14.4536 6.87 14.4836 6.9C14.5236 6.93 14.5436 6.945 14.5436 6.945C14.4736 7.025 14.3386 7.185 14.1386 7.425C13.9386 7.665 13.6886 7.925 13.3886 8.205C13.0886 8.485 12.7486 8.725 12.3686 8.925C11.9886 9.125 11.5786 9.225 11.1386 9.225ZM15.8883 5.295C15.9883 5.305 16.1233 5.32 16.2933 5.34C16.4733 5.35 16.6433 5.34 16.8033 5.31C16.6433 5.48 16.4383 5.695 16.1883 5.955C15.9383 6.205 15.6683 6.47 15.3783 6.75C15.0983 7.03 14.8333 7.305 14.5833 7.575C14.3433 7.845 14.1433 8.085 13.9833 8.295C13.8233 8.505 13.7433 8.665 13.7433 8.775C13.7433 8.875 13.7733 8.95 13.8333 9C13.8933 9.05 13.9983 9.075 14.1483 9.075C14.3083 9.075 14.5283 9.015 14.8083 8.895C15.0983 8.775 15.4083 8.615 15.7383 8.415C16.0683 8.215 16.3883 7.99 16.6983 7.74C17.0083 7.48 17.2683 7.215 17.4783 6.945C17.6983 6.665 17.8283 6.39 17.8683 6.12C17.8983 5.94 17.9133 5.755 17.9133 5.565C17.9133 5.455 17.9583 5.355 18.0483 5.265C18.1483 5.165 18.2483 5.115 18.3483 5.115C18.5683 5.115 18.6783 5.245 18.6783 5.505C18.6783 5.735 18.5633 6.01 18.3333 6.33C18.1133 6.65 17.8183 6.98 17.4483 7.32C17.0883 7.65 16.6933 7.96 16.2633 8.25C15.8433 8.54 15.4283 8.775 15.0183 8.955C14.6183 9.135 14.2683 9.225 13.9683 9.225C13.7883 9.225 13.6433 9.18 13.5333 9.09C13.4133 9 13.3533 8.87 13.3533 8.7C13.3533 8.51 13.4333 8.28 13.5933 8.01C13.7533 7.74 13.9583 7.455 14.2083 7.155C14.4483 6.855 14.6883 6.57 14.9283 6.3C15.1783 6.03 15.3933 5.805 15.5733 5.625C15.7533 5.445 15.8583 5.335 15.8883 5.295ZM17.3583 7.2L17.4783 7.29C17.3783 7.38 17.2933 7.475 17.2233 7.575C17.1633 7.665 17.1333 7.765 17.1333 7.875C17.1333 8.035 17.2283 8.115 17.4183 8.115C17.5983 8.115 17.7883 8.04 17.9883 7.89C18.1983 7.74 18.4033 7.565 18.6033 7.365C18.8033 7.165 18.9733 7 19.1133 6.87L19.2333 6.96C19.0933 7.11 18.9183 7.29 18.7083 7.5C18.5083 7.7 18.2933 7.875 18.0633 8.025C17.8333 8.175 17.6183 8.25 17.4183 8.25C17.1283 8.25 16.9833 8.13 16.9833 7.89C16.9833 7.75 17.0083 7.64 17.0583 7.56C17.1083 7.47 17.2083 7.35 17.3583 7.2ZM19.8104 9.225C19.3404 9.225 19.0304 9.12 18.8804 8.91C18.7304 8.69 18.6554 8.46 18.6554 8.22C18.6554 7.81 18.7604 7.43 18.9704 7.08C19.1804 6.72 19.4504 6.4 19.7804 6.12C20.1104 5.84 20.4504 5.625 20.8004 5.475C21.1604 5.315 21.4804 5.235 21.7604 5.235C21.9604 5.235 22.1204 5.265 22.2404 5.325C22.3604 5.375 22.4204 5.485 22.4204 5.655C22.4204 5.815 22.3254 5.985 22.1354 6.165C21.9454 6.345 21.7054 6.52 21.4154 6.69C21.1254 6.85 20.8204 7 20.5004 7.14C20.1904 7.27 19.9054 7.375 19.6454 7.455C19.3854 7.535 19.1954 7.575 19.0754 7.575C19.0754 7.575 19.0754 7.55 19.0754 7.5C19.0754 7.44 19.0754 7.41 19.0754 7.41C19.1654 7.42 19.3204 7.39 19.5404 7.32C19.7704 7.25 20.0254 7.16 20.3054 7.05C20.5854 6.93 20.8554 6.795 21.1154 6.645C21.3854 6.495 21.6054 6.335 21.7754 6.165C21.9554 5.995 22.0454 5.83 22.0454 5.67C22.0454 5.59 22.0204 5.52 21.9704 5.46C21.9304 5.4 21.8554 5.37 21.7454 5.37C21.5854 5.37 21.3904 5.45 21.1604 5.61C20.9404 5.76 20.7154 5.96 20.4854 6.21C20.2554 6.46 20.0404 6.725 19.8404 7.005C19.6404 7.285 19.4754 7.555 19.3454 7.815C19.2254 8.065 19.1654 8.275 19.1654 8.445C19.1654 8.645 19.2254 8.795 19.3454 8.895C19.4654 8.995 19.6404 9.045 19.8704 9.045C20.2704 9.045 20.6454 8.95 20.9954 8.76C21.3554 8.56 21.6804 8.33 21.9704 8.07C22.2604 7.8 22.5054 7.55 22.7054 7.32C22.9054 7.08 23.0404 6.925 23.1104 6.855C23.1104 6.855 23.1254 6.87 23.1554 6.9C23.1954 6.93 23.2154 6.945 23.2154 6.945C23.1454 7.025 23.0104 7.185 22.8104 7.425C22.6104 7.665 22.3604 7.925 22.0604 8.205C21.7604 8.485 21.4204 8.725 21.0404 8.925C20.6604 9.125 20.2504 9.225 19.8104 9.225ZM27.8752 -3.75509e-06C27.9852 0.019996 28.1202 0.0299959 28.2802 0.0299959C28.4502 0.0299959 28.5852 0.019996 28.6852 -3.75509e-06L23.4652 7.275C23.3052 7.515 23.1502 7.74 23.0002 7.95C22.8502 8.16 22.7302 8.345 22.6402 8.505C22.5402 8.655 22.4902 8.775 22.4902 8.865C22.4902 8.935 22.5202 8.985 22.5802 9.015C22.6302 9.045 22.7052 9.06 22.8052 9.06C23.0352 9.06 23.2902 8.98 23.5702 8.82C23.8502 8.65 24.1252 8.44 24.3952 8.19C24.6752 7.94 24.9302 7.695 25.1602 7.455C25.4002 7.215 25.5902 7.02 25.7302 6.87L25.8352 6.96C25.7052 7.1 25.5252 7.295 25.2952 7.545C25.0652 7.795 24.8002 8.05 24.5002 8.31C24.2102 8.56 23.9052 8.775 23.5852 8.955C23.2752 9.135 22.9702 9.225 22.6702 9.225C22.5102 9.225 22.3752 9.18 22.2652 9.09C22.1452 9 22.0852 8.87 22.0852 8.7C22.0852 8.59 22.1252 8.45 22.2052 8.28C22.2852 8.11 22.3852 7.935 22.5052 7.755C22.6152 7.565 22.7252 7.395 22.8352 7.245C22.9352 7.085 23.0152 6.965 23.0752 6.885L27.8752 -3.75509e-06ZM28.3069 5.265C28.8069 5.265 29.0569 5.505 29.0569 5.985C29.0569 6.355 28.9719 6.735 28.8019 7.125C28.6319 7.505 28.4019 7.855 28.1119 8.175C27.8219 8.485 27.5069 8.74 27.1669 8.94C26.8269 9.13 26.4819 9.225 26.1319 9.225C25.8619 9.225 25.6369 9.16 25.4569 9.03C25.2669 8.89 25.1719 8.665 25.1719 8.355C25.1719 8.065 25.2569 7.745 25.4269 7.395C25.5969 7.035 25.8269 6.695 26.1169 6.375C26.4169 6.055 26.7519 5.79 27.1219 5.58C27.5019 5.37 27.8969 5.265 28.3069 5.265ZM28.4719 5.475C28.3019 5.475 28.1019 5.55 27.8719 5.7C27.6419 5.85 27.4069 6.045 27.1669 6.285C26.9269 6.525 26.7019 6.785 26.4919 7.065C26.2919 7.335 26.1269 7.6 25.9969 7.86C25.8769 8.12 25.8169 8.34 25.8169 8.52C25.8169 8.72 25.8719 8.86 25.9819 8.94C26.0919 9.01 26.2169 9.045 26.3569 9.045C26.5869 9.045 26.8469 8.95 27.1369 8.76C27.4269 8.56 27.7069 8.31 27.9769 8.01C28.2469 7.71 28.4669 7.395 28.6369 7.065C28.8169 6.725 28.9069 6.415 28.9069 6.135C28.9069 5.875 28.8619 5.7 28.7719 5.61C28.6819 5.52 28.5819 5.475 28.4719 5.475ZM28.7419 7.02C28.7919 7.02 28.8119 7.04 28.8019 7.08C28.8019 7.11 28.7769 7.125 28.7269 7.125C28.6869 7.125 28.6269 7.18 28.5469 7.29C28.4769 7.39 28.4119 7.495 28.3519 7.605C28.2919 7.715 28.2619 7.775 28.2619 7.785C28.2619 8.015 28.3469 8.13 28.5169 8.13C28.6769 8.13 28.8569 8.055 29.0569 7.905C29.2669 7.755 29.4669 7.585 29.6569 7.395C29.8569 7.195 30.0169 7.02 30.1369 6.87L30.2569 6.975C30.1269 7.125 29.9619 7.305 29.7619 7.515C29.5619 7.715 29.3519 7.895 29.1319 8.055C28.9119 8.205 28.7069 8.28 28.5169 8.28C28.3569 8.28 28.2469 8.245 28.1869 8.175C28.1269 8.105 28.0969 7.98 28.0969 7.8C28.0969 7.56 28.1769 7.37 28.3369 7.23C28.5069 7.09 28.6419 7.02 28.7419 7.02ZM32.5811 3.585C32.7011 3.605 32.8461 3.615 33.0161 3.615C33.1961 3.615 33.3461 3.6 33.4661 3.57C33.4061 3.65 33.3111 3.77 33.1811 3.93C33.0611 4.08 32.9161 4.26 32.7461 4.47C32.5761 4.67 32.3961 4.885 32.2061 5.115C32.0261 5.345 31.8361 5.585 31.6361 5.835C31.4461 6.075 31.2611 6.31 31.0811 6.54C30.9011 6.76 30.7361 6.97 30.5861 7.17C30.4461 7.37 30.3261 7.54 30.2261 7.68L30.2711 7.725C30.5211 7.505 30.7561 7.29 30.9761 7.08C31.2061 6.87 31.4261 6.675 31.6361 6.495C31.8461 6.315 32.0511 6.15 32.2511 6C32.4511 5.85 32.6461 5.72 32.8361 5.61C33.0261 5.5 33.2061 5.415 33.3761 5.355C33.5561 5.295 33.7311 5.265 33.9011 5.265C34.1611 5.265 34.3261 5.31 34.3961 5.4C34.4661 5.49 34.5011 5.605 34.5011 5.745C34.5011 6.025 34.4111 6.295 34.2311 6.555C34.0511 6.805 33.8311 7.045 33.5711 7.275C33.3111 7.505 33.0461 7.715 32.7761 7.905C32.5161 8.095 32.2961 8.27 32.1161 8.43C31.9361 8.58 31.8461 8.705 31.8461 8.805C31.8461 8.905 31.8811 8.975 31.9511 9.015C32.0211 9.055 32.1061 9.075 32.2061 9.075C32.5161 9.075 32.8411 8.96 33.1811 8.73C33.5211 8.5 33.8561 8.22 34.1861 7.89C34.5161 7.55 34.8161 7.215 35.0861 6.885L35.2211 6.975C34.9411 7.295 34.6311 7.63 34.2911 7.98C33.9611 8.33 33.6161 8.625 33.2561 8.865C32.9061 9.105 32.5611 9.225 32.2211 9.225C31.9411 9.225 31.7561 9.165 31.6661 9.045C31.5861 8.915 31.5461 8.795 31.5461 8.685C31.5461 8.405 31.6361 8.14 31.8161 7.89C31.9961 7.64 32.2161 7.405 32.4761 7.185C32.7361 6.965 32.9961 6.76 33.2561 6.57C33.5161 6.38 33.7361 6.205 33.9161 6.045C34.0961 5.885 34.1861 5.74 34.1861 5.61C34.1861 5.55 34.1661 5.505 34.1261 5.475C34.0861 5.435 34.0111 5.415 33.9011 5.415C33.6611 5.415 33.3861 5.5 33.0761 5.67C32.7661 5.83 32.4411 6.04 32.1011 6.3C31.7711 6.56 31.4411 6.84 31.1111 7.14C30.7911 7.44 30.4911 7.735 30.2111 8.025C29.9411 8.315 29.7161 8.565 29.5361 8.775C29.3461 8.985 29.2161 9.125 29.1461 9.195C29.0961 9.255 28.9961 9.39 28.8461 9.6C28.6961 9.81 28.5261 10.06 28.3361 10.35C28.1361 10.65 27.9311 10.96 27.7211 11.28C27.5111 11.6 27.3161 11.9 27.1361 12.18C26.9461 12.47 26.7961 12.71 26.6861 12.9C26.5661 13.09 26.4961 13.205 26.4761 13.245C26.4361 13.275 26.3461 13.295 26.2061 13.305C26.0661 13.315 25.9311 13.315 25.8011 13.305C25.6611 13.295 25.5661 13.275 25.5161 13.245C25.5261 13.225 25.6311 13.08 25.8311 12.81C26.0311 12.55 26.2911 12.195 26.6111 11.745C26.9311 11.305 27.2961 10.805 27.7061 10.245C28.1061 9.695 28.5211 9.125 28.9511 8.535C29.3811 7.945 29.8011 7.37 30.2111 6.81C30.6211 6.24 30.9961 5.725 31.3361 5.265C31.6861 4.795 31.9711 4.415 32.1911 4.125C32.4111 3.825 32.5411 3.645 32.5811 3.585ZM40.5919 9.225C40.3719 9.225 40.1969 9.18 40.0669 9.09C39.9369 9 39.8719 8.885 39.8719 8.745C39.8719 8.565 39.9419 8.365 40.0819 8.145C40.2219 7.915 40.3919 7.675 40.5919 7.425C40.8019 7.175 41.0069 6.935 41.2069 6.705C41.4169 6.465 41.5919 6.25 41.7319 6.06C41.8719 5.87 41.9419 5.715 41.9419 5.595C41.9419 5.515 41.9219 5.46 41.8819 5.43C41.8419 5.4 41.7719 5.385 41.6719 5.385C41.5219 5.385 41.3219 5.465 41.0719 5.625C40.8319 5.775 40.5619 5.985 40.2619 6.255C39.9719 6.515 39.6719 6.81 39.3619 7.14C39.0619 7.46 38.7719 7.79 38.4919 8.13C38.2119 8.47 37.9719 8.79 37.7719 9.09C37.6519 9.05 37.5169 9.035 37.3669 9.045C37.2169 9.055 37.0569 9.075 36.8869 9.105C37.1169 8.815 37.3769 8.495 37.6669 8.145C37.9669 7.785 38.2519 7.435 38.5219 7.095C38.7919 6.755 39.0169 6.45 39.1969 6.18C39.3769 5.9 39.4669 5.695 39.4669 5.565C39.4669 5.495 39.4369 5.45 39.3769 5.43C39.3269 5.4 39.2519 5.385 39.1519 5.385C38.9419 5.385 38.6719 5.51 38.3419 5.76C38.0119 6.01 37.6619 6.33 37.2919 6.72C36.9219 7.1 36.5569 7.505 36.1969 7.935C35.8469 8.355 35.5369 8.74 35.2669 9.09C35.1669 9.06 35.0469 9.045 34.9069 9.045C34.7669 9.035 34.5969 9.055 34.3969 9.105C34.7669 8.555 35.1319 8.035 35.4919 7.545C35.8619 7.045 36.1669 6.615 36.4069 6.255C36.6569 5.895 36.7819 5.655 36.7819 5.535C36.7819 5.505 36.7719 5.485 36.7519 5.475C36.7419 5.455 36.7219 5.445 36.6919 5.445C36.5919 5.445 36.4519 5.54 36.2719 5.73C36.1019 5.92 35.9219 6.135 35.7319 6.375C35.5419 6.615 35.3719 6.82 35.2219 6.99L35.0869 6.9C35.1869 6.79 35.3069 6.645 35.4469 6.465C35.5869 6.275 35.7369 6.09 35.8969 5.91C36.0669 5.72 36.2369 5.56 36.4069 5.43C36.5769 5.3 36.7419 5.235 36.9019 5.235C37.0219 5.235 37.1219 5.27 37.2019 5.34C37.2919 5.4 37.3369 5.48 37.3369 5.58C37.3369 5.71 37.2969 5.855 37.2169 6.015C37.1369 6.165 37.0269 6.34 36.8869 6.54C36.7469 6.73 36.5869 6.94 36.4069 7.17C36.2369 7.4 36.0569 7.655 35.8669 7.935L35.8969 7.995C36.0969 7.785 36.3019 7.555 36.5119 7.305C36.7319 7.055 36.9569 6.81 37.1869 6.57C37.4169 6.33 37.6469 6.11 37.8769 5.91C38.1069 5.71 38.3419 5.55 38.5819 5.43C38.8219 5.31 39.0569 5.25 39.2869 5.25C39.5269 5.25 39.6919 5.31 39.7819 5.43C39.8719 5.55 39.9169 5.665 39.9169 5.775C39.9169 5.935 39.8869 6.095 39.8269 6.255C39.7669 6.415 39.6919 6.57 39.6019 6.72C39.5119 6.86 39.4219 6.99 39.3319 7.11C39.2419 7.22 39.1619 7.31 39.0919 7.38C39.0219 7.45 38.9819 7.495 38.9719 7.515L38.8819 7.44C38.9519 7.37 39.0619 7.25 39.2119 7.08C39.3619 6.91 39.5369 6.725 39.7369 6.525C39.9469 6.315 40.1669 6.115 40.3969 5.925C40.6269 5.725 40.8569 5.565 41.0869 5.445C41.3169 5.315 41.5369 5.25 41.7469 5.25C41.9969 5.25 42.1669 5.315 42.2569 5.445C42.3569 5.565 42.4069 5.675 42.4069 5.775C42.4069 5.995 42.3369 6.24 42.1969 6.51C42.0569 6.77 41.8819 7.035 41.6719 7.305C41.4619 7.565 41.2519 7.81 41.0419 8.04C40.8319 8.27 40.6569 8.465 40.5169 8.625C40.3769 8.775 40.3069 8.87 40.3069 8.91C40.3069 9 40.4119 9.045 40.6219 9.045C40.8919 9.045 41.1619 8.96 41.4319 8.79C41.7119 8.62 41.9769 8.415 42.2269 8.175C42.4769 7.925 42.7019 7.68 42.9019 7.44C43.1119 7.19 43.2819 6.995 43.4119 6.855L43.5319 6.945C43.4119 7.075 43.2419 7.265 43.0219 7.515C42.8119 7.765 42.5719 8.025 42.3019 8.295C42.0319 8.555 41.7519 8.775 41.4619 8.955C41.1719 9.135 40.8819 9.225 40.5919 9.225ZM44.0682 9.225C43.5982 9.225 43.2882 9.12 43.1382 8.91C42.9882 8.69 42.9132 8.46 42.9132 8.22C42.9132 7.81 43.0182 7.43 43.2282 7.08C43.4382 6.72 43.7082 6.4 44.0382 6.12C44.3682 5.84 44.7082 5.625 45.0582 5.475C45.4182 5.315 45.7382 5.235 46.0182 5.235C46.2182 5.235 46.3782 5.265 46.4982 5.325C46.6182 5.375 46.6782 5.485 46.6782 5.655C46.6782 5.815 46.5832 5.985 46.3932 6.165C46.2032 6.345 45.9632 6.52 45.6732 6.69C45.3832 6.85 45.0782 7 44.7582 7.14C44.4482 7.27 44.1632 7.375 43.9032 7.455C43.6432 7.535 43.4532 7.575 43.3332 7.575C43.3332 7.575 43.3332 7.55 43.3332 7.5C43.3332 7.44 43.3332 7.41 43.3332 7.41C43.4232 7.42 43.5782 7.39 43.7982 7.32C44.0282 7.25 44.2832 7.16 44.5632 7.05C44.8432 6.93 45.1132 6.795 45.3732 6.645C45.6432 6.495 45.8632 6.335 46.0332 6.165C46.2132 5.995 46.3032 5.83 46.3032 5.67C46.3032 5.59 46.2782 5.52 46.2282 5.46C46.1882 5.4 46.1132 5.37 46.0032 5.37C45.8432 5.37 45.6482 5.45 45.4182 5.61C45.1982 5.76 44.9732 5.96 44.7432 6.21C44.5132 6.46 44.2982 6.725 44.0982 7.005C43.8982 7.285 43.7332 7.555 43.6032 7.815C43.4832 8.065 43.4232 8.275 43.4232 8.445C43.4232 8.645 43.4832 8.795 43.6032 8.895C43.7232 8.995 43.8982 9.045 44.1282 9.045C44.5282 9.045 44.9032 8.95 45.2532 8.76C45.6132 8.56 45.9382 8.33 46.2282 8.07C46.5182 7.8 46.7632 7.55 46.9632 7.32C47.1632 7.08 47.2982 6.925 47.3682 6.855C47.3682 6.855 47.3832 6.87 47.4132 6.9C47.4532 6.93 47.4732 6.945 47.4732 6.945C47.4032 7.025 47.2682 7.185 47.0682 7.425C46.8682 7.665 46.6182 7.925 46.3182 8.205C46.0182 8.485 45.6782 8.725 45.2982 8.925C44.9182 9.125 44.5082 9.225 44.0682 9.225ZM50.498 9.225C49.968 9.225 49.703 9.07 49.703 8.76C49.703 8.56 49.768 8.345 49.898 8.115C50.038 7.885 50.208 7.655 50.408 7.425C50.608 7.185 50.808 6.95 51.008 6.72C51.218 6.49 51.388 6.28 51.518 6.09C51.658 5.89 51.728 5.72 51.728 5.58C51.728 5.53 51.703 5.49 51.653 5.46C51.613 5.42 51.553 5.4 51.473 5.4C51.353 5.4 51.183 5.46 50.963 5.58C50.753 5.7 50.483 5.905 50.153 6.195C49.833 6.475 49.453 6.855 49.013 7.335C48.573 7.805 48.068 8.395 47.498 9.105C47.408 9.085 47.273 9.075 47.093 9.075C46.913 9.075 46.758 9.095 46.628 9.135C46.918 8.715 47.203 8.305 47.483 7.905C47.763 7.505 48.018 7.14 48.248 6.81C48.488 6.48 48.678 6.21 48.818 6C48.958 5.78 49.028 5.645 49.028 5.595C49.028 5.505 48.983 5.46 48.893 5.46C48.793 5.46 48.668 5.54 48.518 5.7C48.368 5.85 48.203 6.045 48.023 6.285C47.843 6.515 47.658 6.75 47.468 6.99L47.333 6.9C47.533 6.67 47.728 6.43 47.918 6.18C48.108 5.93 48.303 5.715 48.503 5.535C48.703 5.355 48.913 5.265 49.133 5.265C49.243 5.265 49.343 5.295 49.433 5.355C49.533 5.405 49.583 5.49 49.583 5.61C49.583 5.72 49.538 5.855 49.448 6.015C49.368 6.165 49.258 6.34 49.118 6.54C48.978 6.73 48.818 6.945 48.638 7.185C48.468 7.415 48.288 7.665 48.098 7.935L48.113 8.025C48.643 7.445 49.088 6.975 49.448 6.615C49.818 6.255 50.123 5.98 50.363 5.79C50.613 5.59 50.828 5.455 51.008 5.385C51.198 5.305 51.378 5.265 51.548 5.265C51.778 5.265 51.943 5.315 52.043 5.415C52.143 5.505 52.193 5.63 52.193 5.79C52.193 6.03 52.123 6.285 51.983 6.555C51.843 6.815 51.668 7.075 51.458 7.335C51.258 7.585 51.053 7.82 50.843 8.04C50.643 8.25 50.473 8.43 50.333 8.58C50.193 8.73 50.123 8.83 50.123 8.88C50.123 8.94 50.138 8.985 50.168 9.015C50.208 9.045 50.303 9.06 50.453 9.06C50.823 9.06 51.173 8.945 51.503 8.715C51.843 8.485 52.168 8.205 52.478 7.875C52.788 7.535 53.078 7.2 53.348 6.87L53.468 6.975C53.198 7.295 52.903 7.63 52.583 7.98C52.263 8.33 51.928 8.625 51.578 8.865C51.228 9.105 50.868 9.225 50.498 9.225ZM56.3392 2.61C56.4292 2.65 56.5592 2.67 56.7292 2.67C56.9092 2.66 57.0492 2.645 57.1492 2.625C56.8292 3.065 56.4742 3.55 56.0842 4.08C55.6942 4.61 55.2992 5.14 54.8992 5.67C54.5092 6.19 54.1442 6.68 53.8042 7.14C53.4742 7.59 53.2092 7.97 53.0092 8.28C52.8092 8.59 52.7092 8.785 52.7092 8.865C52.7092 8.925 52.7442 8.97 52.8142 9C52.8742 9.03 52.9542 9.045 53.0542 9.045C53.2742 9.045 53.5142 8.97 53.7742 8.82C54.0442 8.66 54.3092 8.465 54.5692 8.235C54.8392 7.995 55.0842 7.755 55.3042 7.515C55.5342 7.265 55.7142 7.05 55.8442 6.87L55.9642 6.96C55.8242 7.14 55.6392 7.355 55.4092 7.605C55.1792 7.855 54.9242 8.105 54.6442 8.355C54.3642 8.605 54.0742 8.815 53.7742 8.985C53.4842 9.145 53.2042 9.225 52.9342 9.225C52.7442 9.225 52.5942 9.185 52.4842 9.105C52.3642 9.035 52.3042 8.91 52.3042 8.73C52.3042 8.57 52.3992 8.325 52.5892 7.995C52.7792 7.655 53.0242 7.265 53.3242 6.825C53.6342 6.385 53.9692 5.92 54.3292 5.43C54.6892 4.93 55.0442 4.44 55.3942 3.96C55.7542 3.47 56.0692 3.02 56.3392 2.61ZM54.6892 4.29C54.5892 4.29 54.5392 4.26 54.5392 4.2C54.5392 4.15 54.5892 4.125 54.6892 4.125H57.5392C57.5692 4.125 57.5992 4.13 57.6292 4.14C57.6692 4.15 57.6892 4.17 57.6892 4.2C57.6892 4.24 57.6692 4.265 57.6292 4.275C57.5992 4.285 57.5692 4.29 57.5392 4.29H54.6892Z" fill="#BB8ED0"/>
</svg>
