<svg width="50" height="10" viewBox="0 0 50 10" fill="none" xmlns="http://www.w3.org/2000/svg">
<path d="M1.395 9.225C1.045 9.225 0.77 9.175 0.57 9.075C0.36 8.975 0.215 8.86 0.135 8.73C0.045 8.59 -1.11759e-08 8.48 -1.11759e-08 8.4C-1.11759e-08 8.24 0.05 8.12 0.15 8.04C0.25 7.96 0.375 7.92 0.525 7.92C0.725 7.92 0.825 8.015 0.825 8.205C0.825 8.275 0.795 8.34 0.735 8.4C0.665 8.45 0.59 8.475 0.51 8.475C0.42 8.475 0.35 8.465 0.3 8.445C0.25 8.415 0.225 8.4 0.225 8.4C0.225 8.56 0.285 8.695 0.405 8.805C0.525 8.905 0.67 8.98 0.84 9.03C1.02 9.07 1.19 9.09 1.35 9.09C1.9 9.09 2.405 8.935 2.865 8.625C3.335 8.305 3.77 7.885 4.17 7.365C4.58 6.835 4.965 6.265 5.325 5.655C5.685 5.045 6.11 4.48 6.6 3.96C7.09 3.44 7.59 3.02 8.1 2.7C8.61 2.38 9.07 2.215 9.48 2.205C9.6 2.195 9.66 2.21 9.66 2.25C9.66 2.29 9.6 2.32 9.48 2.34C9.15 2.39 8.785 2.575 8.385 2.895C7.995 3.205 7.59 3.62 7.17 4.14C6.76 4.65 6.355 5.235 5.955 5.895C5.635 6.425 5.255 6.95 4.815 7.47C4.375 7.98 3.87 8.4 3.3 8.73C2.74 9.06 2.105 9.225 1.395 9.225ZM2.07 7.215C2.24 6.885 2.495 6.605 2.835 6.375C3.175 6.145 3.555 5.95 3.975 5.79C4.405 5.63 4.84 5.495 5.28 5.385C5.72 5.275 6.13 5.18 6.51 5.1C6.89 5.01 7.195 4.92 7.425 4.83C7.615 4.76 7.73 4.7 7.77 4.65C7.79 4.62 7.805 4.595 7.815 4.575C7.825 4.545 7.83 4.53 7.83 4.53C7.91 4.53 8.045 4.54 8.235 4.56C8.435 4.57 8.595 4.585 8.715 4.605C8.515 4.675 8.3 4.82 8.07 5.04C7.85 5.26 7.66 5.49 7.5 5.73C7.34 5.96 7.24 6.14 7.2 6.27C7.19 6.33 7.16 6.36 7.11 6.36C7.06 6.36 7.04 6.31 7.05 6.21C7.06 6.13 7.095 6.015 7.155 5.865C7.225 5.705 7.3 5.55 7.38 5.4C7.46 5.24 7.53 5.125 7.59 5.055C7.45 5.115 7.205 5.18 6.855 5.25C6.515 5.32 6.12 5.405 5.67 5.505C5.22 5.595 4.765 5.715 4.305 5.865C3.845 6.015 3.425 6.2 3.045 6.42C2.675 6.63 2.395 6.89 2.205 7.2C2.175 7.25 2.135 7.285 2.085 7.305C2.035 7.325 2.03 7.295 2.07 7.215ZM3.975 4.545C3.835 4.545 3.685 4.525 3.525 4.485C3.365 4.445 3.23 4.37 3.12 4.26C3.01 4.14 2.955 3.97 2.955 3.75C2.955 3.52 3.045 3.255 3.225 2.955C3.405 2.645 3.695 2.35 4.095 2.07C4.495 1.78 5.03 1.54 5.7 1.35C6.37 1.16 7.195 1.065 8.175 1.065C8.475 1.065 8.84 1.1 9.27 1.17C9.71 1.23 10.18 1.26 10.68 1.26C11.07 1.26 11.395 1.21 11.655 1.11C11.925 1.01 12.135 0.894996 12.285 0.764996C12.435 0.634996 12.545 0.519996 12.615 0.419996C12.685 0.309996 12.72 0.254996 12.72 0.254996C12.77 0.164996 12.82 0.129996 12.87 0.149996C12.92 0.169996 12.92 0.214996 12.87 0.284996C12.84 0.324996 12.77 0.424996 12.66 0.584996C12.55 0.744996 12.385 0.919996 12.165 1.11C11.945 1.29 11.65 1.45 11.28 1.59C10.91 1.73 10.455 1.8 9.915 1.8C9.735 1.8 9.5 1.785 9.21 1.755C8.92 1.725 8.605 1.695 8.265 1.665C7.935 1.625 7.615 1.59 7.305 1.56C6.995 1.53 6.735 1.515 6.525 1.515C6.185 1.515 5.815 1.575 5.415 1.695C5.025 1.815 4.655 1.98 4.305 2.19C3.955 2.39 3.67 2.62 3.45 2.88C3.23 3.14 3.12 3.41 3.12 3.69C3.12 3.77 3.135 3.86 3.165 3.96C3.195 4.06 3.255 4.145 3.345 4.215C3.445 4.285 3.59 4.32 3.78 4.32C4.07 4.32 4.36 4.24 4.65 4.08C4.95 3.92 5.22 3.725 5.46 3.495C5.71 3.255 5.91 3.02 6.06 2.79C6.21 2.56 6.285 2.38 6.285 2.25C6.285 2.15 6.295 2.11 6.315 2.13C6.345 2.14 6.365 2.17 6.375 2.22C6.405 2.46 6.35 2.715 6.21 2.985C6.08 3.255 5.895 3.51 5.655 3.75C5.425 3.98 5.16 4.17 4.86 4.32C4.57 4.47 4.275 4.545 3.975 4.545ZM8.85059 7.125C8.81059 7.165 8.78059 7.17 8.76059 7.14C8.74059 7.1 8.73559 7.06 8.74559 7.02C8.91559 6.85 9.08059 6.65 9.24059 6.42C9.41059 6.19 9.55059 5.975 9.66059 5.775C9.78059 5.575 9.85059 5.44 9.87059 5.37C9.89059 5.37 9.92059 5.355 9.96059 5.325C10.0106 5.295 10.0556 5.285 10.0956 5.295C10.0856 5.365 10.0706 5.43 10.0506 5.49C10.0406 5.55 10.0756 5.605 10.1556 5.655C10.2356 5.705 10.4006 5.755 10.6506 5.805C10.9006 5.855 11.2806 5.91 11.7906 5.97C11.8406 5.98 11.8756 6 11.8956 6.03C11.9256 6.05 11.9106 6.085 11.8506 6.135C11.6606 6.285 11.4506 6.475 11.2206 6.705C10.9906 6.935 10.7656 7.18 10.5456 7.44C10.3356 7.69 10.1606 7.935 10.0206 8.175C9.89059 8.415 9.82559 8.615 9.82559 8.775C9.82559 8.955 9.90559 9.045 10.0656 9.045C10.2656 9.045 10.4906 8.965 10.7406 8.805C11.0006 8.645 11.2606 8.45 11.5206 8.22C11.7806 7.98 12.0206 7.74 12.2406 7.5C12.4706 7.25 12.6606 7.045 12.8106 6.885L12.9306 6.975C12.7906 7.115 12.6106 7.31 12.3906 7.56C12.1706 7.81 11.9206 8.065 11.6406 8.325C11.3706 8.575 11.0806 8.79 10.7706 8.97C10.4606 9.14 10.1406 9.225 9.81059 9.225C9.62059 9.225 9.45059 9.18 9.30059 9.09C9.15059 9.01 9.07559 8.86 9.07559 8.64C9.07559 8.43 9.16559 8.21 9.34559 7.98C9.52559 7.75 9.75059 7.52 10.0206 7.29C10.2906 7.05 10.5706 6.825 10.8606 6.615C11.1606 6.395 11.4256 6.195 11.6556 6.015L11.7606 6.15C11.6606 6.11 11.4856 6.075 11.2356 6.045C10.9856 6.005 10.7256 5.955 10.4556 5.895C10.1856 5.825 9.95059 5.735 9.75059 5.625C9.56059 5.515 9.46559 5.365 9.46559 5.175C9.46559 5.075 9.50559 4.955 9.58559 4.815C9.67559 4.665 9.79559 4.59 9.94559 4.59C10.0856 4.59 10.1806 4.62 10.2306 4.68C10.2806 4.73 10.3056 4.8 10.3056 4.89C10.3056 4.95 10.2556 5.075 10.1556 5.265C10.0556 5.445 9.93059 5.66 9.78059 5.91C9.63059 6.15 9.47059 6.38 9.30059 6.6C9.14059 6.82 8.99059 6.995 8.85059 7.125ZM15.386 5.265C15.886 5.265 16.136 5.505 16.136 5.985C16.136 6.355 16.051 6.735 15.881 7.125C15.711 7.505 15.481 7.855 15.191 8.175C14.901 8.485 14.586 8.74 14.246 8.94C13.906 9.13 13.561 9.225 13.211 9.225C12.941 9.225 12.716 9.16 12.536 9.03C12.346 8.89 12.251 8.665 12.251 8.355C12.251 8.065 12.336 7.745 12.506 7.395C12.676 7.035 12.906 6.695 13.196 6.375C13.496 6.055 13.831 5.79 14.201 5.58C14.581 5.37 14.976 5.265 15.386 5.265ZM15.551 5.475C15.381 5.475 15.181 5.55 14.951 5.7C14.721 5.85 14.486 6.045 14.246 6.285C14.006 6.525 13.781 6.785 13.571 7.065C13.371 7.335 13.206 7.6 13.076 7.86C12.956 8.12 12.896 8.34 12.896 8.52C12.896 8.72 12.951 8.86 13.061 8.94C13.171 9.01 13.296 9.045 13.436 9.045C13.666 9.045 13.926 8.95 14.216 8.76C14.506 8.56 14.786 8.31 15.056 8.01C15.326 7.71 15.546 7.395 15.716 7.065C15.896 6.725 15.986 6.415 15.986 6.135C15.986 5.875 15.941 5.7 15.851 5.61C15.761 5.52 15.661 5.475 15.551 5.475ZM15.821 7.02C15.871 7.02 15.891 7.04 15.881 7.08C15.881 7.11 15.856 7.125 15.806 7.125C15.766 7.125 15.706 7.18 15.626 7.29C15.556 7.39 15.491 7.495 15.431 7.605C15.371 7.715 15.341 7.775 15.341 7.785C15.341 8.015 15.426 8.13 15.596 8.13C15.756 8.13 15.936 8.055 16.136 7.905C16.346 7.755 16.546 7.585 16.736 7.395C16.936 7.195 17.096 7.02 17.216 6.87L17.336 6.975C17.206 7.125 17.041 7.305 16.841 7.515C16.641 7.715 16.431 7.895 16.211 8.055C15.991 8.205 15.786 8.28 15.596 8.28C15.436 8.28 15.326 8.245 15.266 8.175C15.206 8.105 15.176 7.98 15.176 7.8C15.176 7.56 15.256 7.37 15.416 7.23C15.586 7.09 15.721 7.02 15.821 7.02ZM20.3652 9.225C19.8352 9.225 19.5702 9.07 19.5702 8.76C19.5702 8.56 19.6352 8.345 19.7652 8.115C19.9052 7.885 20.0752 7.655 20.2752 7.425C20.4752 7.185 20.6752 6.95 20.8752 6.72C21.0852 6.49 21.2552 6.28 21.3852 6.09C21.5252 5.89 21.5952 5.72 21.5952 5.58C21.5952 5.53 21.5702 5.49 21.5202 5.46C21.4802 5.42 21.4202 5.4 21.3402 5.4C21.2202 5.4 21.0502 5.46 20.8302 5.58C20.6202 5.7 20.3502 5.905 20.0202 6.195C19.7002 6.475 19.3202 6.855 18.8802 7.335C18.4402 7.805 17.9352 8.395 17.3652 9.105C17.2752 9.085 17.1402 9.075 16.9602 9.075C16.7802 9.075 16.6252 9.095 16.4952 9.135C16.7852 8.715 17.0702 8.305 17.3502 7.905C17.6302 7.505 17.8852 7.14 18.1152 6.81C18.3552 6.48 18.5452 6.21 18.6852 6C18.8252 5.78 18.8952 5.645 18.8952 5.595C18.8952 5.505 18.8502 5.46 18.7602 5.46C18.6602 5.46 18.5352 5.54 18.3852 5.7C18.2352 5.85 18.0702 6.045 17.8902 6.285C17.7102 6.515 17.5252 6.75 17.3352 6.99L17.2002 6.9C17.4002 6.67 17.5952 6.43 17.7852 6.18C17.9752 5.93 18.1702 5.715 18.3702 5.535C18.5702 5.355 18.7802 5.265 19.0002 5.265C19.1102 5.265 19.2102 5.295 19.3002 5.355C19.4002 5.405 19.4502 5.49 19.4502 5.61C19.4502 5.72 19.4052 5.855 19.3152 6.015C19.2352 6.165 19.1252 6.34 18.9852 6.54C18.8452 6.73 18.6852 6.945 18.5052 7.185C18.3352 7.415 18.1552 7.665 17.9652 7.935L17.9802 8.025C18.5102 7.445 18.9552 6.975 19.3152 6.615C19.6852 6.255 19.9902 5.98 20.2302 5.79C20.4802 5.59 20.6952 5.455 20.8752 5.385C21.0652 5.305 21.2452 5.265 21.4152 5.265C21.6452 5.265 21.8102 5.315 21.9102 5.415C22.0102 5.505 22.0602 5.63 22.0602 5.79C22.0602 6.03 21.9902 6.285 21.8502 6.555C21.7102 6.815 21.5352 7.075 21.3252 7.335C21.1252 7.585 20.9202 7.82 20.7102 8.04C20.5102 8.25 20.3402 8.43 20.2002 8.58C20.0602 8.73 19.9902 8.83 19.9902 8.88C19.9902 8.94 20.0052 8.985 20.0352 9.015C20.0752 9.045 20.1702 9.06 20.3202 9.06C20.6902 9.06 21.0402 8.945 21.3702 8.715C21.7102 8.485 22.0352 8.205 22.3452 7.875C22.6552 7.535 22.9452 7.2 23.2152 6.87L23.3352 6.975C23.0652 7.295 22.7702 7.63 22.4502 7.98C22.1302 8.33 21.7952 8.625 21.4452 8.865C21.0952 9.105 20.7352 9.225 20.3652 9.225ZM26.2064 2.61C26.2964 2.65 26.4264 2.67 26.5964 2.67C26.7764 2.66 26.9164 2.645 27.0164 2.625C26.6964 3.065 26.3414 3.55 25.9514 4.08C25.5614 4.61 25.1664 5.14 24.7664 5.67C24.3764 6.19 24.0114 6.68 23.6714 7.14C23.3414 7.59 23.0764 7.97 22.8764 8.28C22.6764 8.59 22.5764 8.785 22.5764 8.865C22.5764 8.925 22.6114 8.97 22.6814 9C22.7414 9.03 22.8214 9.045 22.9214 9.045C23.1414 9.045 23.3814 8.97 23.6414 8.82C23.9114 8.66 24.1764 8.465 24.4364 8.235C24.7064 7.995 24.9514 7.755 25.1714 7.515C25.4014 7.265 25.5814 7.05 25.7114 6.87L25.8314 6.96C25.6914 7.14 25.5064 7.355 25.2764 7.605C25.0464 7.855 24.7914 8.105 24.5114 8.355C24.2314 8.605 23.9414 8.815 23.6414 8.985C23.3514 9.145 23.0714 9.225 22.8014 9.225C22.6114 9.225 22.4614 9.185 22.3514 9.105C22.2314 9.035 22.1714 8.91 22.1714 8.73C22.1714 8.57 22.2664 8.325 22.4564 7.995C22.6464 7.655 22.8914 7.265 23.1914 6.825C23.5014 6.385 23.8364 5.92 24.1964 5.43C24.5564 4.93 24.9114 4.44 25.2614 3.96C25.6214 3.47 25.9364 3.02 26.2064 2.61ZM24.5564 4.29C24.4564 4.29 24.4064 4.26 24.4064 4.2C24.4064 4.15 24.4564 4.125 24.5564 4.125H27.4064C27.4364 4.125 27.4664 4.13 27.4964 4.14C27.5364 4.15 27.5564 4.17 27.5564 4.2C27.5564 4.24 27.5364 4.265 27.4964 4.275C27.4664 4.285 27.4364 4.29 27.4064 4.29H24.5564ZM27.3916 6.555C27.4416 6.515 27.4766 6.46 27.4966 6.39C27.5166 6.32 27.5416 6.27 27.5716 6.24H29.7616C29.6616 6.35 29.6066 6.455 29.5966 6.555H27.3916ZM32.2021 9.225C31.7321 9.225 31.4221 9.12 31.2721 8.91C31.1221 8.69 31.0471 8.46 31.0471 8.22C31.0471 7.81 31.1521 7.43 31.3621 7.08C31.5721 6.72 31.8421 6.4 32.1721 6.12C32.5021 5.84 32.8421 5.625 33.1921 5.475C33.5521 5.315 33.8721 5.235 34.1521 5.235C34.3521 5.235 34.5121 5.265 34.6321 5.325C34.7521 5.375 34.8121 5.485 34.8121 5.655C34.8121 5.815 34.7171 5.985 34.5271 6.165C34.3371 6.345 34.0971 6.52 33.8071 6.69C33.5171 6.85 33.2121 7 32.8921 7.14C32.5821 7.27 32.2971 7.375 32.0371 7.455C31.7771 7.535 31.5871 7.575 31.4671 7.575C31.4671 7.575 31.4671 7.55 31.4671 7.5C31.4671 7.44 31.4671 7.41 31.4671 7.41C31.5571 7.42 31.7121 7.39 31.9321 7.32C32.1621 7.25 32.4171 7.16 32.6971 7.05C32.9771 6.93 33.2471 6.795 33.5071 6.645C33.7771 6.495 33.9971 6.335 34.1671 6.165C34.3471 5.995 34.4371 5.83 34.4371 5.67C34.4371 5.59 34.4121 5.52 34.3621 5.46C34.3221 5.4 34.2471 5.37 34.1371 5.37C33.9771 5.37 33.7821 5.45 33.5521 5.61C33.3321 5.76 33.1071 5.96 32.8771 6.21C32.6471 6.46 32.4321 6.725 32.2321 7.005C32.0321 7.285 31.8671 7.555 31.7371 7.815C31.6171 8.065 31.5571 8.275 31.5571 8.445C31.5571 8.645 31.6171 8.795 31.7371 8.895C31.8571 8.995 32.0321 9.045 32.2621 9.045C32.6621 9.045 33.0371 8.95 33.3871 8.76C33.7471 8.56 34.0721 8.33 34.3621 8.07C34.6521 7.8 34.8971 7.55 35.0971 7.32C35.2971 7.08 35.4321 6.925 35.5021 6.855C35.5021 6.855 35.5171 6.87 35.5471 6.9C35.5871 6.93 35.6071 6.945 35.6071 6.945C35.5371 7.025 35.4021 7.185 35.2021 7.425C35.0021 7.665 34.7521 7.925 34.4521 8.205C34.1521 8.485 33.8121 8.725 33.4321 8.925C33.0521 9.125 32.6421 9.225 32.2021 9.225ZM38.6318 9.225C38.1018 9.225 37.8368 9.07 37.8368 8.76C37.8368 8.56 37.9018 8.345 38.0318 8.115C38.1718 7.885 38.3418 7.655 38.5418 7.425C38.7418 7.185 38.9418 6.95 39.1418 6.72C39.3518 6.49 39.5218 6.28 39.6518 6.09C39.7918 5.89 39.8618 5.72 39.8618 5.58C39.8618 5.53 39.8368 5.49 39.7868 5.46C39.7468 5.42 39.6868 5.4 39.6068 5.4C39.4868 5.4 39.3168 5.46 39.0968 5.58C38.8868 5.7 38.6168 5.905 38.2868 6.195C37.9668 6.475 37.5868 6.855 37.1468 7.335C36.7068 7.805 36.2018 8.395 35.6318 9.105C35.5418 9.085 35.4068 9.075 35.2268 9.075C35.0468 9.075 34.8918 9.095 34.7618 9.135C35.0518 8.715 35.3368 8.305 35.6168 7.905C35.8968 7.505 36.1518 7.14 36.3818 6.81C36.6218 6.48 36.8118 6.21 36.9518 6C37.0918 5.78 37.1618 5.645 37.1618 5.595C37.1618 5.505 37.1168 5.46 37.0268 5.46C36.9268 5.46 36.8018 5.54 36.6518 5.7C36.5018 5.85 36.3368 6.045 36.1568 6.285C35.9768 6.515 35.7918 6.75 35.6018 6.99L35.4668 6.9C35.6668 6.67 35.8618 6.43 36.0518 6.18C36.2418 5.93 36.4368 5.715 36.6368 5.535C36.8368 5.355 37.0468 5.265 37.2668 5.265C37.3768 5.265 37.4768 5.295 37.5668 5.355C37.6668 5.405 37.7168 5.49 37.7168 5.61C37.7168 5.72 37.6718 5.855 37.5818 6.015C37.5018 6.165 37.3918 6.34 37.2518 6.54C37.1118 6.73 36.9518 6.945 36.7718 7.185C36.6018 7.415 36.4218 7.665 36.2318 7.935L36.2468 8.025C36.7768 7.445 37.2218 6.975 37.5818 6.615C37.9518 6.255 38.2568 5.98 38.4968 5.79C38.7468 5.59 38.9618 5.455 39.1418 5.385C39.3318 5.305 39.5118 5.265 39.6818 5.265C39.9118 5.265 40.0768 5.315 40.1768 5.415C40.2768 5.505 40.3268 5.63 40.3268 5.79C40.3268 6.03 40.2568 6.285 40.1168 6.555C39.9768 6.815 39.8018 7.075 39.5918 7.335C39.3918 7.585 39.1868 7.82 38.9768 8.04C38.7768 8.25 38.6068 8.43 38.4668 8.58C38.3268 8.73 38.2568 8.83 38.2568 8.88C38.2568 8.94 38.2718 8.985 38.3018 9.015C38.3418 9.045 38.4368 9.06 38.5868 9.06C38.9568 9.06 39.3068 8.945 39.6368 8.715C39.9768 8.485 40.3018 8.205 40.6118 7.875C40.9218 7.535 41.2118 7.2 41.4818 6.87L41.6018 6.975C41.3318 7.295 41.0368 7.63 40.7168 7.98C40.3968 8.33 40.0618 8.625 39.7118 8.865C39.3618 9.105 39.0018 9.225 38.6318 9.225ZM41.593 9.225C41.313 9.225 41.118 9.16 41.008 9.03C40.898 8.89 40.843 8.675 40.843 8.385C40.843 8.085 40.943 7.755 41.143 7.395C41.343 7.035 41.608 6.695 41.938 6.375C42.278 6.045 42.658 5.775 43.078 5.565C43.498 5.355 43.928 5.25 44.368 5.25C44.608 5.25 44.773 5.3 44.863 5.4C44.963 5.49 45.013 5.6 45.013 5.73C45.023 5.86 44.993 5.97 44.923 6.06C44.923 6.06 44.893 6.09 44.833 6.15C44.783 6.21 44.733 6.275 44.683 6.345C44.633 6.405 44.608 6.435 44.608 6.435C44.808 6.085 44.878 5.835 44.818 5.685C44.768 5.525 44.628 5.445 44.398 5.445C44.228 5.445 44.013 5.525 43.753 5.685C43.503 5.845 43.233 6.055 42.943 6.315C42.663 6.575 42.398 6.855 42.148 7.155C41.898 7.455 41.693 7.745 41.533 8.025C41.383 8.305 41.308 8.545 41.308 8.745C41.308 8.845 41.343 8.92 41.413 8.97C41.483 9.02 41.573 9.045 41.683 9.045C41.833 9.045 42.008 8.985 42.208 8.865C42.408 8.745 42.613 8.595 42.823 8.415C43.033 8.235 43.228 8.055 43.408 7.875C43.588 7.695 43.733 7.54 43.843 7.41C43.963 7.28 44.028 7.205 44.038 7.185C44.078 7.135 44.193 6.97 44.383 6.69C44.583 6.41 44.833 6.06 45.133 5.64C45.433 5.22 45.753 4.765 46.093 4.275C46.443 3.775 46.788 3.28 47.128 2.79C47.468 2.29 47.783 1.835 48.073 1.425C48.363 1.015 48.598 0.679996 48.778 0.419996C48.958 0.159996 49.058 0.019996 49.078 -3.75509e-06C49.178 0.0499962 49.273 0.084996 49.363 0.104996C49.463 0.114996 49.613 0.109996 49.813 0.089996C49.793 0.119996 49.673 0.289996 49.453 0.599996C49.233 0.899996 48.948 1.295 48.598 1.785C48.248 2.275 47.868 2.81 47.458 3.39C47.048 3.97 46.633 4.55 46.213 5.13C45.803 5.71 45.423 6.245 45.073 6.735C44.723 7.225 44.438 7.625 44.218 7.935C43.998 8.235 43.878 8.4 43.858 8.43C43.818 8.49 43.773 8.57 43.723 8.67C43.683 8.76 43.663 8.845 43.663 8.925C43.663 9.005 43.703 9.045 43.783 9.045C44.083 9.045 44.378 8.96 44.668 8.79C44.968 8.61 45.248 8.395 45.508 8.145C45.778 7.895 46.013 7.655 46.213 7.425C46.413 7.185 46.573 7 46.693 6.87L46.813 6.96C46.703 7.1 46.538 7.295 46.318 7.545C46.098 7.795 45.843 8.05 45.553 8.31C45.273 8.56 44.978 8.775 44.668 8.955C44.358 9.135 44.058 9.225 43.768 9.225C43.578 9.225 43.433 9.19 43.333 9.12C43.233 9.06 43.183 8.975 43.183 8.865C43.183 8.735 43.228 8.59 43.318 8.43C43.418 8.27 43.523 8.12 43.633 7.98C43.743 7.83 43.823 7.725 43.873 7.665C43.873 7.665 43.863 7.665 43.843 7.665C43.833 7.655 43.828 7.65 43.828 7.65C43.818 7.66 43.738 7.745 43.588 7.905C43.448 8.065 43.263 8.25 43.033 8.46C42.813 8.66 42.578 8.84 42.328 9C42.078 9.15 41.833 9.225 41.593 9.225Z" fill="#BB8ED0"/>
</svg>
