<svg width="50" height="13" viewBox="0 0 50 13" fill="none" xmlns="http://www.w3.org/2000/svg">
<path d="M4.8 1.47C4.91 1.47 4.95 1.495 4.92 1.545C4.89 1.585 4.845 1.605 4.785 1.605C4.655 1.605 4.485 1.645 4.275 1.725C4.075 1.795 3.875 1.905 3.675 2.055C3.475 2.195 3.305 2.375 3.165 2.595C3.025 2.815 2.955 3.075 2.955 3.375C2.955 3.745 3.045 4.06 3.225 4.32C3.405 4.58 3.68 4.78 4.05 4.92C4.42 5.05 4.88 5.115 5.43 5.115C5.92 5.115 6.445 5.025 7.005 4.845C7.575 4.655 8.135 4.405 8.685 4.095C9.245 3.775 9.755 3.42 10.215 3.03C10.675 2.64 11.04 2.24 11.31 1.83C11.59 1.41 11.73 1.01 11.73 0.629999C11.73 0.519999 11.67 0.409999 11.55 0.299999C11.44 0.189999 11.285 0.135 11.085 0.135C10.635 0.135 10.22 0.25 9.84 0.48C9.46 0.709999 9.095 1.03 8.745 1.44C8.395 1.84 8.04 2.305 7.68 2.835C7.33 3.365 6.96 3.93 6.57 4.53C6.32 4.91 6.025 5.31 5.685 5.73C5.355 6.14 4.975 6.53 4.545 6.9C4.115 7.26 3.63 7.555 3.09 7.785C2.56 8.005 1.965 8.115 1.305 8.115C0.434998 8.115 -1.9446e-06 7.935 -1.9446e-06 7.575C-1.9446e-06 7.465 0.109998 7.35 0.329998 7.23C0.539998 7.1 0.859998 7.035 1.29 7.035C1.7 7.035 2.06 7.085 2.37 7.185C2.68 7.275 2.995 7.38 3.315 7.5C3.645 7.62 4.03 7.73 4.47 7.83C4.91 7.92 5.465 7.965 6.135 7.965C6.435 7.965 6.765 7.92 7.125 7.83C7.485 7.73 7.75 7.57 7.92 7.35C7.96 7.3 8 7.28 8.04 7.29C8.08 7.3 8.075 7.345 8.025 7.425C7.905 7.595 7.68 7.775 7.35 7.965C7.03 8.145 6.61 8.235 6.09 8.235C5.69 8.235 5.27 8.19 4.83 8.1C4.39 8.01 3.955 7.905 3.525 7.785C3.095 7.655 2.69 7.545 2.31 7.455C1.93 7.365 1.595 7.32 1.305 7.32C0.954998 7.32 0.679998 7.35 0.479998 7.41C0.269998 7.46 0.164998 7.515 0.164998 7.575C0.164998 7.685 0.274998 7.78 0.494998 7.86C0.704998 7.93 0.979998 7.965 1.32 7.965C1.86 7.965 2.34 7.865 2.76 7.665C3.18 7.455 3.565 7.18 3.915 6.84C4.265 6.49 4.595 6.095 4.905 5.655C5.225 5.215 5.545 4.765 5.865 4.305C6.285 3.685 6.7 3.115 7.11 2.595C7.52 2.075 7.94 1.62 8.37 1.23C8.8 0.839999 9.25 0.539999 9.72 0.329999C10.2 0.109999 10.715 -5.36442e-07 11.265 -5.36442e-07C11.465 -5.36442e-07 11.655 0.0549994 11.835 0.164999C12.025 0.274999 12.12 0.454999 12.12 0.704999C12.12 1.065 11.97 1.455 11.67 1.875C11.38 2.285 10.99 2.69 10.5 3.09C10.02 3.49 9.48 3.855 8.88 4.185C8.29 4.515 7.695 4.78 7.095 4.98C6.495 5.17 5.935 5.265 5.415 5.265C4.685 5.265 4.11 5.175 3.69 4.995C3.27 4.815 2.97 4.59 2.79 4.32C2.62 4.05 2.535 3.785 2.535 3.525C2.535 3.195 2.64 2.875 2.85 2.565C3.07 2.245 3.35 1.985 3.69 1.785C4.04 1.575 4.41 1.47 4.8 1.47ZM12.9009 5.355C12.8609 5.435 12.8009 5.505 12.7209 5.565C12.6509 5.625 12.5959 5.665 12.5559 5.685C12.5259 5.695 12.5359 5.665 12.5859 5.595C12.7659 5.375 12.8809 5.17 12.9309 4.98C12.9909 4.79 12.9909 4.64 12.9309 4.53C12.8809 4.41 12.7809 4.35 12.6309 4.35C12.4309 4.35 12.1959 4.43 11.9259 4.59C11.6559 4.75 11.3759 4.96 11.0859 5.22C10.8059 5.48 10.5409 5.76 10.2909 6.06C10.0509 6.35 9.85594 6.635 9.70594 6.915C9.55594 7.185 9.48094 7.42 9.48094 7.62C9.48094 7.77 9.51094 7.865 9.57094 7.905C9.63094 7.945 9.69094 7.965 9.75094 7.965C9.98094 7.965 10.2459 7.86 10.5459 7.65C10.8559 7.43 11.1709 7.155 11.4909 6.825C11.8109 6.495 12.1159 6.16 12.4059 5.82C12.6959 5.47 12.9459 5.155 13.1559 4.875C13.3759 4.595 13.5259 4.405 13.6059 4.305C13.7159 4.345 13.8459 4.36 13.9959 4.35C14.1559 4.34 14.2909 4.33 14.4009 4.32C14.3809 4.35 14.2759 4.475 14.0859 4.695C13.9059 4.915 13.6859 5.18 13.4259 5.49C13.1759 5.79 12.9209 6.1 12.6609 6.42C12.4109 6.74 12.2009 7.02 12.0309 7.26C11.8609 7.5 11.7759 7.66 11.7759 7.74C11.7759 7.84 11.7959 7.905 11.8359 7.935C11.8859 7.955 11.9609 7.965 12.0609 7.965C12.1809 7.955 12.3559 7.9 12.5859 7.8C12.8159 7.69 13.1109 7.48 13.4709 7.17C13.8309 6.86 14.2659 6.4 14.7759 5.79C14.7759 5.79 14.7959 5.805 14.8359 5.835C14.8859 5.865 14.9109 5.88 14.9109 5.88C14.3109 6.58 13.7559 7.13 13.2459 7.53C12.7359 7.92 12.2709 8.115 11.8509 8.115C11.6309 8.115 11.4809 8.08 11.4009 8.01C11.3309 7.94 11.2959 7.84 11.2959 7.71C11.2959 7.61 11.3359 7.49 11.4159 7.35C11.5059 7.2 11.6059 7.055 11.7159 6.915C11.8259 6.775 11.9159 6.665 11.9859 6.585C11.9859 6.585 11.9759 6.58 11.9559 6.57C11.9359 6.56 11.9259 6.555 11.9259 6.555C11.6959 6.835 11.4509 7.095 11.1909 7.335C10.9309 7.575 10.6709 7.765 10.4109 7.905C10.1609 8.045 9.91594 8.115 9.67594 8.115C9.42594 8.115 9.25094 8.055 9.15094 7.935C9.05094 7.805 9.00094 7.61 9.00094 7.35C9.00094 7.1 9.08094 6.8 9.24094 6.45C9.40094 6.09 9.63094 5.74 9.93094 5.4C10.2309 5.05 10.5909 4.76 11.0109 4.53C11.4409 4.3 11.9209 4.185 12.4509 4.185C12.7109 4.185 12.8909 4.235 12.9909 4.335C13.0909 4.425 13.1359 4.535 13.1259 4.665C13.1159 4.795 13.0859 4.925 13.0359 5.055C12.9859 5.185 12.9409 5.285 12.9009 5.355ZM17.9375 8.115C17.4075 8.115 17.1425 7.96 17.1425 7.65C17.1425 7.45 17.2075 7.235 17.3375 7.005C17.4775 6.775 17.6475 6.545 17.8475 6.315C18.0475 6.075 18.2475 5.84 18.4475 5.61C18.6575 5.38 18.8275 5.17 18.9575 4.98C19.0975 4.78 19.1675 4.61 19.1675 4.47C19.1675 4.42 19.1425 4.38 19.0925 4.35C19.0525 4.31 18.9925 4.29 18.9125 4.29C18.7925 4.29 18.6225 4.35 18.4025 4.47C18.1925 4.59 17.9225 4.795 17.5925 5.085C17.2725 5.365 16.8925 5.745 16.4525 6.225C16.0125 6.695 15.5075 7.285 14.9375 7.995C14.8475 7.975 14.7125 7.965 14.5325 7.965C14.3525 7.965 14.1975 7.985 14.0675 8.025C14.3575 7.605 14.6425 7.195 14.9225 6.795C15.2025 6.395 15.4575 6.03 15.6875 5.7C15.9275 5.37 16.1175 5.1 16.2575 4.89C16.3975 4.67 16.4675 4.535 16.4675 4.485C16.4675 4.395 16.4225 4.35 16.3325 4.35C16.2325 4.35 16.1075 4.43 15.9575 4.59C15.8075 4.74 15.6425 4.935 15.4625 5.175C15.2825 5.405 15.0975 5.64 14.9075 5.88L14.7725 5.79C14.9725 5.56 15.1675 5.32 15.3575 5.07C15.5475 4.82 15.7425 4.605 15.9425 4.425C16.1425 4.245 16.3525 4.155 16.5725 4.155C16.6825 4.155 16.7825 4.185 16.8725 4.245C16.9725 4.295 17.0225 4.38 17.0225 4.5C17.0225 4.61 16.9775 4.745 16.8875 4.905C16.8075 5.055 16.6975 5.23 16.5575 5.43C16.4175 5.62 16.2575 5.835 16.0775 6.075C15.9075 6.305 15.7275 6.555 15.5375 6.825L15.5525 6.915C16.0825 6.335 16.5275 5.865 16.8875 5.505C17.2575 5.145 17.5625 4.87 17.8025 4.68C18.0525 4.48 18.2675 4.345 18.4475 4.275C18.6375 4.195 18.8175 4.155 18.9875 4.155C19.2175 4.155 19.3825 4.205 19.4825 4.305C19.5825 4.395 19.6325 4.52 19.6325 4.68C19.6325 4.92 19.5625 5.175 19.4225 5.445C19.2825 5.705 19.1075 5.965 18.8975 6.225C18.6975 6.475 18.4925 6.71 18.2825 6.93C18.0825 7.14 17.9125 7.32 17.7725 7.47C17.6325 7.62 17.5625 7.72 17.5625 7.77C17.5625 7.83 17.5775 7.875 17.6075 7.905C17.6475 7.935 17.7425 7.95 17.8925 7.95C18.2625 7.95 18.6125 7.835 18.9425 7.605C19.2825 7.375 19.6075 7.095 19.9175 6.765C20.2275 6.425 20.5175 6.09 20.7875 5.76L20.9075 5.865C20.6375 6.185 20.3425 6.52 20.0225 6.87C19.7025 7.22 19.3675 7.515 19.0175 7.755C18.6675 7.995 18.3075 8.115 17.9375 8.115ZM23.5837 4.155C23.8837 4.155 24.0887 4.2 24.1987 4.29C24.3187 4.38 24.3787 4.5 24.3787 4.65C24.3787 4.79 24.3437 4.935 24.2737 5.085C24.2037 5.225 24.1287 5.355 24.0487 5.475C23.9787 5.595 23.9337 5.675 23.9137 5.715C23.8537 5.815 23.7837 5.88 23.7037 5.91C23.6237 5.93 23.6487 5.85 23.7787 5.67C23.9487 5.45 24.0737 5.24 24.1537 5.04C24.2337 4.83 24.2387 4.66 24.1687 4.53C24.1087 4.39 23.9387 4.32 23.6587 4.32C23.4687 4.32 23.2437 4.405 22.9837 4.575C22.7337 4.735 22.4737 4.95 22.2037 5.22C21.9337 5.48 21.6787 5.765 21.4387 6.075C21.2087 6.375 21.0187 6.665 20.8687 6.945C20.7287 7.215 20.6587 7.445 20.6587 7.635C20.6587 7.775 20.6887 7.86 20.7487 7.89C20.8087 7.92 20.8837 7.935 20.9737 7.935C21.2037 7.935 21.4687 7.835 21.7687 7.635C22.0687 7.425 22.3787 7.16 22.6987 6.84C23.0187 6.52 23.3237 6.19 23.6137 5.85C23.9137 5.5 24.1737 5.185 24.3937 4.905C24.6137 4.615 24.7687 4.405 24.8587 4.275C24.9687 4.305 25.0787 4.325 25.1887 4.335C25.3087 4.335 25.4637 4.32 25.6537 4.29C24.9937 5.05 24.3787 5.825 23.8087 6.615C23.2387 7.405 22.6937 8.16 22.1737 8.88C21.6537 9.6 21.1437 10.24 20.6437 10.8C20.1337 11.37 19.6187 11.82 19.0987 12.15C18.5787 12.48 18.0337 12.645 17.4637 12.645C17.2737 12.645 17.1237 12.605 17.0137 12.525C16.8937 12.445 16.8337 12.34 16.8337 12.21C16.8337 11.99 16.9487 11.76 17.1787 11.52C17.4087 11.29 17.7087 11.065 18.0787 10.845C18.4487 10.625 18.8487 10.41 19.2787 10.2C19.6987 10 20.1087 9.82 20.5087 9.66C20.8987 9.5 21.2287 9.365 21.4987 9.255C21.9687 9.065 22.4387 8.825 22.9087 8.535C23.3787 8.245 23.8187 7.93 24.2287 7.59C24.6487 7.25 25.0187 6.92 25.3387 6.6C25.6687 6.28 25.9237 5.995 26.1037 5.745C26.1037 5.745 26.1187 5.765 26.1487 5.805C26.1887 5.845 26.2087 5.865 26.2087 5.865C25.9587 6.195 25.6137 6.575 25.1737 7.005C24.7337 7.425 24.2087 7.845 23.5987 8.265C22.9887 8.685 22.3037 9.055 21.5437 9.375C21.2837 9.485 20.9637 9.62 20.5837 9.78C20.2037 9.94 19.8087 10.115 19.3987 10.305C18.9887 10.505 18.6037 10.71 18.2437 10.92C17.8837 11.14 17.5937 11.355 17.3737 11.565C17.1437 11.785 17.0287 11.995 17.0287 12.195C17.0287 12.265 17.0637 12.335 17.1337 12.405C17.2037 12.475 17.3137 12.51 17.4637 12.51C17.7437 12.51 18.0537 12.39 18.3937 12.15C18.7337 11.91 19.0937 11.595 19.4737 11.205C19.8437 10.815 20.2187 10.39 20.5987 9.93C20.9687 9.48 21.3237 9.03 21.6637 8.58C22.0037 8.13 22.3087 7.725 22.5787 7.365C22.8587 7.005 23.0837 6.735 23.2537 6.555C23.2537 6.555 23.2437 6.55 23.2237 6.54C23.2137 6.53 23.2087 6.525 23.2087 6.525C23.1687 6.575 23.0687 6.685 22.9087 6.855C22.7587 7.015 22.5687 7.195 22.3387 7.395C22.1087 7.585 21.8637 7.755 21.6037 7.905C21.3437 8.045 21.0887 8.115 20.8387 8.115C20.5787 8.115 20.4037 8.04 20.3137 7.89C20.2137 7.74 20.1637 7.57 20.1637 7.38C20.1637 7.06 20.2537 6.715 20.4337 6.345C20.6037 5.975 20.8437 5.625 21.1537 5.295C21.4737 4.965 21.8387 4.695 22.2487 4.485C22.6687 4.265 23.1137 4.155 23.5837 4.155ZM27.3868 4.17C27.4768 4.21 27.6118 4.23 27.7918 4.23C27.9818 4.23 28.1418 4.22 28.2718 4.2C28.0218 4.5 27.7418 4.825 27.4318 5.175C27.1218 5.515 26.8268 5.855 26.5468 6.195C26.2668 6.535 26.0368 6.84 25.8568 7.11C25.6668 7.38 25.5718 7.59 25.5718 7.74C25.5718 7.84 25.6018 7.905 25.6618 7.935C25.7118 7.965 25.7768 7.98 25.8568 7.98C26.0968 7.98 26.3618 7.885 26.6518 7.695C26.9518 7.505 27.2568 7.26 27.5668 6.96C27.8868 6.65 28.1968 6.32 28.4968 5.97C28.7968 5.62 29.0718 5.29 29.3218 4.98C29.5818 4.66 29.8018 4.395 29.9818 4.185C30.0818 4.215 30.2218 4.23 30.4018 4.23C30.5818 4.23 30.7368 4.22 30.8668 4.2C30.6068 4.53 30.3168 4.88 29.9968 5.25C29.6768 5.61 29.3668 5.96 29.0668 6.3C28.7768 6.63 28.5368 6.925 28.3468 7.185C28.1568 7.435 28.0618 7.625 28.0618 7.755C28.0618 7.815 28.0868 7.865 28.1368 7.905C28.1968 7.935 28.2768 7.95 28.3768 7.95C28.5968 7.95 28.8318 7.875 29.0818 7.725C29.3418 7.565 29.5968 7.37 29.8468 7.14C30.1068 6.9 30.3518 6.66 30.5818 6.42C30.8218 6.17 31.0268 5.95 31.1968 5.76L31.3168 5.865C31.1568 6.035 30.9568 6.25 30.7168 6.51C30.4868 6.76 30.2318 7.01 29.9518 7.26C29.6818 7.5 29.4068 7.705 29.1268 7.875C28.8468 8.035 28.5818 8.115 28.3318 8.115C28.1918 8.115 28.0618 8.075 27.9418 7.995C27.8218 7.915 27.7618 7.77 27.7618 7.56C27.7618 7.37 27.8068 7.175 27.8968 6.975C27.9868 6.765 28.0818 6.585 28.1818 6.435C28.2818 6.275 28.3418 6.18 28.3618 6.15L28.4668 6.195C28.3768 6.325 28.2318 6.5 28.0318 6.72C27.8418 6.93 27.6168 7.145 27.3568 7.365C27.1068 7.575 26.8418 7.755 26.5618 7.905C26.2818 8.045 26.0068 8.115 25.7368 8.115C25.3068 8.115 25.0918 7.89 25.0918 7.44C25.0918 7.25 25.1718 7.025 25.3318 6.765C25.4918 6.495 25.6968 6.21 25.9468 5.91C26.1868 5.6 26.4368 5.295 26.6968 4.995C26.9568 4.695 27.1868 4.42 27.3868 4.17ZM34.4488 5.355C34.4088 5.435 34.3488 5.505 34.2688 5.565C34.1988 5.625 34.1438 5.665 34.1038 5.685C34.0738 5.695 34.0838 5.665 34.1338 5.595C34.3138 5.375 34.4288 5.17 34.4788 4.98C34.5388 4.79 34.5388 4.64 34.4788 4.53C34.4288 4.41 34.3288 4.35 34.1788 4.35C33.9788 4.35 33.7438 4.43 33.4738 4.59C33.2038 4.75 32.9238 4.96 32.6338 5.22C32.3538 5.48 32.0888 5.76 31.8388 6.06C31.5988 6.35 31.4038 6.635 31.2538 6.915C31.1038 7.185 31.0288 7.42 31.0288 7.62C31.0288 7.77 31.0588 7.865 31.1188 7.905C31.1788 7.945 31.2388 7.965 31.2988 7.965C31.5288 7.965 31.7938 7.86 32.0938 7.65C32.4038 7.43 32.7188 7.155 33.0388 6.825C33.3588 6.495 33.6638 6.16 33.9538 5.82C34.2438 5.47 34.4938 5.155 34.7038 4.875C34.9238 4.595 35.0738 4.405 35.1538 4.305C35.2638 4.345 35.3938 4.36 35.5438 4.35C35.7038 4.34 35.8388 4.33 35.9488 4.32C35.9288 4.35 35.8238 4.475 35.6338 4.695C35.4538 4.915 35.2338 5.18 34.9738 5.49C34.7238 5.79 34.4688 6.1 34.2088 6.42C33.9588 6.74 33.7488 7.02 33.5788 7.26C33.4088 7.5 33.3238 7.66 33.3238 7.74C33.3238 7.84 33.3438 7.905 33.3838 7.935C33.4338 7.955 33.5088 7.965 33.6088 7.965C33.7288 7.955 33.9038 7.9 34.1338 7.8C34.3638 7.69 34.6588 7.48 35.0188 7.17C35.3788 6.86 35.8138 6.4 36.3238 5.79C36.3238 5.79 36.3438 5.805 36.3838 5.835C36.4338 5.865 36.4588 5.88 36.4588 5.88C35.8588 6.58 35.3038 7.13 34.7938 7.53C34.2838 7.92 33.8188 8.115 33.3988 8.115C33.1788 8.115 33.0288 8.08 32.9488 8.01C32.8788 7.94 32.8438 7.84 32.8438 7.71C32.8438 7.61 32.8838 7.49 32.9638 7.35C33.0538 7.2 33.1538 7.055 33.2638 6.915C33.3738 6.775 33.4638 6.665 33.5338 6.585C33.5338 6.585 33.5238 6.58 33.5038 6.57C33.4838 6.56 33.4738 6.555 33.4738 6.555C33.2438 6.835 32.9988 7.095 32.7388 7.335C32.4788 7.575 32.2188 7.765 31.9588 7.905C31.7088 8.045 31.4638 8.115 31.2238 8.115C30.9738 8.115 30.7988 8.055 30.6988 7.935C30.5988 7.805 30.5488 7.61 30.5488 7.35C30.5488 7.1 30.6288 6.8 30.7888 6.45C30.9488 6.09 31.1788 5.74 31.4788 5.4C31.7788 5.05 32.1388 4.76 32.5588 4.53C32.9888 4.3 33.4688 4.185 33.9988 4.185C34.2588 4.185 34.4388 4.235 34.5388 4.335C34.6388 4.425 34.6838 4.535 34.6738 4.665C34.6638 4.795 34.6338 4.925 34.5838 5.055C34.5338 5.185 34.4888 5.285 34.4488 5.355ZM39.1404 4.155C39.4404 4.155 39.6454 4.2 39.7554 4.29C39.8754 4.38 39.9354 4.5 39.9354 4.65C39.9354 4.79 39.9004 4.935 39.8304 5.085C39.7604 5.225 39.6854 5.355 39.6054 5.475C39.5354 5.595 39.4904 5.675 39.4704 5.715C39.4104 5.815 39.3404 5.88 39.2604 5.91C39.1804 5.93 39.2054 5.85 39.3354 5.67C39.5054 5.45 39.6304 5.24 39.7104 5.04C39.7904 4.83 39.7954 4.66 39.7254 4.53C39.6654 4.39 39.4954 4.32 39.2154 4.32C39.0254 4.32 38.8004 4.405 38.5404 4.575C38.2904 4.735 38.0304 4.95 37.7604 5.22C37.4904 5.48 37.2354 5.765 36.9954 6.075C36.7654 6.375 36.5754 6.665 36.4254 6.945C36.2854 7.215 36.2154 7.445 36.2154 7.635C36.2154 7.775 36.2454 7.86 36.3054 7.89C36.3654 7.92 36.4404 7.935 36.5304 7.935C36.7604 7.935 37.0254 7.835 37.3254 7.635C37.6254 7.425 37.9354 7.16 38.2554 6.84C38.5754 6.52 38.8804 6.19 39.1704 5.85C39.4704 5.5 39.7304 5.185 39.9504 4.905C40.1704 4.615 40.3254 4.405 40.4154 4.275C40.5254 4.305 40.6354 4.325 40.7454 4.335C40.8654 4.335 41.0204 4.32 41.2104 4.29C40.5504 5.05 39.9354 5.825 39.3654 6.615C38.7954 7.405 38.2504 8.16 37.7304 8.88C37.2104 9.6 36.7004 10.24 36.2004 10.8C35.6904 11.37 35.1754 11.82 34.6554 12.15C34.1354 12.48 33.5904 12.645 33.0204 12.645C32.8304 12.645 32.6804 12.605 32.5704 12.525C32.4504 12.445 32.3904 12.34 32.3904 12.21C32.3904 11.99 32.5054 11.76 32.7354 11.52C32.9654 11.29 33.2654 11.065 33.6354 10.845C34.0054 10.625 34.4054 10.41 34.8354 10.2C35.2554 10 35.6654 9.82 36.0654 9.66C36.4554 9.5 36.7854 9.365 37.0554 9.255C37.5254 9.065 37.9954 8.825 38.4654 8.535C38.9354 8.245 39.3754 7.93 39.7854 7.59C40.2054 7.25 40.5754 6.92 40.8954 6.6C41.2254 6.28 41.4804 5.995 41.6604 5.745C41.6604 5.745 41.6754 5.765 41.7054 5.805C41.7454 5.845 41.7654 5.865 41.7654 5.865C41.5154 6.195 41.1704 6.575 40.7304 7.005C40.2904 7.425 39.7654 7.845 39.1554 8.265C38.5454 8.685 37.8604 9.055 37.1004 9.375C36.8404 9.485 36.5204 9.62 36.1404 9.78C35.7604 9.94 35.3654 10.115 34.9554 10.305C34.5454 10.505 34.1604 10.71 33.8004 10.92C33.4404 11.14 33.1504 11.355 32.9304 11.565C32.7004 11.785 32.5854 11.995 32.5854 12.195C32.5854 12.265 32.6204 12.335 32.6904 12.405C32.7604 12.475 32.8704 12.51 33.0204 12.51C33.3004 12.51 33.6104 12.39 33.9504 12.15C34.2904 11.91 34.6504 11.595 35.0304 11.205C35.4004 10.815 35.7754 10.39 36.1554 9.93C36.5254 9.48 36.8804 9.03 37.2204 8.58C37.5604 8.13 37.8654 7.725 38.1354 7.365C38.4154 7.005 38.6404 6.735 38.8104 6.555C38.8104 6.555 38.8004 6.55 38.7804 6.54C38.7704 6.53 38.7654 6.525 38.7654 6.525C38.7254 6.575 38.6254 6.685 38.4654 6.855C38.3154 7.015 38.1254 7.195 37.8954 7.395C37.6654 7.585 37.4204 7.755 37.1604 7.905C36.9004 8.045 36.6454 8.115 36.3954 8.115C36.1354 8.115 35.9604 8.04 35.8704 7.89C35.7704 7.74 35.7204 7.57 35.7204 7.38C35.7204 7.06 35.8104 6.715 35.9904 6.345C36.1604 5.975 36.4004 5.625 36.7104 5.295C37.0304 4.965 37.3954 4.695 37.8054 4.485C38.2254 4.265 38.6704 4.155 39.1404 4.155ZM42.3135 8.115C41.8435 8.115 41.5335 8.01 41.3835 7.8C41.2335 7.58 41.1585 7.35 41.1585 7.11C41.1585 6.7 41.2635 6.32 41.4735 5.97C41.6835 5.61 41.9535 5.29 42.2835 5.01C42.6135 4.73 42.9535 4.515 43.3035 4.365C43.6635 4.205 43.9835 4.125 44.2635 4.125C44.4635 4.125 44.6235 4.155 44.7435 4.215C44.8635 4.265 44.9235 4.375 44.9235 4.545C44.9235 4.705 44.8285 4.875 44.6385 5.055C44.4485 5.235 44.2085 5.41 43.9185 5.58C43.6285 5.74 43.3235 5.89 43.0035 6.03C42.6935 6.16 42.4085 6.265 42.1485 6.345C41.8885 6.425 41.6985 6.465 41.5785 6.465C41.5785 6.465 41.5785 6.44 41.5785 6.39C41.5785 6.33 41.5785 6.3 41.5785 6.3C41.6685 6.31 41.8235 6.28 42.0435 6.21C42.2735 6.14 42.5285 6.05 42.8085 5.94C43.0885 5.82 43.3585 5.685 43.6185 5.535C43.8885 5.385 44.1085 5.225 44.2785 5.055C44.4585 4.885 44.5485 4.72 44.5485 4.56C44.5485 4.48 44.5235 4.41 44.4735 4.35C44.4335 4.29 44.3585 4.26 44.2485 4.26C44.0885 4.26 43.8935 4.34 43.6635 4.5C43.4435 4.65 43.2185 4.85 42.9885 5.1C42.7585 5.35 42.5435 5.615 42.3435 5.895C42.1435 6.175 41.9785 6.445 41.8485 6.705C41.7285 6.955 41.6685 7.165 41.6685 7.335C41.6685 7.535 41.7285 7.685 41.8485 7.785C41.9685 7.885 42.1435 7.935 42.3735 7.935C42.7735 7.935 43.1485 7.84 43.4985 7.65C43.8585 7.45 44.1835 7.22 44.4735 6.96C44.7635 6.69 45.0085 6.44 45.2085 6.21C45.4085 5.97 45.5435 5.815 45.6135 5.745C45.6135 5.745 45.6285 5.76 45.6585 5.79C45.6985 5.82 45.7185 5.835 45.7185 5.835C45.6485 5.915 45.5135 6.075 45.3135 6.315C45.1135 6.555 44.8635 6.815 44.5635 7.095C44.2635 7.375 43.9235 7.615 43.5435 7.815C43.1635 8.015 42.7535 8.115 42.3135 8.115ZM45.0982 8.325C44.7482 8.325 44.4832 8.26 44.3032 8.13C44.1232 8 44.0332 7.825 44.0332 7.605C44.0332 7.445 44.0882 7.305 44.1982 7.185C44.2982 7.055 44.4182 6.955 44.5582 6.885C44.6982 6.805 44.8082 6.765 44.8882 6.765C44.9982 6.765 45.0732 6.79 45.1132 6.84C45.1432 6.88 45.1582 6.925 45.1582 6.975C45.1582 7.055 45.1132 7.12 45.0232 7.17C44.9232 7.22 44.8432 7.245 44.7832 7.245C44.7132 7.245 44.6532 7.225 44.6032 7.185C44.5432 7.135 44.5132 7.11 44.5132 7.11C44.4632 7.12 44.3932 7.175 44.3032 7.275C44.2132 7.375 44.1682 7.485 44.1682 7.605C44.1682 7.725 44.2332 7.84 44.3632 7.95C44.4932 8.06 44.7032 8.115 44.9932 8.115C45.2932 8.115 45.5782 8.015 45.8482 7.815C46.1282 7.615 46.3582 7.36 46.5382 7.05C46.7182 6.74 46.8082 6.425 46.8082 6.105C46.8082 5.995 46.8082 5.85 46.8082 5.67C46.8082 5.48 46.8082 5.325 46.8082 5.205C46.8082 5.055 46.8332 4.885 46.8832 4.695C46.9332 4.495 46.9882 4.31 47.0482 4.14C47.1182 3.97 47.1732 3.865 47.2132 3.825C47.2932 3.755 47.3532 3.735 47.3932 3.765C47.4332 3.795 47.4432 3.825 47.4232 3.855C47.4132 3.865 47.3482 3.945 47.2282 4.095C47.1082 4.235 46.9582 4.41 46.7782 4.62C46.5982 4.83 46.4182 5.04 46.2382 5.25C46.0582 5.46 45.8982 5.645 45.7582 5.805C45.6282 5.965 45.5532 6.06 45.5332 6.09C45.4832 6.16 45.4382 6.175 45.3982 6.135C45.3582 6.095 45.3682 6.045 45.4282 5.985C45.5382 5.845 45.6732 5.68 45.8332 5.49C46.0032 5.29 46.1732 5.095 46.3432 4.905C46.5132 4.715 46.6582 4.555 46.7782 4.425C46.9082 4.285 46.9782 4.205 46.9882 4.185C47.0182 4.145 47.0432 4.075 47.0632 3.975C47.0932 3.875 47.1282 3.78 47.1682 3.69C47.2182 3.6 47.2782 3.555 47.3482 3.555C47.5182 3.555 47.6032 3.615 47.6032 3.735C47.6032 3.825 47.5332 3.935 47.3932 4.065C47.2632 4.195 47.1882 4.3 47.1682 4.38C47.1382 4.5 47.1382 4.67 47.1682 4.89C47.2082 5.1 47.2482 5.34 47.2882 5.61C47.3382 5.88 47.3632 6.165 47.3632 6.465C47.3632 6.865 47.2832 7.19 47.1232 7.44C46.9632 7.68 46.7632 7.865 46.5232 7.995C46.2832 8.125 46.0332 8.21 45.7732 8.25C45.5232 8.3 45.2982 8.325 45.0982 8.325ZM47.4082 7.29C47.1482 7.29 46.9782 7.24 46.8982 7.14C46.8282 7.04 46.8032 6.925 46.8232 6.795C46.8532 6.655 46.8882 6.53 46.9282 6.42L47.0782 6.435C47.0482 6.535 47.0182 6.64 46.9882 6.75C46.9682 6.86 46.9832 6.955 47.0332 7.035C47.0832 7.115 47.2132 7.155 47.4232 7.155C47.5732 7.155 47.7432 7.085 47.9332 6.945C48.1232 6.805 48.3082 6.635 48.4882 6.435C48.6782 6.235 48.8382 6.04 48.9682 5.85L49.1032 5.955C48.9732 6.115 48.8132 6.3 48.6232 6.51C48.4432 6.72 48.2482 6.905 48.0382 7.065C47.8282 7.215 47.6182 7.29 47.4082 7.29Z" fill="#BB8ED0"/>
</svg>
