<svg width="48" height="14" viewBox="0 0 48 14" fill="none" xmlns="http://www.w3.org/2000/svg">
<path d="M8.52 9.24C8.36 9.24 8.215 9.205 8.085 9.135C7.955 9.075 7.89 8.935 7.89 8.715C7.89 8.525 7.99 8.25 8.19 7.89C8.39 7.53 8.66 7.12 9 6.66C9.34 6.19 9.715 5.7 10.125 5.19C10.545 4.68 10.975 4.185 11.415 3.705C11.855 3.215 12.275 2.765 12.675 2.355C13.075 1.935 13.43 1.585 13.74 1.305C14.05 1.025 14.28 0.849996 14.43 0.779996C14.48 0.759996 14.515 0.759996 14.535 0.779996C14.555 0.789996 14.53 0.809996 14.46 0.839996C14.16 0.979996 13.795 1.22 13.365 1.56C12.945 1.89 12.485 2.285 11.985 2.745C11.495 3.205 10.99 3.695 10.47 4.215C9.95 4.735 9.445 5.255 8.955 5.775C8.475 6.285 8.025 6.765 7.605 7.215C7.195 7.655 6.845 8.035 6.555 8.355C6.265 8.675 6.065 8.895 5.955 9.015C5.825 9.145 5.715 9.195 5.625 9.165C5.535 9.135 5.49 9.025 5.49 8.835C5.49 8.575 5.57 8.25 5.73 7.86C5.89 7.47 6.105 7.045 6.375 6.585C6.645 6.125 6.945 5.655 7.275 5.175C7.605 4.695 7.935 4.23 8.265 3.78C8.605 3.32 8.925 2.905 9.225 2.535C9.535 2.165 9.795 1.86 10.005 1.62C10.225 1.37 10.37 1.215 10.44 1.155C10.48 1.125 10.545 1.105 10.635 1.095C10.725 1.085 10.73 1.105 10.65 1.155C10.45 1.255 10.175 1.475 9.825 1.815C9.475 2.155 9.075 2.57 8.625 3.06C8.175 3.54 7.69 4.06 7.17 4.62C6.66 5.18 6.13 5.73 5.58 6.27C5.03 6.81 4.485 7.305 3.945 7.755C3.415 8.195 2.905 8.55 2.415 8.82C1.925 9.09 1.48 9.225 1.08 9.225C0.680003 9.225 0.400003 9.155 0.240003 9.015C0.0800032 8.865 3.23355e-06 8.715 3.23355e-06 8.565C3.23355e-06 8.365 0.0550033 8.22 0.165003 8.13C0.275003 8.03 0.380003 7.98 0.480003 7.98C0.710003 7.98 0.825003 8.06 0.825003 8.22C0.825003 8.34 0.785003 8.425 0.705003 8.475C0.625003 8.515 0.560003 8.535 0.510003 8.535C0.420003 8.535 0.350003 8.525 0.300003 8.505C0.250003 8.475 0.225003 8.46 0.225003 8.46C0.225003 8.48 0.235003 8.54 0.255003 8.64C0.265003 8.74 0.330003 8.84 0.450003 8.94C0.560003 9.03 0.760003 9.075 1.05 9.075C1.46 9.075 1.915 8.93 2.415 8.64C2.925 8.34 3.46 7.95 4.02 7.47C4.59 6.99 5.16 6.46 5.73 5.88C6.31 5.29 6.87 4.7 7.41 4.11C7.95 3.52 8.455 2.975 8.925 2.475C9.395 1.975 9.805 1.565 10.155 1.245C10.505 0.914996 10.77 0.729996 10.95 0.689996C11.09 0.659996 11.16 0.659996 11.16 0.689996C11.16 0.719996 11.135 0.759996 11.085 0.809996C10.955 0.909996 10.775 1.11 10.545 1.41C10.315 1.7 10.055 2.06 9.765 2.49C9.475 2.91 9.165 3.37 8.835 3.87C8.515 4.37 8.195 4.875 7.875 5.385C7.555 5.895 7.255 6.385 6.975 6.855C6.705 7.315 6.47 7.725 6.27 8.085C6.07 8.445 5.93 8.72 5.85 8.91C5.84 8.93 5.8 8.96 5.73 9C5.66 9.04 5.63 9.055 5.64 9.045C5.65 9.035 5.76 8.91 5.97 8.67C6.18 8.43 6.46 8.115 6.81 7.725C7.17 7.325 7.58 6.885 8.04 6.405C8.5 5.915 8.985 5.41 9.495 4.89C10.005 4.37 10.51 3.865 11.01 3.375C11.52 2.875 12.005 2.43 12.465 2.04C12.925 1.64 13.33 1.315 13.68 1.065C14.04 0.814996 14.32 0.679996 14.52 0.659996C14.63 0.639996 14.68 0.654996 14.67 0.704996C14.67 0.744996 14.65 0.774996 14.61 0.794996C14.39 0.924996 14.115 1.165 13.785 1.515C13.455 1.855 13.095 2.26 12.705 2.73C12.315 3.2 11.915 3.7 11.505 4.23C11.095 4.76 10.7 5.285 10.32 5.805C9.95 6.325 9.615 6.805 9.315 7.245C9.025 7.675 8.79 8.035 8.61 8.325C8.44 8.605 8.355 8.775 8.355 8.835C8.355 8.905 8.39 8.965 8.46 9.015C8.54 9.065 8.63 9.09 8.73 9.09C8.96 9.09 9.185 9.035 9.405 8.925C9.635 8.815 9.83 8.705 9.99 8.595C10.15 8.475 10.235 8.41 10.245 8.4C10.295 8.33 10.345 8.335 10.395 8.415C10.445 8.495 10.415 8.56 10.305 8.61C10.305 8.61 10.215 8.665 10.035 8.775C9.865 8.875 9.645 8.98 9.375 9.09C9.105 9.19 8.82 9.24 8.52 9.24ZM13.6226 5.28C13.7626 5.32 13.9076 5.34 14.0576 5.34C14.2076 5.33 14.3626 5.32 14.5226 5.31C14.2526 5.57 13.9476 5.88 13.6076 6.24C13.2776 6.59 12.9576 6.945 12.6476 7.305C12.3476 7.655 12.0976 7.97 11.8976 8.25C11.6976 8.52 11.5976 8.705 11.5976 8.805C11.5976 8.875 11.6226 8.94 11.6726 9C11.7226 9.05 11.8076 9.075 11.9276 9.075C12.2776 9.075 12.6376 8.97 13.0076 8.76C13.3876 8.55 13.7526 8.285 14.1026 7.965C14.4626 7.635 14.7976 7.295 15.1076 6.945C15.4176 6.585 15.6876 6.26 15.9176 5.97C16.1576 5.67 16.3326 5.45 16.4426 5.31C16.5226 5.33 16.6526 5.34 16.8326 5.34C17.0226 5.34 17.1526 5.335 17.2226 5.325C16.1926 6.565 15.2876 7.705 14.5076 8.745C13.7376 9.775 13.0426 10.66 12.4226 11.4C11.8026 12.15 11.2126 12.73 10.6526 13.14C10.0826 13.55 9.48758 13.755 8.86758 13.755C8.48758 13.755 8.29758 13.605 8.29758 13.305C8.29758 13.085 8.43758 12.855 8.71758 12.615C8.98758 12.375 9.35258 12.125 9.81258 11.865C10.2726 11.615 10.7826 11.365 11.3426 11.115C11.9026 10.865 12.4726 10.625 13.0526 10.395C13.8126 10.095 14.4376 9.765 14.9276 9.405C15.4276 9.055 15.8626 8.67 16.2326 8.25C16.6126 7.83 16.9976 7.37 17.3876 6.87L17.5076 6.945C17.1076 7.455 16.7126 7.925 16.3226 8.355C15.9326 8.775 15.4876 9.165 14.9876 9.525C14.4876 9.885 13.8576 10.22 13.0976 10.53C12.5276 10.76 11.9726 10.995 11.4326 11.235C10.8826 11.485 10.3876 11.725 9.94758 11.955C9.49758 12.195 9.14258 12.43 8.88258 12.66C8.61258 12.89 8.47758 13.105 8.47758 13.305C8.47758 13.425 8.51758 13.5 8.59758 13.53C8.67758 13.57 8.78258 13.59 8.91258 13.59C9.22258 13.59 9.55758 13.47 9.91758 13.23C10.2676 12.99 10.6376 12.665 11.0276 12.255C11.4176 11.845 11.8126 11.38 12.2126 10.86C12.6226 10.35 13.0376 9.82 13.4576 9.27C13.8776 8.72 14.3026 8.185 14.7326 7.665L14.6726 7.635C14.6526 7.665 14.5826 7.74 14.4626 7.86C14.3426 7.98 14.1876 8.115 13.9976 8.265C13.8076 8.415 13.5926 8.565 13.3526 8.715C13.1126 8.865 12.8576 8.99 12.5876 9.09C12.3276 9.18 12.0626 9.225 11.7926 9.225C11.6026 9.225 11.4576 9.18 11.3576 9.09C11.2476 9.01 11.1926 8.895 11.1926 8.745C11.1926 8.505 11.2726 8.235 11.4326 7.935C11.5926 7.625 11.8026 7.31 12.0626 6.99C12.3126 6.67 12.5776 6.36 12.8576 6.06C13.1376 5.76 13.3926 5.5 13.6226 5.28ZM21.3984 9.435C21.0484 9.435 20.7834 9.37 20.6034 9.24C20.4234 9.11 20.3334 8.935 20.3334 8.715C20.3334 8.555 20.3884 8.415 20.4984 8.295C20.5984 8.165 20.7184 8.065 20.8584 7.995C20.9984 7.915 21.1084 7.875 21.1884 7.875C21.2984 7.875 21.3734 7.9 21.4134 7.95C21.4434 7.99 21.4584 8.035 21.4584 8.085C21.4584 8.165 21.4134 8.23 21.3234 8.28C21.2234 8.33 21.1434 8.355 21.0834 8.355C21.0134 8.355 20.9534 8.335 20.9034 8.295C20.8434 8.245 20.8134 8.22 20.8134 8.22C20.7634 8.23 20.6934 8.285 20.6034 8.385C20.5134 8.485 20.4684 8.595 20.4684 8.715C20.4684 8.835 20.5334 8.95 20.6634 9.06C20.7934 9.17 21.0034 9.225 21.2934 9.225C21.5934 9.225 21.8784 9.125 22.1484 8.925C22.4284 8.725 22.6584 8.47 22.8384 8.16C23.0184 7.85 23.1084 7.535 23.1084 7.215C23.1084 7.105 23.1084 6.96 23.1084 6.78C23.1084 6.59 23.1084 6.435 23.1084 6.315C23.1084 6.165 23.1334 5.995 23.1834 5.805C23.2334 5.605 23.2884 5.42 23.3484 5.25C23.4184 5.08 23.4734 4.975 23.5134 4.935C23.5934 4.865 23.6534 4.845 23.6934 4.875C23.7334 4.905 23.7434 4.935 23.7234 4.965C23.7134 4.975 23.6484 5.055 23.5284 5.205C23.4084 5.345 23.2584 5.52 23.0784 5.73C22.8984 5.94 22.7184 6.15 22.5384 6.36C22.3584 6.57 22.1984 6.755 22.0584 6.915C21.9284 7.075 21.8534 7.17 21.8334 7.2C21.7834 7.27 21.7384 7.285 21.6984 7.245C21.6584 7.205 21.6684 7.155 21.7284 7.095C21.8384 6.955 21.9734 6.79 22.1334 6.6C22.3034 6.4 22.4734 6.205 22.6434 6.015C22.8134 5.825 22.9584 5.665 23.0784 5.535C23.2084 5.395 23.2784 5.315 23.2884 5.295C23.3184 5.255 23.3434 5.185 23.3634 5.085C23.3934 4.985 23.4284 4.89 23.4684 4.8C23.5184 4.71 23.5784 4.665 23.6484 4.665C23.8184 4.665 23.9034 4.725 23.9034 4.845C23.9034 4.935 23.8334 5.045 23.6934 5.175C23.5634 5.305 23.4884 5.41 23.4684 5.49C23.4384 5.61 23.4384 5.78 23.4684 6C23.5084 6.21 23.5484 6.45 23.5884 6.72C23.6384 6.99 23.6634 7.275 23.6634 7.575C23.6634 7.975 23.5834 8.3 23.4234 8.55C23.2634 8.79 23.0634 8.975 22.8234 9.105C22.5834 9.235 22.3334 9.32 22.0734 9.36C21.8234 9.41 21.5984 9.435 21.3984 9.435ZM23.7084 8.4C23.4484 8.4 23.2784 8.35 23.1984 8.25C23.1284 8.15 23.1034 8.035 23.1234 7.905C23.1534 7.765 23.1884 7.64 23.2284 7.53L23.3784 7.545C23.3484 7.645 23.3184 7.75 23.2884 7.86C23.2684 7.97 23.2834 8.065 23.3334 8.145C23.3834 8.225 23.5134 8.265 23.7234 8.265C23.8734 8.265 24.0434 8.195 24.2334 8.055C24.4234 7.915 24.6084 7.745 24.7884 7.545C24.9784 7.345 25.1384 7.15 25.2684 6.96L25.4034 7.065C25.2734 7.225 25.1134 7.41 24.9234 7.62C24.7434 7.83 24.5484 8.015 24.3384 8.175C24.1284 8.325 23.9184 8.4 23.7084 8.4ZM27.8572 5.265C28.3572 5.265 28.6072 5.505 28.6072 5.985C28.6072 6.355 28.5222 6.735 28.3522 7.125C28.1822 7.505 27.9522 7.855 27.6622 8.175C27.3722 8.485 27.0572 8.74 26.7172 8.94C26.3772 9.13 26.0322 9.225 25.6822 9.225C25.4122 9.225 25.1872 9.16 25.0072 9.03C24.8172 8.89 24.7222 8.665 24.7222 8.355C24.7222 8.065 24.8072 7.745 24.9772 7.395C25.1472 7.035 25.3772 6.695 25.6672 6.375C25.9672 6.055 26.3022 5.79 26.6722 5.58C27.0522 5.37 27.4472 5.265 27.8572 5.265ZM28.0222 5.475C27.8522 5.475 27.6522 5.55 27.4222 5.7C27.1922 5.85 26.9572 6.045 26.7172 6.285C26.4772 6.525 26.2522 6.785 26.0422 7.065C25.8422 7.335 25.6772 7.6 25.5472 7.86C25.4272 8.12 25.3672 8.34 25.3672 8.52C25.3672 8.72 25.4222 8.86 25.5322 8.94C25.6422 9.01 25.7672 9.045 25.9072 9.045C26.1372 9.045 26.3972 8.95 26.6872 8.76C26.9772 8.56 27.2572 8.31 27.5272 8.01C27.7972 7.71 28.0172 7.395 28.1872 7.065C28.3672 6.725 28.4572 6.415 28.4572 6.135C28.4572 5.875 28.4122 5.7 28.3222 5.61C28.2322 5.52 28.1322 5.475 28.0222 5.475ZM28.2922 7.02C28.3422 7.02 28.3622 7.04 28.3522 7.08C28.3522 7.11 28.3272 7.125 28.2772 7.125C28.2372 7.125 28.1772 7.18 28.0972 7.29C28.0272 7.39 27.9622 7.495 27.9022 7.605C27.8422 7.715 27.8122 7.775 27.8122 7.785C27.8122 8.015 27.8972 8.13 28.0672 8.13C28.2272 8.13 28.4072 8.055 28.6072 7.905C28.8172 7.755 29.0172 7.585 29.2072 7.395C29.4072 7.195 29.5672 7.02 29.6872 6.87L29.8072 6.975C29.6772 7.125 29.5122 7.305 29.3122 7.515C29.1122 7.715 28.9022 7.895 28.6822 8.055C28.4622 8.205 28.2572 8.28 28.0672 8.28C27.9072 8.28 27.7972 8.245 27.7372 8.175C27.6772 8.105 27.6472 7.98 27.6472 7.8C27.6472 7.56 27.7272 7.37 27.8872 7.23C28.0572 7.09 28.1922 7.02 28.2922 7.02ZM32.5664 6.405C32.4264 6.405 32.3214 6.375 32.2514 6.315C32.1914 6.245 32.1614 6.165 32.1614 6.075C32.1614 5.985 32.1964 5.9 32.2664 5.82C32.3464 5.73 32.4514 5.685 32.5814 5.685C32.6614 5.685 32.7314 5.695 32.7914 5.715C32.8514 5.735 32.8814 5.745 32.8814 5.745C32.8914 5.645 32.8664 5.56 32.8064 5.49C32.7464 5.41 32.6314 5.37 32.4614 5.37C32.3014 5.37 32.1064 5.44 31.8764 5.58C31.6464 5.72 31.4064 5.905 31.1564 6.135C30.9164 6.365 30.6864 6.615 30.4664 6.885C30.2564 7.155 30.0864 7.43 29.9564 7.71C29.8264 7.98 29.7614 8.225 29.7614 8.445C29.7614 8.695 29.8414 8.86 30.0014 8.94C30.1614 9.02 30.3364 9.06 30.5264 9.06C30.8864 9.06 31.2414 8.975 31.5914 8.805C31.9414 8.625 32.2614 8.41 32.5514 8.16C32.8514 7.9 33.1064 7.65 33.3164 7.41C33.5264 7.17 33.6764 6.985 33.7664 6.855L33.9014 6.945C33.8214 7.065 33.6714 7.25 33.4514 7.5C33.2314 7.75 32.9614 8.01 32.6414 8.28C32.3314 8.54 31.9864 8.765 31.6064 8.955C31.2264 9.135 30.8264 9.225 30.4064 9.225C30.0664 9.225 29.7814 9.15 29.5514 9C29.3114 8.84 29.1914 8.595 29.1914 8.265C29.1914 7.985 29.2714 7.675 29.4314 7.335C29.5914 6.985 29.8114 6.655 30.0914 6.345C30.3814 6.025 30.7214 5.765 31.1114 5.565C31.5114 5.355 31.9514 5.25 32.4314 5.25C32.6214 5.25 32.7864 5.29 32.9264 5.37C33.0664 5.45 33.1364 5.59 33.1364 5.79C33.1364 5.97 33.0714 6.12 32.9414 6.24C32.8214 6.35 32.6964 6.405 32.5664 6.405ZM33.4583 9.225C33.3183 9.225 33.1633 9.185 32.9933 9.105C32.8133 9.035 32.7233 8.915 32.7233 8.745C32.7233 8.535 32.8183 8.27 33.0083 7.95C33.1983 7.63 33.4333 7.3 33.7133 6.96C33.9833 6.62 34.2483 6.3 34.5083 6C34.7683 5.7 34.9633 5.465 35.0933 5.295C35.2033 5.305 35.3333 5.31 35.4833 5.31C35.6433 5.31 35.7833 5.305 35.9033 5.295C35.7633 5.465 35.5783 5.68 35.3483 5.94C35.1283 6.2 34.8933 6.48 34.6433 6.78C34.4033 7.07 34.1683 7.355 33.9383 7.635C33.7183 7.915 33.5383 8.165 33.3983 8.385C33.2583 8.605 33.1883 8.765 33.1883 8.865C33.1883 8.935 33.2183 8.985 33.2783 9.015C33.3383 9.045 33.4383 9.06 33.5783 9.06C33.8183 9.06 34.0833 8.97 34.3733 8.79C34.6733 8.6 34.9633 8.375 35.2433 8.115C35.5233 7.855 35.7733 7.61 35.9933 7.38C36.2133 7.14 36.3683 6.965 36.4583 6.855L36.5783 6.96C36.4883 7.06 36.3333 7.235 36.1133 7.485C35.9033 7.725 35.6483 7.98 35.3483 8.25C35.0583 8.52 34.7483 8.75 34.4183 8.94C34.0983 9.13 33.7783 9.225 33.4583 9.225ZM36.4583 4.155C36.3383 4.155 36.2483 4.12 36.1883 4.05C36.1283 3.97 36.0983 3.88 36.0983 3.78C36.0983 3.67 36.1583 3.555 36.2783 3.435C36.3983 3.315 36.5233 3.255 36.6533 3.255C36.7933 3.255 36.8933 3.295 36.9533 3.375C37.0133 3.445 37.0433 3.515 37.0433 3.585C37.0433 3.735 36.9833 3.87 36.8633 3.99C36.7433 4.1 36.6083 4.155 36.4583 4.155ZM39.709 6.465C39.669 6.545 39.609 6.615 39.529 6.675C39.459 6.735 39.404 6.775 39.364 6.795C39.334 6.805 39.344 6.775 39.394 6.705C39.574 6.485 39.689 6.28 39.739 6.09C39.799 5.9 39.799 5.75 39.739 5.64C39.689 5.52 39.589 5.46 39.439 5.46C39.239 5.46 39.004 5.54 38.734 5.7C38.464 5.86 38.184 6.07 37.894 6.33C37.614 6.59 37.349 6.87 37.099 7.17C36.859 7.46 36.664 7.745 36.514 8.025C36.364 8.295 36.289 8.53 36.289 8.73C36.289 8.88 36.319 8.975 36.379 9.015C36.439 9.055 36.499 9.075 36.559 9.075C36.789 9.075 37.054 8.97 37.354 8.76C37.664 8.54 37.979 8.265 38.299 7.935C38.619 7.605 38.924 7.27 39.214 6.93C39.504 6.58 39.754 6.265 39.964 5.985C40.184 5.705 40.334 5.515 40.414 5.415C40.524 5.455 40.654 5.47 40.804 5.46C40.964 5.45 41.099 5.44 41.209 5.43C41.189 5.46 41.084 5.585 40.894 5.805C40.714 6.025 40.494 6.29 40.234 6.6C39.984 6.9 39.729 7.21 39.469 7.53C39.219 7.85 39.009 8.13 38.839 8.37C38.669 8.61 38.584 8.77 38.584 8.85C38.584 8.95 38.604 9.015 38.644 9.045C38.694 9.065 38.769 9.075 38.869 9.075C38.989 9.065 39.164 9.01 39.394 8.91C39.624 8.8 39.919 8.59 40.279 8.28C40.639 7.97 41.074 7.51 41.584 6.9C41.584 6.9 41.604 6.915 41.644 6.945C41.694 6.975 41.719 6.99 41.719 6.99C41.119 7.69 40.564 8.24 40.054 8.64C39.544 9.03 39.079 9.225 38.659 9.225C38.439 9.225 38.289 9.19 38.209 9.12C38.139 9.05 38.104 8.95 38.104 8.82C38.104 8.72 38.144 8.6 38.224 8.46C38.314 8.31 38.414 8.165 38.524 8.025C38.634 7.885 38.724 7.775 38.794 7.695C38.794 7.695 38.784 7.69 38.764 7.68C38.744 7.67 38.734 7.665 38.734 7.665C38.504 7.945 38.259 8.205 37.999 8.445C37.739 8.685 37.479 8.875 37.219 9.015C36.969 9.155 36.724 9.225 36.484 9.225C36.234 9.225 36.059 9.165 35.959 9.045C35.859 8.915 35.809 8.72 35.809 8.46C35.809 8.21 35.889 7.91 36.049 7.56C36.209 7.2 36.439 6.85 36.739 6.51C37.039 6.16 37.399 5.87 37.819 5.64C38.249 5.41 38.729 5.295 39.259 5.295C39.519 5.295 39.699 5.345 39.799 5.445C39.899 5.535 39.944 5.645 39.934 5.775C39.924 5.905 39.894 6.035 39.844 6.165C39.794 6.295 39.749 6.395 39.709 6.465ZM46.3806 -3.75509e-06C46.4906 0.019996 46.6256 0.0299959 46.7856 0.0299959C46.9556 0.0299959 47.0906 0.019996 47.1906 -3.75509e-06L41.9706 7.275C41.8106 7.515 41.6556 7.74 41.5056 7.95C41.3556 8.16 41.2356 8.345 41.1456 8.505C41.0456 8.655 40.9956 8.775 40.9956 8.865C40.9956 8.935 41.0256 8.985 41.0856 9.015C41.1356 9.045 41.2106 9.06 41.3106 9.06C41.5406 9.06 41.7956 8.98 42.0756 8.82C42.3556 8.65 42.6306 8.44 42.9006 8.19C43.1806 7.94 43.4356 7.695 43.6656 7.455C43.9056 7.215 44.0956 7.02 44.2356 6.87L44.3406 6.96C44.2106 7.1 44.0306 7.295 43.8006 7.545C43.5706 7.795 43.3056 8.05 43.0056 8.31C42.7156 8.56 42.4106 8.775 42.0906 8.955C41.7806 9.135 41.4756 9.225 41.1756 9.225C41.0156 9.225 40.8806 9.18 40.7706 9.09C40.6506 9 40.5906 8.87 40.5906 8.7C40.5906 8.59 40.6306 8.45 40.7106 8.28C40.7906 8.11 40.8906 7.935 41.0106 7.755C41.1206 7.565 41.2306 7.395 41.3406 7.245C41.4406 7.085 41.5206 6.965 41.5806 6.885L46.3806 -3.75509e-06ZM43.7373 9.435C43.3873 9.435 43.1223 9.37 42.9423 9.24C42.7623 9.11 42.6723 8.935 42.6723 8.715C42.6723 8.555 42.7273 8.415 42.8373 8.295C42.9373 8.165 43.0573 8.065 43.1973 7.995C43.3373 7.915 43.4473 7.875 43.5273 7.875C43.6373 7.875 43.7123 7.9 43.7523 7.95C43.7823 7.99 43.7973 8.035 43.7973 8.085C43.7973 8.165 43.7523 8.23 43.6623 8.28C43.5623 8.33 43.4823 8.355 43.4223 8.355C43.3523 8.355 43.2923 8.335 43.2423 8.295C43.1823 8.245 43.1523 8.22 43.1523 8.22C43.1023 8.23 43.0323 8.285 42.9423 8.385C42.8523 8.485 42.8073 8.595 42.8073 8.715C42.8073 8.835 42.8723 8.95 43.0023 9.06C43.1323 9.17 43.3423 9.225 43.6323 9.225C43.9323 9.225 44.2173 9.125 44.4873 8.925C44.7673 8.725 44.9973 8.47 45.1773 8.16C45.3573 7.85 45.4473 7.535 45.4473 7.215C45.4473 7.105 45.4473 6.96 45.4473 6.78C45.4473 6.59 45.4473 6.435 45.4473 6.315C45.4473 6.165 45.4723 5.995 45.5223 5.805C45.5723 5.605 45.6273 5.42 45.6873 5.25C45.7573 5.08 45.8123 4.975 45.8523 4.935C45.9323 4.865 45.9923 4.845 46.0323 4.875C46.0723 4.905 46.0823 4.935 46.0623 4.965C46.0523 4.975 45.9873 5.055 45.8673 5.205C45.7473 5.345 45.5973 5.52 45.4173 5.73C45.2373 5.94 45.0573 6.15 44.8773 6.36C44.6973 6.57 44.5373 6.755 44.3973 6.915C44.2673 7.075 44.1923 7.17 44.1723 7.2C44.1223 7.27 44.0773 7.285 44.0373 7.245C43.9973 7.205 44.0073 7.155 44.0673 7.095C44.1773 6.955 44.3123 6.79 44.4723 6.6C44.6423 6.4 44.8123 6.205 44.9823 6.015C45.1523 5.825 45.2973 5.665 45.4173 5.535C45.5473 5.395 45.6173 5.315 45.6273 5.295C45.6573 5.255 45.6823 5.185 45.7023 5.085C45.7323 4.985 45.7673 4.89 45.8073 4.8C45.8573 4.71 45.9173 4.665 45.9873 4.665C46.1573 4.665 46.2423 4.725 46.2423 4.845C46.2423 4.935 46.1723 5.045 46.0323 5.175C45.9023 5.305 45.8273 5.41 45.8073 5.49C45.7773 5.61 45.7773 5.78 45.8073 6C45.8473 6.21 45.8873 6.45 45.9273 6.72C45.9773 6.99 46.0023 7.275 46.0023 7.575C46.0023 7.975 45.9223 8.3 45.7623 8.55C45.6023 8.79 45.4023 8.975 45.1623 9.105C44.9223 9.235 44.6723 9.32 44.4123 9.36C44.1623 9.41 43.9373 9.435 43.7373 9.435ZM46.0473 8.4C45.7873 8.4 45.6173 8.35 45.5373 8.25C45.4673 8.15 45.4423 8.035 45.4623 7.905C45.4923 7.765 45.5273 7.64 45.5673 7.53L45.7173 7.545C45.6873 7.645 45.6573 7.75 45.6273 7.86C45.6073 7.97 45.6223 8.065 45.6723 8.145C45.7223 8.225 45.8523 8.265 46.0623 8.265C46.2123 8.265 46.3823 8.195 46.5723 8.055C46.7623 7.915 46.9473 7.745 47.1273 7.545C47.3173 7.345 47.4773 7.15 47.6073 6.96L47.7423 7.065C47.6123 7.225 47.4523 7.41 47.2623 7.62C47.0823 7.83 46.8873 8.015 46.6773 8.175C46.4673 8.325 46.2573 8.4 46.0473 8.4Z" fill="#BB8ED0"/>
</svg>
