<svg width="34" height="13" viewBox="0 0 34 13" fill="none" xmlns="http://www.w3.org/2000/svg">
<path d="M1.185 8.13C0.834998 8.13 0.574998 8.08 0.404998 7.98C0.234997 7.87 0.124997 7.75 0.0749975 7.62C0.0249975 7.49 -2.49594e-06 7.39 -2.49594e-06 7.32C-2.49594e-06 7.19 0.0449975 7.08 0.134998 6.99C0.224998 6.9 0.349998 6.855 0.509998 6.855C0.589998 6.855 0.664998 6.88 0.734998 6.93C0.794998 6.97 0.824998 7.035 0.824998 7.125C0.824998 7.225 0.789998 7.3 0.719998 7.35C0.649998 7.39 0.569998 7.41 0.479998 7.41C0.409998 7.41 0.349998 7.405 0.299997 7.395C0.249998 7.375 0.224998 7.365 0.224998 7.365C0.224998 7.495 0.289998 7.63 0.419998 7.77C0.549998 7.9 0.769998 7.965 1.08 7.965C1.54 7.965 1.96 7.835 2.34 7.575C2.72 7.305 3.08 6.96 3.42 6.54C3.76 6.12 4.095 5.67 4.425 5.19C4.755 4.71 5.1 4.25 5.46 3.81C5.94 3.22 6.43 2.67 6.93 2.16C7.43 1.64 7.94 1.195 8.46 0.825003C8.98 0.445002 9.51 0.180002 10.05 0.0300025C10.13 0.0100021 10.175 0.0250022 10.185 0.0750028C10.195 0.125003 10.16 0.160003 10.08 0.180002C9.65 0.300003 9.23 0.530003 8.82 0.870002C8.41 1.21 8.005 1.625 7.605 2.115C7.215 2.595 6.82 3.11 6.42 3.66C6.03 4.2 5.63 4.735 5.22 5.265C4.82 5.795 4.405 6.275 3.975 6.705C3.545 7.135 3.1 7.48 2.64 7.74C2.18 8 1.695 8.13 1.185 8.13ZM6.495 4.845C5.905 4.845 5.445 4.765 5.115 4.605C4.785 4.445 4.62 4.23 4.62 3.96C4.62 3.82 4.665 3.71 4.755 3.63C4.845 3.54 4.945 3.48 5.055 3.45C5.175 3.41 5.27 3.39 5.34 3.39C5.4 3.39 5.43 3.41 5.43 3.45C5.43 3.48 5.405 3.5 5.355 3.51C5.225 3.53 5.105 3.595 4.995 3.705C4.895 3.805 4.845 3.9 4.845 3.99C4.845 4.12 4.97 4.27 5.22 4.44C5.48 4.61 5.88 4.695 6.42 4.695C6.69 4.695 7 4.635 7.35 4.515C7.7 4.385 8.035 4.195 8.355 3.945C8.685 3.685 8.955 3.37 9.165 3C9.375 2.62 9.48 2.18 9.48 1.68C9.48 1.12 9.23 0.725002 8.73 0.495003C8.24 0.255002 7.565 0.135002 6.705 0.135002C5.995 0.135002 5.32 0.240002 4.68 0.450002C4.04 0.660002 3.47 0.930002 2.97 1.26C2.48 1.59 2.09 1.945 1.8 2.325C1.52 2.705 1.38 3.065 1.38 3.405C1.38 3.745 1.46 3.99 1.62 4.14C1.79 4.29 1.99 4.365 2.22 4.365C2.5 4.365 2.78 4.28 3.06 4.11C3.35 3.93 3.62 3.705 3.87 3.435C4.12 3.155 4.345 2.865 4.545 2.565C4.745 2.255 4.905 1.97 5.025 1.71C5.145 1.45 5.21 1.25 5.22 1.11C5.23 1.01 5.25 0.960003 5.28 0.960003C5.32 0.960003 5.345 0.995003 5.355 1.065C5.385 1.375 5.33 1.73 5.19 2.13C5.06 2.52 4.855 2.9 4.575 3.27C4.305 3.63 3.97 3.93 3.57 4.17C3.17 4.41 2.725 4.53 2.235 4.53C1.925 4.53 1.675 4.435 1.485 4.245C1.295 4.045 1.2 3.76 1.2 3.39C1.2 3.03 1.345 2.655 1.635 2.265C1.925 1.865 2.325 1.495 2.835 1.155C3.345 0.815003 3.93 0.540002 4.59 0.330002C5.26 0.110002 5.965 1.96695e-06 6.705 1.96695e-06C7.575 1.96695e-06 8.26 0.100002 8.76 0.300003C9.27 0.500002 9.63 0.765002 9.84 1.095C10.06 1.415 10.17 1.755 10.17 2.115C10.17 2.395 10.075 2.695 9.885 3.015C9.705 3.335 9.45 3.635 9.12 3.915C8.79 4.185 8.4 4.41 7.95 4.59C7.51 4.76 7.025 4.845 6.495 4.845ZM8.80219 6.03C8.76219 6.07 8.73219 6.075 8.71219 6.045C8.69219 6.005 8.68719 5.965 8.69719 5.925C8.86719 5.755 9.03219 5.555 9.19219 5.325C9.36219 5.095 9.50219 4.88 9.61219 4.68C9.73219 4.48 9.80219 4.345 9.82219 4.275C9.84219 4.275 9.87219 4.26 9.91219 4.23C9.96219 4.2 10.0072 4.19 10.0472 4.2C10.0372 4.27 10.0222 4.335 10.0022 4.395C9.99219 4.455 10.0272 4.51 10.1072 4.56C10.1872 4.61 10.3522 4.66 10.6022 4.71C10.8522 4.76 11.2322 4.815 11.7422 4.875C11.7922 4.885 11.8272 4.905 11.8472 4.935C11.8772 4.955 11.8622 4.99 11.8022 5.04C11.6122 5.19 11.4022 5.38 11.1722 5.61C10.9422 5.84 10.7172 6.085 10.4972 6.345C10.2872 6.595 10.1122 6.84 9.97219 7.08C9.84219 7.32 9.77719 7.52 9.77719 7.68C9.77719 7.86 9.85719 7.95 10.0172 7.95C10.2172 7.95 10.4422 7.87 10.6922 7.71C10.9522 7.55 11.2122 7.355 11.4722 7.125C11.7322 6.885 11.9722 6.645 12.1922 6.405C12.4222 6.155 12.6122 5.95 12.7622 5.79L12.8822 5.88C12.7422 6.02 12.5622 6.215 12.3422 6.465C12.1222 6.715 11.8722 6.97 11.5922 7.23C11.3222 7.48 11.0322 7.695 10.7222 7.875C10.4122 8.045 10.0922 8.13 9.76219 8.13C9.57219 8.13 9.40219 8.085 9.25219 7.995C9.10219 7.915 9.02719 7.765 9.02719 7.545C9.02719 7.335 9.11719 7.115 9.29719 6.885C9.47719 6.655 9.70219 6.425 9.97219 6.195C10.2422 5.955 10.5222 5.73 10.8122 5.52C11.1122 5.3 11.3772 5.1 11.6072 4.92L11.7122 5.055C11.6122 5.015 11.4372 4.98 11.1872 4.95C10.9372 4.91 10.6772 4.86 10.4072 4.8C10.1372 4.73 9.90219 4.64 9.70219 4.53C9.51219 4.42 9.41719 4.27 9.41719 4.08C9.41719 3.98 9.45719 3.86 9.53719 3.72C9.62719 3.57 9.74719 3.495 9.89719 3.495C10.0372 3.495 10.1322 3.525 10.1822 3.585C10.2322 3.635 10.2572 3.705 10.2572 3.795C10.2572 3.855 10.2072 3.98 10.1072 4.17C10.0072 4.35 9.88219 4.565 9.73219 4.815C9.58219 5.055 9.42219 5.285 9.25219 5.505C9.09219 5.725 8.94219 5.9 8.80219 6.03ZM15.3376 4.17C15.8376 4.17 16.0876 4.41 16.0876 4.89C16.0876 5.26 16.0026 5.64 15.8326 6.03C15.6626 6.41 15.4326 6.76 15.1426 7.08C14.8526 7.39 14.5376 7.645 14.1976 7.845C13.8576 8.035 13.5126 8.13 13.1626 8.13C12.8926 8.13 12.6676 8.065 12.4876 7.935C12.2976 7.795 12.2026 7.57 12.2026 7.26C12.2026 6.97 12.2876 6.65 12.4576 6.3C12.6276 5.94 12.8576 5.6 13.1476 5.28C13.4476 4.96 13.7826 4.695 14.1526 4.485C14.5326 4.275 14.9276 4.17 15.3376 4.17ZM15.5026 4.38C15.3326 4.38 15.1326 4.455 14.9026 4.605C14.6726 4.755 14.4376 4.95 14.1976 5.19C13.9576 5.43 13.7326 5.69 13.5226 5.97C13.3226 6.24 13.1576 6.505 13.0276 6.765C12.9076 7.025 12.8476 7.245 12.8476 7.425C12.8476 7.625 12.9026 7.765 13.0126 7.845C13.1226 7.915 13.2476 7.95 13.3876 7.95C13.6176 7.95 13.8776 7.855 14.1676 7.665C14.4576 7.465 14.7376 7.215 15.0076 6.915C15.2776 6.615 15.4976 6.3 15.6676 5.97C15.8476 5.63 15.9376 5.32 15.9376 5.04C15.9376 4.78 15.8926 4.605 15.8026 4.515C15.7126 4.425 15.6126 4.38 15.5026 4.38ZM15.7726 5.925C15.8226 5.925 15.8426 5.945 15.8326 5.985C15.8326 6.015 15.8076 6.03 15.7576 6.03C15.7176 6.03 15.6576 6.085 15.5776 6.195C15.5076 6.295 15.4426 6.4 15.3826 6.51C15.3226 6.62 15.2926 6.68 15.2926 6.69C15.2926 6.92 15.3776 7.035 15.5476 7.035C15.7076 7.035 15.8876 6.96 16.0876 6.81C16.2976 6.66 16.4976 6.49 16.6876 6.3C16.8876 6.1 17.0476 5.925 17.1676 5.775L17.2876 5.88C17.1576 6.03 16.9926 6.21 16.7926 6.42C16.5926 6.62 16.3826 6.8 16.1626 6.96C15.9426 7.11 15.7376 7.185 15.5476 7.185C15.3876 7.185 15.2776 7.15 15.2176 7.08C15.1576 7.01 15.1276 6.885 15.1276 6.705C15.1276 6.465 15.2076 6.275 15.3676 6.135C15.5376 5.995 15.6726 5.925 15.7726 5.925ZM10.5368 12.66C10.3168 12.66 10.1668 12.62 10.0868 12.54C10.0068 12.46 9.96679 12.35 9.96679 12.21C9.96679 12.01 10.0918 11.79 10.3418 11.55C10.5918 11.32 10.9318 11.075 11.3618 10.815C11.7918 10.565 12.2868 10.315 12.8468 10.065C13.3968 9.815 13.9768 9.57 14.5868 9.33C15.4068 9.01 16.1018 8.69 16.6718 8.37C17.2318 8.05 17.7318 7.685 18.1718 7.275C18.6118 6.855 19.0518 6.36 19.4918 5.79L19.5968 5.88C19.1568 6.46 18.7118 6.96 18.2618 7.38C17.8118 7.79 17.3018 8.16 16.7318 8.49C16.1618 8.82 15.4668 9.145 14.6468 9.465C14.0568 9.695 13.4968 9.93 12.9668 10.17C12.4268 10.42 11.9468 10.665 11.5268 10.905C11.1068 11.145 10.7768 11.375 10.5368 11.595C10.2868 11.815 10.1618 12.025 10.1618 12.225C10.1618 12.335 10.2018 12.41 10.2818 12.45C10.3518 12.49 10.4568 12.51 10.5968 12.51C10.9268 12.51 11.2718 12.39 11.6318 12.15C11.9918 11.91 12.3668 11.585 12.7568 11.175C13.1468 10.775 13.5468 10.325 13.9568 9.825C14.3568 9.325 14.7568 8.82 15.1568 8.31C15.5168 7.85 15.8768 7.4 16.2368 6.96C16.5868 6.52 16.9068 6.115 17.1968 5.745C17.4968 5.365 17.7368 5.04 17.9168 4.77C18.0968 4.5 18.1918 4.31 18.2018 4.2C18.2818 4.21 18.4118 4.225 18.5918 4.245C18.7818 4.255 18.9568 4.245 19.1168 4.215C18.7268 4.725 18.2368 5.375 17.6468 6.165C17.0668 6.945 16.4268 7.75 15.7268 8.58C15.3268 9.06 14.9318 9.54 14.5418 10.02C14.1418 10.5 13.7368 10.94 13.3268 11.34C12.9068 11.74 12.4718 12.06 12.0218 12.3C11.5618 12.54 11.0668 12.66 10.5368 12.66ZM19.5668 3.075C19.4468 3.075 19.3568 3.04 19.2968 2.97C19.2368 2.89 19.2068 2.8 19.2068 2.7C19.2068 2.59 19.2668 2.475 19.3868 2.355C19.5068 2.235 19.6318 2.175 19.7618 2.175C19.9018 2.175 20.0018 2.215 20.0618 2.295C20.1218 2.365 20.1518 2.435 20.1518 2.505C20.1518 2.655 20.0918 2.79 19.9718 2.91C19.8518 3.02 19.7168 3.075 19.5668 3.075ZM20.2005 8.13C19.7305 8.13 19.4205 8.025 19.2705 7.815C19.1205 7.595 19.0455 7.365 19.0455 7.125C19.0455 6.715 19.1505 6.335 19.3605 5.985C19.5705 5.625 19.8405 5.305 20.1705 5.025C20.5005 4.745 20.8405 4.53 21.1905 4.38C21.5505 4.22 21.8705 4.14 22.1505 4.14C22.3505 4.14 22.5105 4.17 22.6305 4.23C22.7505 4.28 22.8105 4.39 22.8105 4.56C22.8105 4.72 22.7155 4.89 22.5255 5.07C22.3355 5.25 22.0955 5.425 21.8055 5.595C21.5155 5.755 21.2105 5.905 20.8905 6.045C20.5805 6.175 20.2955 6.28 20.0355 6.36C19.7755 6.44 19.5855 6.48 19.4655 6.48C19.4655 6.48 19.4655 6.455 19.4655 6.405C19.4655 6.345 19.4655 6.315 19.4655 6.315C19.5555 6.325 19.7105 6.295 19.9305 6.225C20.1605 6.155 20.4155 6.065 20.6955 5.955C20.9755 5.835 21.2455 5.7 21.5055 5.55C21.7755 5.4 21.9955 5.24 22.1655 5.07C22.3455 4.9 22.4355 4.735 22.4355 4.575C22.4355 4.495 22.4105 4.425 22.3605 4.365C22.3205 4.305 22.2455 4.275 22.1355 4.275C21.9755 4.275 21.7805 4.355 21.5505 4.515C21.3305 4.665 21.1055 4.865 20.8755 5.115C20.6455 5.365 20.4305 5.63 20.2305 5.91C20.0305 6.19 19.8655 6.46 19.7355 6.72C19.6155 6.97 19.5555 7.18 19.5555 7.35C19.5555 7.55 19.6155 7.7 19.7355 7.8C19.8555 7.9 20.0305 7.95 20.2605 7.95C20.6605 7.95 21.0355 7.855 21.3855 7.665C21.7455 7.465 22.0705 7.235 22.3605 6.975C22.6505 6.705 22.8955 6.455 23.0955 6.225C23.2955 5.985 23.4305 5.83 23.5005 5.76C23.5005 5.76 23.5155 5.775 23.5455 5.805C23.5855 5.835 23.6055 5.85 23.6055 5.85C23.5355 5.93 23.4005 6.09 23.2005 6.33C23.0005 6.57 22.7505 6.83 22.4505 7.11C22.1505 7.39 21.8105 7.63 21.4305 7.83C21.0505 8.03 20.6405 8.13 20.2005 8.13ZM26.3603 5.31C26.2203 5.31 26.1153 5.28 26.0453 5.22C25.9853 5.15 25.9553 5.07 25.9553 4.98C25.9553 4.89 25.9903 4.805 26.0603 4.725C26.1403 4.635 26.2453 4.59 26.3753 4.59C26.4553 4.59 26.5253 4.6 26.5853 4.62C26.6453 4.64 26.6753 4.65 26.6753 4.65C26.6853 4.55 26.6603 4.465 26.6003 4.395C26.5403 4.315 26.4253 4.275 26.2553 4.275C26.0953 4.275 25.9003 4.345 25.6703 4.485C25.4403 4.625 25.2003 4.81 24.9503 5.04C24.7103 5.27 24.4803 5.52 24.2603 5.79C24.0503 6.06 23.8803 6.335 23.7503 6.615C23.6203 6.885 23.5553 7.13 23.5553 7.35C23.5553 7.6 23.6353 7.765 23.7953 7.845C23.9553 7.925 24.1303 7.965 24.3203 7.965C24.6803 7.965 25.0353 7.88 25.3853 7.71C25.7353 7.53 26.0553 7.315 26.3453 7.065C26.6453 6.805 26.9003 6.555 27.1103 6.315C27.3203 6.075 27.4703 5.89 27.5603 5.76L27.6953 5.85C27.6153 5.97 27.4653 6.155 27.2453 6.405C27.0253 6.655 26.7553 6.915 26.4353 7.185C26.1253 7.445 25.7803 7.67 25.4003 7.86C25.0203 8.04 24.6203 8.13 24.2003 8.13C23.8603 8.13 23.5753 8.055 23.3453 7.905C23.1053 7.745 22.9853 7.5 22.9853 7.17C22.9853 6.89 23.0653 6.58 23.2253 6.24C23.3853 5.89 23.6053 5.56 23.8853 5.25C24.1753 4.93 24.5153 4.67 24.9053 4.47C25.3053 4.26 25.7453 4.155 26.2253 4.155C26.4153 4.155 26.5803 4.195 26.7203 4.275C26.8603 4.355 26.9303 4.495 26.9303 4.695C26.9303 4.875 26.8653 5.025 26.7353 5.145C26.6153 5.255 26.4903 5.31 26.3603 5.31ZM30.5672 1.515C30.6572 1.555 30.7872 1.575 30.9572 1.575C31.1372 1.565 31.2772 1.55 31.3772 1.53C31.0572 1.97 30.7022 2.455 30.3122 2.985C29.9222 3.515 29.5272 4.045 29.1272 4.575C28.7372 5.095 28.3722 5.585 28.0322 6.045C27.7022 6.495 27.4372 6.875 27.2372 7.185C27.0372 7.495 26.9372 7.69 26.9372 7.77C26.9372 7.83 26.9722 7.875 27.0422 7.905C27.1022 7.935 27.1822 7.95 27.2822 7.95C27.5022 7.95 27.7422 7.875 28.0022 7.725C28.2722 7.565 28.5372 7.37 28.7972 7.14C29.0672 6.9 29.3122 6.66 29.5322 6.42C29.7622 6.17 29.9422 5.955 30.0722 5.775L30.1922 5.865C30.0522 6.045 29.8672 6.26 29.6372 6.51C29.4072 6.76 29.1522 7.01 28.8722 7.26C28.5922 7.51 28.3022 7.72 28.0022 7.89C27.7122 8.05 27.4322 8.13 27.1622 8.13C26.9722 8.13 26.8222 8.09 26.7122 8.01C26.5922 7.94 26.5322 7.815 26.5322 7.635C26.5322 7.475 26.6272 7.23 26.8172 6.9C27.0072 6.56 27.2522 6.17 27.5522 5.73C27.8622 5.29 28.1972 4.825 28.5572 4.335C28.9172 3.835 29.2722 3.345 29.6222 2.865C29.9822 2.375 30.2972 1.925 30.5672 1.515ZM28.9172 3.195C28.8172 3.195 28.7672 3.165 28.7672 3.105C28.7672 3.055 28.8172 3.03 28.9172 3.03H31.7672C31.7972 3.03 31.8272 3.035 31.8572 3.045C31.8972 3.055 31.9172 3.075 31.9172 3.105C31.9172 3.145 31.8972 3.17 31.8572 3.18C31.8272 3.19 31.7972 3.195 31.7672 3.195H28.9172ZM29.5624 8.34C29.2124 8.34 28.9474 8.275 28.7674 8.145C28.5874 8.015 28.4974 7.84 28.4974 7.62C28.4974 7.46 28.5524 7.32 28.6624 7.2C28.7624 7.07 28.8824 6.97 29.0224 6.9C29.1624 6.82 29.2724 6.78 29.3524 6.78C29.4624 6.78 29.5374 6.805 29.5774 6.855C29.6074 6.895 29.6224 6.94 29.6224 6.99C29.6224 7.07 29.5774 7.135 29.4874 7.185C29.3874 7.235 29.3074 7.26 29.2474 7.26C29.1774 7.26 29.1174 7.24 29.0674 7.2C29.0074 7.15 28.9774 7.125 28.9774 7.125C28.9274 7.135 28.8574 7.19 28.7674 7.29C28.6774 7.39 28.6324 7.5 28.6324 7.62C28.6324 7.74 28.6974 7.855 28.8274 7.965C28.9574 8.075 29.1674 8.13 29.4574 8.13C29.7574 8.13 30.0424 8.03 30.3124 7.83C30.5924 7.63 30.8224 7.375 31.0024 7.065C31.1824 6.755 31.2724 6.44 31.2724 6.12C31.2724 6.01 31.2724 5.865 31.2724 5.685C31.2724 5.495 31.2724 5.34 31.2724 5.22C31.2724 5.07 31.2974 4.9 31.3474 4.71C31.3974 4.51 31.4524 4.325 31.5124 4.155C31.5824 3.985 31.6374 3.88 31.6774 3.84C31.7574 3.77 31.8174 3.75 31.8574 3.78C31.8974 3.81 31.9074 3.84 31.8874 3.87C31.8774 3.88 31.8124 3.96 31.6924 4.11C31.5724 4.25 31.4224 4.425 31.2424 4.635C31.0624 4.845 30.8824 5.055 30.7024 5.265C30.5224 5.475 30.3624 5.66 30.2224 5.82C30.0924 5.98 30.0174 6.075 29.9974 6.105C29.9474 6.175 29.9024 6.19 29.8624 6.15C29.8224 6.11 29.8324 6.06 29.8924 6C30.0024 5.86 30.1374 5.695 30.2974 5.505C30.4674 5.305 30.6374 5.11 30.8074 4.92C30.9774 4.73 31.1224 4.57 31.2424 4.44C31.3724 4.3 31.4424 4.22 31.4524 4.2C31.4824 4.16 31.5074 4.09 31.5274 3.99C31.5574 3.89 31.5924 3.795 31.6324 3.705C31.6824 3.615 31.7424 3.57 31.8124 3.57C31.9824 3.57 32.0674 3.63 32.0674 3.75C32.0674 3.84 31.9974 3.95 31.8574 4.08C31.7274 4.21 31.6524 4.315 31.6324 4.395C31.6024 4.515 31.6024 4.685 31.6324 4.905C31.6724 5.115 31.7124 5.355 31.7524 5.625C31.8024 5.895 31.8274 6.18 31.8274 6.48C31.8274 6.88 31.7474 7.205 31.5874 7.455C31.4274 7.695 31.2274 7.88 30.9874 8.01C30.7474 8.14 30.4974 8.225 30.2374 8.265C29.9874 8.315 29.7624 8.34 29.5624 8.34ZM31.8724 7.305C31.6124 7.305 31.4424 7.255 31.3624 7.155C31.2924 7.055 31.2674 6.94 31.2874 6.81C31.3174 6.67 31.3524 6.545 31.3924 6.435L31.5424 6.45C31.5124 6.55 31.4824 6.655 31.4524 6.765C31.4324 6.875 31.4474 6.97 31.4974 7.05C31.5474 7.13 31.6774 7.17 31.8874 7.17C32.0374 7.17 32.2074 7.1 32.3974 6.96C32.5874 6.82 32.7724 6.65 32.9524 6.45C33.1424 6.25 33.3024 6.055 33.4324 5.865L33.5674 5.97C33.4374 6.13 33.2774 6.315 33.0874 6.525C32.9074 6.735 32.7124 6.92 32.5024 7.08C32.2924 7.23 32.0824 7.305 31.8724 7.305Z" fill="#BB8ED0"/>
</svg>
