<svg width="69" height="11" viewBox="0 0 69 11" fill="none" xmlns="http://www.w3.org/2000/svg">
<path d="M1.515 9.225C1.085 9.225 0.765001 9.165 0.555001 9.045C0.335001 8.925 0.190001 8.79 0.120001 8.64C0.0400009 8.48 8.71718e-07 8.34 8.71718e-07 8.22C8.71718e-07 8.11 0.0450009 8.01 0.135001 7.92C0.225001 7.82 0.345001 7.77 0.495001 7.77C0.715001 7.77 0.825001 7.86 0.825001 8.04C0.825001 8.13 0.790001 8.2 0.720001 8.25C0.650001 8.3 0.585001 8.325 0.525001 8.325C0.425001 8.325 0.350001 8.32 0.300001 8.31C0.250001 8.29 0.225001 8.28 0.225001 8.28C0.225001 8.32 0.245001 8.405 0.285001 8.535C0.325001 8.665 0.435001 8.785 0.615001 8.895C0.795001 9.005 1.095 9.06 1.515 9.06C2.025 9.06 2.495 8.94 2.925 8.7C3.355 8.46 3.735 8.165 4.065 7.815C4.405 7.465 4.695 7.115 4.935 6.765C5.175 6.415 5.365 6.13 5.505 5.91C5.665 5.67 5.88 5.38 6.15 5.04C6.43 4.7 6.74 4.355 7.08 4.005C7.42 3.655 7.765 3.335 8.115 3.045C8.475 2.745 8.815 2.515 9.135 2.355C9.215 2.315 9.26 2.33 9.27 2.4C9.28 2.46 9.26 2.5 9.21 2.52C8.91 2.67 8.6 2.94 8.28 3.33C7.97 3.71 7.64 4.155 7.29 4.665C6.95 5.165 6.585 5.68 6.195 6.21C5.805 6.74 5.375 7.235 4.905 7.695C4.435 8.155 3.92 8.525 3.36 8.805C2.81 9.085 2.195 9.225 1.515 9.225ZM4.665 4.725C4.295 4.725 4.035 4.64 3.885 4.47C3.745 4.3 3.675 4.09 3.675 3.84C3.675 3.57 3.785 3.285 4.005 2.985C4.235 2.675 4.54 2.385 4.92 2.115C5.31 1.845 5.755 1.63 6.255 1.47C6.755 1.3 7.275 1.215 7.815 1.215C8.225 1.215 8.615 1.24 8.985 1.29C9.365 1.33 9.73 1.375 10.08 1.425C10.44 1.465 10.785 1.485 11.115 1.485C11.545 1.485 11.895 1.425 12.165 1.305C12.445 1.175 12.66 1.035 12.81 0.884996C12.97 0.734996 13.085 0.614996 13.155 0.524996C13.235 0.414996 13.295 0.379996 13.335 0.419996C13.375 0.459996 13.375 0.514996 13.335 0.584996C13.325 0.614996 13.255 0.699996 13.125 0.839996C13.005 0.979996 12.82 1.14 12.57 1.32C12.32 1.49 11.995 1.64 11.595 1.77C11.205 1.9 10.735 1.965 10.185 1.965C9.665 1.965 9.24 1.935 8.91 1.875C8.59 1.805 8.295 1.74 8.025 1.68C7.755 1.62 7.445 1.59 7.095 1.59C6.715 1.59 6.33 1.665 5.94 1.815C5.56 1.955 5.21 2.14 4.89 2.37C4.57 2.6 4.31 2.85 4.11 3.12C3.92 3.38 3.825 3.63 3.825 3.87C3.825 4.09 3.88 4.26 3.99 4.38C4.11 4.49 4.315 4.545 4.605 4.545C4.785 4.545 4.995 4.48 5.235 4.35C5.475 4.21 5.71 4.025 5.94 3.795C6.18 3.555 6.395 3.29 6.585 3C6.785 2.71 6.935 2.415 7.035 2.115C7.055 2.035 7.08 2.01 7.11 2.04C7.15 2.07 7.17 2.125 7.17 2.205C7.16 2.485 7.08 2.775 6.93 3.075C6.79 3.365 6.6 3.635 6.36 3.885C6.13 4.135 5.865 4.34 5.565 4.5C5.275 4.65 4.975 4.725 4.665 4.725ZM11.136 5.265C11.636 5.265 11.886 5.505 11.886 5.985C11.886 6.355 11.801 6.735 11.631 7.125C11.461 7.505 11.231 7.855 10.941 8.175C10.651 8.485 10.336 8.74 9.99598 8.94C9.65598 9.13 9.31098 9.225 8.96098 9.225C8.69098 9.225 8.46598 9.16 8.28598 9.03C8.09598 8.89 8.00098 8.665 8.00098 8.355C8.00098 8.065 8.08598 7.745 8.25598 7.395C8.42598 7.035 8.65598 6.695 8.94598 6.375C9.24598 6.055 9.58098 5.79 9.95098 5.58C10.331 5.37 10.726 5.265 11.136 5.265ZM11.301 5.475C11.131 5.475 10.931 5.55 10.701 5.7C10.471 5.85 10.236 6.045 9.99598 6.285C9.75598 6.525 9.53098 6.785 9.32098 7.065C9.12098 7.335 8.95598 7.6 8.82598 7.86C8.70598 8.12 8.64598 8.34 8.64598 8.52C8.64598 8.72 8.70098 8.86 8.81098 8.94C8.92098 9.01 9.04598 9.045 9.18598 9.045C9.41598 9.045 9.67598 8.95 9.96598 8.76C10.256 8.56 10.536 8.31 10.806 8.01C11.076 7.71 11.296 7.395 11.466 7.065C11.646 6.725 11.736 6.415 11.736 6.135C11.736 5.875 11.691 5.7 11.601 5.61C11.511 5.52 11.411 5.475 11.301 5.475ZM11.571 7.02C11.621 7.02 11.641 7.04 11.631 7.08C11.631 7.11 11.606 7.125 11.556 7.125C11.516 7.125 11.456 7.18 11.376 7.29C11.306 7.39 11.241 7.495 11.181 7.605C11.121 7.715 11.091 7.775 11.091 7.785C11.091 8.015 11.176 8.13 11.346 8.13C11.506 8.13 11.686 8.055 11.886 7.905C12.096 7.755 12.296 7.585 12.486 7.395C12.686 7.195 12.846 7.02 12.966 6.87L13.086 6.975C12.956 7.125 12.791 7.305 12.591 7.515C12.391 7.715 12.181 7.895 11.961 8.055C11.741 8.205 11.536 8.28 11.346 8.28C11.186 8.28 11.076 8.245 11.016 8.175C10.956 8.105 10.926 7.98 10.926 7.8C10.926 7.56 11.006 7.37 11.166 7.23C11.336 7.09 11.471 7.02 11.571 7.02ZM15.5452 5.265C16.0452 5.265 16.2952 5.505 16.2952 5.985C16.2952 6.355 16.2102 6.735 16.0402 7.125C15.8702 7.505 15.6402 7.855 15.3502 8.175C15.0602 8.485 14.7452 8.74 14.4052 8.94C14.0652 9.13 13.7202 9.225 13.3702 9.225C13.1002 9.225 12.8752 9.16 12.6952 9.03C12.5052 8.89 12.4102 8.665 12.4102 8.355C12.4102 8.065 12.4952 7.745 12.6652 7.395C12.8352 7.035 13.0652 6.695 13.3552 6.375C13.6552 6.055 13.9902 5.79 14.3602 5.58C14.7402 5.37 15.1352 5.265 15.5452 5.265ZM15.7102 5.475C15.5402 5.475 15.3402 5.55 15.1102 5.7C14.8802 5.85 14.6452 6.045 14.4052 6.285C14.1652 6.525 13.9402 6.785 13.7302 7.065C13.5302 7.335 13.3652 7.6 13.2352 7.86C13.1152 8.12 13.0552 8.34 13.0552 8.52C13.0552 8.72 13.1102 8.86 13.2202 8.94C13.3302 9.01 13.4552 9.045 13.5952 9.045C13.8252 9.045 14.0852 8.95 14.3752 8.76C14.6652 8.56 14.9452 8.31 15.2152 8.01C15.4852 7.71 15.7052 7.395 15.8752 7.065C16.0552 6.725 16.1452 6.415 16.1452 6.135C16.1452 5.875 16.1002 5.7 16.0102 5.61C15.9202 5.52 15.8202 5.475 15.7102 5.475ZM15.9802 7.02C16.0302 7.02 16.0502 7.04 16.0402 7.08C16.0402 7.11 16.0152 7.125 15.9652 7.125C15.9252 7.125 15.8652 7.18 15.7852 7.29C15.7152 7.39 15.6502 7.495 15.5902 7.605C15.5302 7.715 15.5002 7.775 15.5002 7.785C15.5002 8.015 15.5852 8.13 15.7552 8.13C15.9152 8.13 16.0952 8.055 16.2952 7.905C16.5052 7.755 16.7052 7.585 16.8952 7.395C17.0952 7.195 17.2552 7.02 17.3752 6.87L17.4952 6.975C17.3652 7.125 17.2002 7.305 17.0002 7.515C16.8002 7.715 16.5902 7.895 16.3702 8.055C16.1502 8.205 15.9452 8.28 15.7552 8.28C15.5952 8.28 15.4852 8.245 15.4252 8.175C15.3652 8.105 15.3352 7.98 15.3352 7.8C15.3352 7.56 15.4152 7.37 15.5752 7.23C15.7452 7.09 15.8802 7.02 15.9802 7.02ZM22.1593 -3.75509e-06C22.2693 0.019996 22.4043 0.0299959 22.5643 0.0299959C22.7343 0.0299959 22.8693 0.019996 22.9693 -3.75509e-06L17.7493 7.275C17.5893 7.515 17.4343 7.74 17.2843 7.95C17.1343 8.16 17.0143 8.345 16.9243 8.505C16.8243 8.655 16.7743 8.775 16.7743 8.865C16.7743 8.935 16.8043 8.985 16.8643 9.015C16.9143 9.045 16.9893 9.06 17.0893 9.06C17.3193 9.06 17.5743 8.98 17.8543 8.82C18.1343 8.65 18.4093 8.44 18.6793 8.19C18.9593 7.94 19.2143 7.695 19.4443 7.455C19.6843 7.215 19.8743 7.02 20.0143 6.87L20.1193 6.96C19.9893 7.1 19.8093 7.295 19.5793 7.545C19.3493 7.795 19.0843 8.05 18.7843 8.31C18.4943 8.56 18.1893 8.775 17.8693 8.955C17.5593 9.135 17.2543 9.225 16.9543 9.225C16.7943 9.225 16.6593 9.18 16.5493 9.09C16.4293 9 16.3693 8.87 16.3693 8.7C16.3693 8.59 16.4093 8.45 16.4893 8.28C16.5693 8.11 16.6693 7.935 16.7893 7.755C16.8993 7.565 17.0093 7.395 17.1193 7.245C17.2193 7.085 17.2993 6.965 17.3593 6.885L22.1593 -3.75509e-06ZM19.5161 9.435C19.1661 9.435 18.9011 9.37 18.7211 9.24C18.5411 9.11 18.4511 8.935 18.4511 8.715C18.4511 8.555 18.5061 8.415 18.6161 8.295C18.7161 8.165 18.8361 8.065 18.9761 7.995C19.1161 7.915 19.2261 7.875 19.3061 7.875C19.4161 7.875 19.4911 7.9 19.5311 7.95C19.5611 7.99 19.5761 8.035 19.5761 8.085C19.5761 8.165 19.5311 8.23 19.4411 8.28C19.3411 8.33 19.2611 8.355 19.2011 8.355C19.1311 8.355 19.0711 8.335 19.0211 8.295C18.9611 8.245 18.9311 8.22 18.9311 8.22C18.8811 8.23 18.8111 8.285 18.7211 8.385C18.6311 8.485 18.5861 8.595 18.5861 8.715C18.5861 8.835 18.6511 8.95 18.7811 9.06C18.9111 9.17 19.1211 9.225 19.4111 9.225C19.7111 9.225 19.9961 9.125 20.2661 8.925C20.5461 8.725 20.7761 8.47 20.9561 8.16C21.1361 7.85 21.2261 7.535 21.2261 7.215C21.2261 7.105 21.2261 6.96 21.2261 6.78C21.2261 6.59 21.2261 6.435 21.2261 6.315C21.2261 6.165 21.2511 5.995 21.3011 5.805C21.3511 5.605 21.4061 5.42 21.4661 5.25C21.5361 5.08 21.5911 4.975 21.6311 4.935C21.7111 4.865 21.7711 4.845 21.8111 4.875C21.8511 4.905 21.8611 4.935 21.8411 4.965C21.8311 4.975 21.7661 5.055 21.6461 5.205C21.5261 5.345 21.3761 5.52 21.1961 5.73C21.0161 5.94 20.8361 6.15 20.6561 6.36C20.4761 6.57 20.3161 6.755 20.1761 6.915C20.0461 7.075 19.9711 7.17 19.9511 7.2C19.9011 7.27 19.8561 7.285 19.8161 7.245C19.7761 7.205 19.7861 7.155 19.8461 7.095C19.9561 6.955 20.0911 6.79 20.2511 6.6C20.4211 6.4 20.5911 6.205 20.7611 6.015C20.9311 5.825 21.0761 5.665 21.1961 5.535C21.3261 5.395 21.3961 5.315 21.4061 5.295C21.4361 5.255 21.4611 5.185 21.4811 5.085C21.5111 4.985 21.5461 4.89 21.5861 4.8C21.6361 4.71 21.6961 4.665 21.7661 4.665C21.9361 4.665 22.0211 4.725 22.0211 4.845C22.0211 4.935 21.9511 5.045 21.8111 5.175C21.6811 5.305 21.6061 5.41 21.5861 5.49C21.5561 5.61 21.5561 5.78 21.5861 6C21.6261 6.21 21.6661 6.45 21.7061 6.72C21.7561 6.99 21.7811 7.275 21.7811 7.575C21.7811 7.975 21.7011 8.3 21.5411 8.55C21.3811 8.79 21.1811 8.975 20.9411 9.105C20.7011 9.235 20.4511 9.32 20.1911 9.36C19.9411 9.41 19.7161 9.435 19.5161 9.435ZM21.8261 8.4C21.5661 8.4 21.3961 8.35 21.3161 8.25C21.2461 8.15 21.2211 8.035 21.2411 7.905C21.2711 7.765 21.3061 7.64 21.3461 7.53L21.4961 7.545C21.4661 7.645 21.4361 7.75 21.4061 7.86C21.3861 7.97 21.4011 8.065 21.4511 8.145C21.5011 8.225 21.6311 8.265 21.8411 8.265C21.9911 8.265 22.1611 8.195 22.3511 8.055C22.5411 7.915 22.7261 7.745 22.9061 7.545C23.0961 7.345 23.2561 7.15 23.3861 6.96L23.5211 7.065C23.3911 7.225 23.2311 7.41 23.0411 7.62C22.8611 7.83 22.6661 8.015 22.4561 8.175C22.2461 8.325 22.0361 8.4 21.8261 8.4ZM34.1469 3.495C34.2269 3.435 34.2769 3.425 34.2969 3.465C34.3169 3.495 34.3019 3.535 34.2519 3.585C33.9519 3.835 33.6469 4.15 33.3369 4.53C33.0269 4.91 32.7219 5.315 32.4219 5.745C32.1219 6.175 31.8419 6.605 31.5819 7.035C31.3219 7.455 31.0969 7.85 30.9069 8.22C30.7169 8.58 30.5769 8.875 30.4869 9.105C30.3669 9.085 30.2219 9.075 30.0519 9.075C29.8919 9.075 29.7269 9.085 29.5569 9.105C29.5969 9.045 29.6819 8.905 29.8119 8.685C29.9519 8.455 30.1019 8.185 30.2619 7.875C30.4319 7.555 30.5769 7.22 30.6969 6.87C30.8169 6.51 30.8769 6.17 30.8769 5.85C30.8769 5.65 30.8169 5.45 30.6969 5.25C30.5869 5.05 30.4169 4.95 30.1869 4.95C30.0269 4.95 29.8469 5.07 29.6469 5.31C29.4569 5.55 29.3619 5.875 29.3619 6.285C29.3619 6.725 29.4519 7.13 29.6319 7.5C29.8119 7.86 30.0669 8.15 30.3969 8.37C30.7269 8.58 31.1169 8.685 31.5669 8.685C31.9169 8.685 32.2269 8.6 32.4969 8.43C32.7769 8.25 32.9919 8.04 33.1419 7.8C33.2919 7.55 33.3469 7.315 33.3069 7.095C33.2469 7.095 33.1919 7.08 33.1419 7.05C33.0919 7.02 33.0669 6.965 33.0669 6.885C33.0669 6.845 33.0819 6.81 33.1119 6.78C33.1519 6.74 33.2019 6.72 33.2619 6.72C33.4319 6.72 33.5169 6.865 33.5169 7.155C33.5169 7.415 33.4269 7.68 33.2469 7.95C33.0769 8.21 32.8419 8.425 32.5419 8.595C32.2519 8.765 31.9219 8.85 31.5519 8.85C31.0919 8.85 30.6669 8.73 30.2769 8.49C29.8969 8.25 29.5919 7.93 29.3619 7.53C29.1419 7.13 29.0319 6.7 29.0319 6.24C29.0319 5.99 29.0769 5.75 29.1669 5.52C29.2669 5.29 29.3969 5.1 29.5569 4.95C29.7169 4.8 29.9019 4.725 30.1119 4.725C30.3219 4.725 30.4969 4.79 30.6369 4.92C30.7769 5.05 30.8819 5.205 30.9519 5.385C31.0219 5.555 31.0569 5.715 31.0569 5.865C31.0569 6.095 31.0169 6.35 30.9369 6.63C30.8569 6.9 30.7619 7.165 30.6519 7.425C30.5519 7.685 30.4569 7.91 30.3669 8.1C30.2769 8.28 30.2169 8.39 30.1869 8.43C30.1369 8.51 30.0869 8.56 30.0369 8.58C29.9969 8.59 30.0119 8.535 30.0819 8.415C30.1319 8.315 30.2519 8.125 30.4419 7.845C30.6419 7.555 30.8869 7.22 31.1769 6.84C31.4669 6.45 31.7769 6.05 32.1069 5.64C32.4469 5.22 32.7919 4.82 33.1419 4.44C33.5019 4.06 33.8369 3.745 34.1469 3.495ZM45.5142 0.749996C45.6242 0.759996 45.6842 0.789996 45.6942 0.839996C45.7042 0.879996 45.6542 0.894996 45.5442 0.884996C45.0042 0.834996 44.4892 0.894996 43.9992 1.065C43.5092 1.225 43.0742 1.445 42.6942 1.725C42.3242 2.005 42.0292 2.3 41.8092 2.61C41.5992 2.92 41.4942 3.19 41.4942 3.42C41.4942 3.87 41.6692 4.205 42.0192 4.425C42.3692 4.645 42.8192 4.755 43.3692 4.755C43.8492 4.755 44.3592 4.675 44.8992 4.515C45.4392 4.345 45.9692 4.13 46.4892 3.87C47.0092 3.6 47.4792 3.32 47.8992 3.03C48.3192 2.73 48.6542 2.45 48.9042 2.19C49.1542 1.93 49.2792 1.72 49.2792 1.56C49.2792 1.44 49.2292 1.365 49.1292 1.335C49.0392 1.295 48.9342 1.275 48.8142 1.275C48.4842 1.275 48.0842 1.39 47.6142 1.62C47.1442 1.85 46.6392 2.165 46.0992 2.565C45.5692 2.955 45.0442 3.39 44.5242 3.87C44.0142 4.35 43.5442 4.845 43.1142 5.355C42.6942 5.855 42.3542 6.335 42.0942 6.795C41.8442 7.255 41.7192 7.655 41.7192 7.995C41.7192 8.375 41.8342 8.65 42.0642 8.82C42.3042 8.99 42.5842 9.075 42.9042 9.075C43.2142 9.075 43.5292 8.99 43.8492 8.82C44.1792 8.65 44.4992 8.43 44.8092 8.16C45.1192 7.89 45.3942 7.6 45.6342 7.29C45.8842 6.98 46.0792 6.675 46.2192 6.375C46.3692 6.075 46.4442 5.815 46.4442 5.595C46.4442 5.405 46.3892 5.28 46.2792 5.22C46.1792 5.16 46.0592 5.13 45.9192 5.13C45.5292 5.13 45.1442 5.25 44.7642 5.49C44.3842 5.72 44.0392 6.03 43.7292 6.42C43.4192 6.8 43.1692 7.22 42.9792 7.68C42.7992 8.13 42.7092 8.58 42.7092 9.03C42.7092 9.2 42.7392 9.395 42.7992 9.615C42.8592 9.835 42.9192 10.025 42.9792 10.185C43.0392 10.355 43.0692 10.46 43.0692 10.5C43.0792 10.57 43.0692 10.625 43.0392 10.665C43.0092 10.705 42.9642 10.69 42.9042 10.62C42.8442 10.56 42.7692 10.39 42.6792 10.11C42.5892 9.83 42.5442 9.48 42.5442 9.06C42.5442 8.56 42.6342 8.07 42.8142 7.59C43.0042 7.11 43.2592 6.675 43.5792 6.285C43.8992 5.885 44.2692 5.57 44.6892 5.34C45.1092 5.1 45.5592 4.98 46.0392 4.98C46.2892 4.98 46.5092 5.05 46.6992 5.19C46.8892 5.32 46.9842 5.515 46.9842 5.775C46.9842 6.085 46.8792 6.435 46.6692 6.825C46.4692 7.215 46.1792 7.595 45.7992 7.965C45.4292 8.325 44.9892 8.625 44.4792 8.865C43.9792 9.095 43.4342 9.21 42.8442 9.21C42.3242 9.21 41.9392 9.065 41.6892 8.775C41.4492 8.475 41.3292 8.15 41.3292 7.8C41.3292 7.32 41.4392 6.825 41.6592 6.315C41.8892 5.805 42.1992 5.3 42.5892 4.8C42.9792 4.3 43.4242 3.83 43.9242 3.39C44.4242 2.95 44.9542 2.565 45.5142 2.235C46.0842 1.895 46.6542 1.63 47.2242 1.44C47.7942 1.24 48.3392 1.14 48.8592 1.14C48.9792 1.14 49.1042 1.165 49.2342 1.215C49.3642 1.265 49.4292 1.36 49.4292 1.5C49.4292 1.78 49.2992 2.075 49.0392 2.385C48.7892 2.695 48.4442 3 48.0042 3.3C47.5742 3.59 47.0942 3.855 46.5642 4.095C46.0342 4.335 45.4892 4.53 44.9292 4.68C44.3792 4.82 43.8542 4.89 43.3542 4.89C42.7042 4.89 42.1892 4.77 41.8092 4.53C41.4392 4.28 41.2542 3.86 41.2542 3.27C41.2542 2.96 41.3792 2.65 41.6292 2.34C41.8792 2.02 42.2092 1.735 42.6192 1.485C43.0392 1.235 43.4992 1.04 43.9992 0.899996C44.5092 0.759996 45.0142 0.709996 45.5142 0.749996ZM53.1408 -3.75509e-06C53.2508 0.019996 53.3858 0.0299959 53.5458 0.0299959C53.7158 0.0299959 53.8508 0.019996 53.9508 -3.75509e-06L48.7308 7.275C48.5708 7.515 48.4158 7.74 48.2658 7.95C48.1158 8.16 47.9958 8.345 47.9058 8.505C47.8058 8.655 47.7558 8.775 47.7558 8.865C47.7558 8.935 47.7858 8.985 47.8458 9.015C47.8958 9.045 47.9708 9.06 48.0708 9.06C48.3008 9.06 48.5558 8.98 48.8358 8.82C49.1158 8.65 49.3908 8.44 49.6608 8.19C49.9408 7.94 50.1958 7.695 50.4258 7.455C50.6658 7.215 50.8558 7.02 50.9958 6.87L51.1008 6.96C50.9708 7.1 50.7908 7.295 50.5608 7.545C50.3308 7.795 50.0658 8.05 49.7658 8.31C49.4758 8.56 49.1708 8.775 48.8508 8.955C48.5408 9.135 48.2358 9.225 47.9358 9.225C47.7758 9.225 47.6408 9.18 47.5308 9.09C47.4108 9 47.3508 8.87 47.3508 8.7C47.3508 8.59 47.3908 8.45 47.4708 8.28C47.5508 8.11 47.6508 7.935 47.7708 7.755C47.8808 7.565 47.9908 7.395 48.1008 7.245C48.2008 7.085 48.2808 6.965 48.3408 6.885L53.1408 -3.75509e-06ZM53.5725 5.265C54.0725 5.265 54.3225 5.505 54.3225 5.985C54.3225 6.355 54.2375 6.735 54.0675 7.125C53.8975 7.505 53.6675 7.855 53.3775 8.175C53.0875 8.485 52.7725 8.74 52.4325 8.94C52.0925 9.13 51.7475 9.225 51.3975 9.225C51.1275 9.225 50.9025 9.16 50.7225 9.03C50.5325 8.89 50.4375 8.665 50.4375 8.355C50.4375 8.065 50.5225 7.745 50.6925 7.395C50.8625 7.035 51.0925 6.695 51.3825 6.375C51.6825 6.055 52.0175 5.79 52.3875 5.58C52.7675 5.37 53.1625 5.265 53.5725 5.265ZM53.7375 5.475C53.5675 5.475 53.3675 5.55 53.1375 5.7C52.9075 5.85 52.6725 6.045 52.4325 6.285C52.1925 6.525 51.9675 6.785 51.7575 7.065C51.5575 7.335 51.3925 7.6 51.2625 7.86C51.1425 8.12 51.0825 8.34 51.0825 8.52C51.0825 8.72 51.1375 8.86 51.2475 8.94C51.3575 9.01 51.4825 9.045 51.6225 9.045C51.8525 9.045 52.1125 8.95 52.4025 8.76C52.6925 8.56 52.9725 8.31 53.2425 8.01C53.5125 7.71 53.7325 7.395 53.9025 7.065C54.0825 6.725 54.1725 6.415 54.1725 6.135C54.1725 5.875 54.1275 5.7 54.0375 5.61C53.9475 5.52 53.8475 5.475 53.7375 5.475ZM54.0075 7.02C54.0575 7.02 54.0775 7.04 54.0675 7.08C54.0675 7.11 54.0425 7.125 53.9925 7.125C53.9525 7.125 53.8925 7.18 53.8125 7.29C53.7425 7.39 53.6775 7.495 53.6175 7.605C53.5575 7.715 53.5275 7.775 53.5275 7.785C53.5275 8.015 53.6125 8.13 53.7825 8.13C53.9425 8.13 54.1225 8.055 54.3225 7.905C54.5325 7.755 54.7325 7.585 54.9225 7.395C55.1225 7.195 55.2825 7.02 55.4025 6.87L55.5225 6.975C55.3925 7.125 55.2275 7.305 55.0275 7.515C54.8275 7.715 54.6175 7.895 54.3975 8.055C54.1775 8.205 53.9725 8.28 53.7825 8.28C53.6225 8.28 53.5125 8.245 53.4525 8.175C53.3925 8.105 53.3625 7.98 53.3625 7.8C53.3625 7.56 53.4425 7.37 53.6025 7.23C53.7725 7.09 53.9075 7.02 54.0075 7.02ZM56.7217 5.28C56.8117 5.32 56.9467 5.34 57.1267 5.34C57.3167 5.34 57.4767 5.33 57.6067 5.31C57.3567 5.61 57.0767 5.935 56.7667 6.285C56.4567 6.625 56.1617 6.965 55.8817 7.305C55.6017 7.645 55.3717 7.95 55.1917 8.22C55.0017 8.49 54.9067 8.7 54.9067 8.85C54.9067 8.95 54.9367 9.015 54.9967 9.045C55.0467 9.075 55.1117 9.09 55.1917 9.09C55.4317 9.09 55.6967 8.995 55.9867 8.805C56.2867 8.615 56.5917 8.37 56.9017 8.07C57.2217 7.76 57.5317 7.43 57.8317 7.08C58.1317 6.73 58.4067 6.4 58.6567 6.09C58.9167 5.77 59.1367 5.505 59.3167 5.295C59.4167 5.325 59.5567 5.34 59.7367 5.34C59.9167 5.34 60.0717 5.33 60.2017 5.31C59.9417 5.64 59.6517 5.99 59.3317 6.36C59.0117 6.72 58.7017 7.07 58.4017 7.41C58.1117 7.74 57.8717 8.035 57.6817 8.295C57.4917 8.545 57.3967 8.735 57.3967 8.865C57.3967 8.925 57.4217 8.975 57.4717 9.015C57.5317 9.045 57.6117 9.06 57.7117 9.06C57.9317 9.06 58.1667 8.985 58.4167 8.835C58.6767 8.675 58.9317 8.48 59.1817 8.25C59.4417 8.01 59.6867 7.77 59.9167 7.53C60.1567 7.28 60.3617 7.06 60.5317 6.87L60.6517 6.975C60.4917 7.145 60.2917 7.36 60.0517 7.62C59.8217 7.87 59.5667 8.12 59.2867 8.37C59.0167 8.61 58.7417 8.815 58.4617 8.985C58.1817 9.145 57.9167 9.225 57.6667 9.225C57.5267 9.225 57.3967 9.185 57.2767 9.105C57.1567 9.025 57.0967 8.88 57.0967 8.67C57.0967 8.48 57.1417 8.285 57.2317 8.085C57.3217 7.875 57.4167 7.695 57.5167 7.545C57.6167 7.385 57.6767 7.29 57.6967 7.26L57.8017 7.305C57.7117 7.435 57.5667 7.61 57.3667 7.83C57.1767 8.04 56.9517 8.255 56.6917 8.475C56.4417 8.685 56.1767 8.865 55.8967 9.015C55.6167 9.155 55.3417 9.225 55.0717 9.225C54.6417 9.225 54.4267 9 54.4267 8.55C54.4267 8.36 54.5067 8.135 54.6667 7.875C54.8267 7.605 55.0317 7.32 55.2817 7.02C55.5217 6.71 55.7717 6.405 56.0317 6.105C56.2917 5.805 56.5217 5.53 56.7217 5.28ZM60.6486 9.225C60.3686 9.225 60.1736 9.16 60.0636 9.03C59.9536 8.89 59.8986 8.675 59.8986 8.385C59.8986 8.085 59.9986 7.755 60.1986 7.395C60.3986 7.035 60.6636 6.695 60.9936 6.375C61.3336 6.045 61.7136 5.775 62.1336 5.565C62.5536 5.355 62.9836 5.25 63.4236 5.25C63.6636 5.25 63.8286 5.3 63.9186 5.4C64.0186 5.49 64.0686 5.6 64.0686 5.73C64.0786 5.86 64.0486 5.97 63.9786 6.06C63.9786 6.06 63.9486 6.09 63.8886 6.15C63.8386 6.21 63.7886 6.275 63.7386 6.345C63.6886 6.405 63.6636 6.435 63.6636 6.435C63.8636 6.085 63.9336 5.835 63.8736 5.685C63.8236 5.525 63.6836 5.445 63.4536 5.445C63.2836 5.445 63.0686 5.525 62.8086 5.685C62.5586 5.845 62.2886 6.055 61.9986 6.315C61.7186 6.575 61.4536 6.855 61.2036 7.155C60.9536 7.455 60.7486 7.745 60.5886 8.025C60.4386 8.305 60.3636 8.545 60.3636 8.745C60.3636 8.845 60.3986 8.92 60.4686 8.97C60.5386 9.02 60.6286 9.045 60.7386 9.045C60.8886 9.045 61.0636 8.985 61.2636 8.865C61.4636 8.745 61.6686 8.595 61.8786 8.415C62.0886 8.235 62.2836 8.055 62.4636 7.875C62.6436 7.695 62.7886 7.54 62.8986 7.41C63.0186 7.28 63.0836 7.205 63.0936 7.185C63.1336 7.135 63.2486 6.97 63.4386 6.69C63.6386 6.41 63.8886 6.06 64.1886 5.64C64.4886 5.22 64.8086 4.765 65.1486 4.275C65.4986 3.775 65.8436 3.28 66.1836 2.79C66.5236 2.29 66.8386 1.835 67.1286 1.425C67.4186 1.015 67.6536 0.679996 67.8336 0.419996C68.0136 0.159996 68.1136 0.019996 68.1336 -3.75509e-06C68.2336 0.0499962 68.3286 0.084996 68.4186 0.104996C68.5186 0.114996 68.6686 0.109996 68.8686 0.089996C68.8486 0.119996 68.7286 0.289996 68.5086 0.599996C68.2886 0.899996 68.0036 1.295 67.6536 1.785C67.3036 2.275 66.9236 2.81 66.5136 3.39C66.1036 3.97 65.6886 4.55 65.2686 5.13C64.8586 5.71 64.4786 6.245 64.1286 6.735C63.7786 7.225 63.4936 7.625 63.2736 7.935C63.0536 8.235 62.9336 8.4 62.9136 8.43C62.8736 8.49 62.8286 8.57 62.7786 8.67C62.7386 8.76 62.7186 8.845 62.7186 8.925C62.7186 9.005 62.7586 9.045 62.8386 9.045C63.1386 9.045 63.4336 8.96 63.7236 8.79C64.0236 8.61 64.3036 8.395 64.5636 8.145C64.8336 7.895 65.0686 7.655 65.2686 7.425C65.4686 7.185 65.6286 7 65.7486 6.87L65.8686 6.96C65.7586 7.1 65.5936 7.295 65.3736 7.545C65.1536 7.795 64.8986 8.05 64.6086 8.31C64.3286 8.56 64.0336 8.775 63.7236 8.955C63.4136 9.135 63.1136 9.225 62.8236 9.225C62.6336 9.225 62.4886 9.19 62.3886 9.12C62.2886 9.06 62.2386 8.975 62.2386 8.865C62.2386 8.735 62.2836 8.59 62.3736 8.43C62.4736 8.27 62.5786 8.12 62.6886 7.98C62.7986 7.83 62.8786 7.725 62.9286 7.665C62.9286 7.665 62.9186 7.665 62.8986 7.665C62.8886 7.655 62.8836 7.65 62.8836 7.65C62.8736 7.66 62.7936 7.745 62.6436 7.905C62.5036 8.065 62.3186 8.25 62.0886 8.46C61.8686 8.66 61.6336 8.84 61.3836 9C61.1336 9.15 60.8886 9.225 60.6486 9.225Z" fill="#BB8ED0"/>
</svg>
