<svg width="101" height="14" viewBox="0 0 101 14" fill="none" xmlns="http://www.w3.org/2000/svg">
<path d="M2.085 9.39C1.925 9.44 1.85 9.43 1.86 9.36C1.86 9.3 1.895 9.265 1.965 9.255C2.135 9.225 2.3 9.16 2.46 9.06C2.62 8.96 2.76 8.845 2.88 8.715C3.04 8.545 3.26 8.255 3.54 7.845C3.82 7.435 4.155 6.955 4.545 6.405C4.945 5.845 5.39 5.275 5.88 4.695C6.35 4.145 6.895 3.555 7.515 2.925C8.145 2.295 8.81 1.645 9.51 0.974996C9.59 0.904996 9.665 0.874996 9.735 0.884996C9.805 0.894996 9.85 0.919996 9.87 0.959996C9.89 0.989996 9.855 1.015 9.765 1.035C9.695 1.045 9.625 1.085 9.555 1.155C9.495 1.215 9.45 1.26 9.42 1.29C9.15 1.55 8.84 1.915 8.49 2.385C8.14 2.845 7.75 3.365 7.32 3.945C6.9 4.525 6.445 5.13 5.955 5.76C5.465 6.38 4.945 6.985 4.395 7.575C3.845 8.155 3.265 8.68 2.655 9.15C2.585 9.2 2.525 9.205 2.475 9.165C2.415 9.125 2.46 9.08 2.61 9.03C2.95 8.92 3.36 8.685 3.84 8.325C4.32 7.955 4.845 7.51 5.415 6.99C5.985 6.47 6.575 5.915 7.185 5.325C7.795 4.735 8.405 4.155 9.015 3.585C9.635 3.005 10.225 2.48 10.785 2.01C11.345 1.53 11.86 1.155 12.33 0.884996C12.45 0.814996 12.515 0.809996 12.525 0.869996C12.545 0.929996 12.525 0.974996 12.465 1.005C12.415 1.025 12.29 1.105 12.09 1.245C11.89 1.375 11.735 1.495 11.625 1.605C11.545 1.685 11.405 1.88 11.205 2.19C11.015 2.49 10.785 2.865 10.515 3.315C10.245 3.765 9.945 4.255 9.615 4.785C9.295 5.305 8.96 5.825 8.61 6.345C8.27 6.865 7.93 7.345 7.59 7.785C7.25 8.225 6.93 8.585 6.63 8.865C6.58 8.905 6.55 8.91 6.54 8.88C6.53 8.85 6.535 8.805 6.555 8.745C6.575 8.685 6.605 8.64 6.645 8.61C7.145 8.18 7.66 7.695 8.19 7.155C8.73 6.615 9.275 6.065 9.825 5.505C10.385 4.935 10.94 4.385 11.49 3.855C12.05 3.325 12.6 2.85 13.14 2.43C13.68 2.01 14.205 1.675 14.715 1.425C15.225 1.175 15.71 1.05 16.17 1.05C16.45 1.05 16.715 1.11 16.965 1.23C17.225 1.35 17.355 1.555 17.355 1.845C17.355 2.095 17.275 2.305 17.115 2.475C16.955 2.645 16.76 2.775 16.53 2.865C16.31 2.945 16.09 2.985 15.87 2.985C15.56 2.985 15.325 2.925 15.165 2.805C15.005 2.675 14.905 2.56 14.865 2.46C14.825 2.37 14.86 2.305 14.97 2.265C15.08 2.225 15.135 2.255 15.135 2.355C15.135 2.515 15.22 2.64 15.39 2.73C15.56 2.81 15.74 2.85 15.93 2.85C16.1 2.85 16.27 2.81 16.44 2.73C16.61 2.65 16.75 2.535 16.86 2.385C16.98 2.225 17.04 2.045 17.04 1.845C17.04 1.665 16.95 1.52 16.77 1.41C16.6 1.29 16.4 1.23 16.17 1.23C15.72 1.23 15.24 1.355 14.73 1.605C14.22 1.855 13.7 2.19 13.17 2.61C12.64 3.02 12.105 3.485 11.565 4.005C11.035 4.515 10.515 5.04 10.005 5.58C9.495 6.11 9.005 6.62 8.535 7.11C8.075 7.59 7.645 8.01 7.245 8.37C6.985 8.61 6.75 8.81 6.54 8.97C6.34 9.13 6.08 9.27 5.76 9.39C5.6 9.45 5.515 9.44 5.505 9.36C5.505 9.29 5.565 9.24 5.685 9.21C5.885 9.16 6.075 9.05 6.255 8.88C6.435 8.7 6.59 8.475 6.72 8.205C6.92 7.795 7.185 7.325 7.515 6.795C7.855 6.265 8.22 5.72 8.61 5.16C9 4.6 9.39 4.07 9.78 3.57C10.18 3.06 10.54 2.615 10.86 2.235C11.18 1.855 11.435 1.585 11.625 1.425C11.665 1.385 11.67 1.42 11.64 1.53C11.61 1.63 11.5 1.74 11.31 1.86C10.78 2.21 10.215 2.665 9.615 3.225C9.015 3.775 8.395 4.37 7.755 5.01C7.125 5.65 6.485 6.27 5.835 6.87C5.185 7.47 4.545 8 3.915 8.46C3.285 8.91 2.675 9.22 2.085 9.39ZM0.0149974 3.945C0.0349975 3.725 0.139997 3.475 0.329997 3.195C0.519997 2.915 0.769998 2.65 1.08 2.4C1.39 2.14 1.74 1.925 2.13 1.755C2.52 1.585 2.925 1.5 3.345 1.5C3.765 1.5 4.18 1.56 4.59 1.68C5 1.8 5.385 1.925 5.745 2.055C6.115 2.175 6.44 2.235 6.72 2.235C7.02 2.235 7.305 2.18 7.575 2.07C7.845 1.96 8.075 1.84 8.265 1.71C8.465 1.58 8.59 1.49 8.64 1.44C8.72 1.37 8.765 1.35 8.775 1.38C8.795 1.4 8.78 1.44 8.73 1.5C8.7 1.54 8.585 1.65 8.385 1.83C8.195 2 7.925 2.165 7.575 2.325C7.225 2.485 6.81 2.565 6.33 2.565C5.97 2.565 5.655 2.535 5.385 2.475C5.125 2.415 4.875 2.35 4.635 2.28C4.405 2.2 4.165 2.13 3.915 2.07C3.675 2.01 3.395 1.98 3.075 1.98C2.705 1.98 2.35 2.05 2.01 2.19C1.66 2.33 1.35 2.505 1.08 2.715C0.809997 2.925 0.599997 3.14 0.449997 3.36C0.289997 3.57 0.214997 3.75 0.224997 3.9C0.234997 4 0.199997 4.07 0.119997 4.11C0.0399974 4.15 0.0049974 4.095 0.0149974 3.945ZM14.3998 9.225C13.9298 9.225 13.6198 9.12 13.4698 8.91C13.3198 8.69 13.2448 8.46 13.2448 8.22C13.2448 7.81 13.3498 7.43 13.5598 7.08C13.7698 6.72 14.0398 6.4 14.3698 6.12C14.6998 5.84 15.0398 5.625 15.3898 5.475C15.7498 5.315 16.0698 5.235 16.3498 5.235C16.5498 5.235 16.7098 5.265 16.8298 5.325C16.9498 5.375 17.0098 5.485 17.0098 5.655C17.0098 5.815 16.9148 5.985 16.7248 6.165C16.5348 6.345 16.2948 6.52 16.0048 6.69C15.7148 6.85 15.4098 7 15.0898 7.14C14.7798 7.27 14.4948 7.375 14.2348 7.455C13.9748 7.535 13.7848 7.575 13.6648 7.575C13.6648 7.575 13.6648 7.55 13.6648 7.5C13.6648 7.44 13.6648 7.41 13.6648 7.41C13.7548 7.42 13.9098 7.39 14.1298 7.32C14.3598 7.25 14.6148 7.16 14.8948 7.05C15.1748 6.93 15.4448 6.795 15.7048 6.645C15.9748 6.495 16.1948 6.335 16.3648 6.165C16.5448 5.995 16.6348 5.83 16.6348 5.67C16.6348 5.59 16.6098 5.52 16.5598 5.46C16.5198 5.4 16.4448 5.37 16.3348 5.37C16.1748 5.37 15.9798 5.45 15.7498 5.61C15.5298 5.76 15.3048 5.96 15.0748 6.21C14.8448 6.46 14.6298 6.725 14.4298 7.005C14.2298 7.285 14.0648 7.555 13.9348 7.815C13.8148 8.065 13.7548 8.275 13.7548 8.445C13.7548 8.645 13.8148 8.795 13.9348 8.895C14.0548 8.995 14.2298 9.045 14.4598 9.045C14.8598 9.045 15.2348 8.95 15.5848 8.76C15.9448 8.56 16.2698 8.33 16.5598 8.07C16.8498 7.8 17.0948 7.55 17.2948 7.32C17.4948 7.08 17.6298 6.925 17.6998 6.855C17.6998 6.855 17.7148 6.87 17.7448 6.9C17.7848 6.93 17.8048 6.945 17.8048 6.945C17.7348 7.025 17.5998 7.185 17.3998 7.425C17.1998 7.665 16.9498 7.925 16.6498 8.205C16.3498 8.485 16.0098 8.725 15.6298 8.925C15.2498 9.125 14.8398 9.225 14.3998 9.225ZM22.4645 -3.75509e-06C22.5745 0.019996 22.7095 0.0299959 22.8695 0.0299959C23.0395 0.0299959 23.1745 0.019996 23.2745 -3.75509e-06L18.0545 7.275C17.8945 7.515 17.7395 7.74 17.5895 7.95C17.4395 8.16 17.3195 8.345 17.2295 8.505C17.1295 8.655 17.0795 8.775 17.0795 8.865C17.0795 8.935 17.1095 8.985 17.1695 9.015C17.2195 9.045 17.2945 9.06 17.3945 9.06C17.6245 9.06 17.8795 8.98 18.1595 8.82C18.4395 8.65 18.7145 8.44 18.9845 8.19C19.2645 7.94 19.5195 7.695 19.7495 7.455C19.9895 7.215 20.1795 7.02 20.3195 6.87L20.4245 6.96C20.2945 7.1 20.1145 7.295 19.8845 7.545C19.6545 7.795 19.3895 8.05 19.0895 8.31C18.7995 8.56 18.4945 8.775 18.1745 8.955C17.8645 9.135 17.5595 9.225 17.2595 9.225C17.0995 9.225 16.9645 9.18 16.8545 9.09C16.7345 9 16.6745 8.87 16.6745 8.7C16.6745 8.59 16.7145 8.45 16.7945 8.28C16.8745 8.11 16.9745 7.935 17.0945 7.755C17.2045 7.565 17.3145 7.395 17.4245 7.245C17.5245 7.085 17.6045 6.965 17.6645 6.885L22.4645 -3.75509e-06ZM23.1962 6.405C23.0562 6.405 22.9512 6.375 22.8812 6.315C22.8212 6.245 22.7912 6.165 22.7912 6.075C22.7912 5.985 22.8262 5.9 22.8962 5.82C22.9762 5.73 23.0812 5.685 23.2112 5.685C23.2912 5.685 23.3612 5.695 23.4212 5.715C23.4812 5.735 23.5112 5.745 23.5112 5.745C23.5212 5.645 23.4962 5.56 23.4362 5.49C23.3762 5.41 23.2612 5.37 23.0912 5.37C22.9312 5.37 22.7362 5.44 22.5062 5.58C22.2762 5.72 22.0362 5.905 21.7862 6.135C21.5462 6.365 21.3162 6.615 21.0962 6.885C20.8862 7.155 20.7162 7.43 20.5862 7.71C20.4562 7.98 20.3912 8.225 20.3912 8.445C20.3912 8.695 20.4712 8.86 20.6312 8.94C20.7912 9.02 20.9662 9.06 21.1562 9.06C21.5162 9.06 21.8712 8.975 22.2212 8.805C22.5712 8.625 22.8912 8.41 23.1812 8.16C23.4812 7.9 23.7362 7.65 23.9462 7.41C24.1562 7.17 24.3062 6.985 24.3962 6.855L24.5312 6.945C24.4512 7.065 24.3012 7.25 24.0812 7.5C23.8612 7.75 23.5912 8.01 23.2712 8.28C22.9612 8.54 22.6162 8.765 22.2362 8.955C21.8562 9.135 21.4562 9.225 21.0362 9.225C20.6962 9.225 20.4112 9.15 20.1812 9C19.9412 8.84 19.8212 8.595 19.8212 8.265C19.8212 7.985 19.9012 7.675 20.0612 7.335C20.2212 6.985 20.4412 6.655 20.7212 6.345C21.0112 6.025 21.3512 5.765 21.7412 5.565C22.1412 5.355 22.5812 5.25 23.0612 5.25C23.2512 5.25 23.4162 5.29 23.5562 5.37C23.6962 5.45 23.7662 5.59 23.7662 5.79C23.7662 5.97 23.7012 6.12 23.5712 6.24C23.4512 6.35 23.3262 6.405 23.1962 6.405ZM26.9831 5.265C27.4831 5.265 27.7331 5.505 27.7331 5.985C27.7331 6.355 27.6481 6.735 27.4781 7.125C27.3081 7.505 27.0781 7.855 26.7881 8.175C26.4981 8.485 26.1831 8.74 25.8431 8.94C25.5031 9.13 25.1581 9.225 24.8081 9.225C24.5381 9.225 24.3131 9.16 24.1331 9.03C23.9431 8.89 23.8481 8.665 23.8481 8.355C23.8481 8.065 23.9331 7.745 24.1031 7.395C24.2731 7.035 24.5031 6.695 24.7931 6.375C25.0931 6.055 25.4281 5.79 25.7981 5.58C26.1781 5.37 26.5731 5.265 26.9831 5.265ZM27.1481 5.475C26.9781 5.475 26.7781 5.55 26.5481 5.7C26.3181 5.85 26.0831 6.045 25.8431 6.285C25.6031 6.525 25.3781 6.785 25.1681 7.065C24.9681 7.335 24.8031 7.6 24.6731 7.86C24.5531 8.12 24.4931 8.34 24.4931 8.52C24.4931 8.72 24.5481 8.86 24.6581 8.94C24.7681 9.01 24.8931 9.045 25.0331 9.045C25.2631 9.045 25.5231 8.95 25.8131 8.76C26.1031 8.56 26.3831 8.31 26.6531 8.01C26.9231 7.71 27.1431 7.395 27.3131 7.065C27.4931 6.725 27.5831 6.415 27.5831 6.135C27.5831 5.875 27.5381 5.7 27.4481 5.61C27.3581 5.52 27.2581 5.475 27.1481 5.475ZM27.4181 7.02C27.4681 7.02 27.4881 7.04 27.4781 7.08C27.4781 7.11 27.4531 7.125 27.4031 7.125C27.3631 7.125 27.3031 7.18 27.2231 7.29C27.1531 7.39 27.0881 7.495 27.0281 7.605C26.9681 7.715 26.9381 7.775 26.9381 7.785C26.9381 8.015 27.0231 8.13 27.1931 8.13C27.3531 8.13 27.5331 8.055 27.7331 7.905C27.9431 7.755 28.1431 7.585 28.3331 7.395C28.5331 7.195 28.6931 7.02 28.8131 6.87L28.9331 6.975C28.8031 7.125 28.6381 7.305 28.4381 7.515C28.2381 7.715 28.0281 7.895 27.8081 8.055C27.5881 8.205 27.3831 8.28 27.1931 8.28C27.0331 8.28 26.9231 8.245 26.8631 8.175C26.8031 8.105 26.7731 7.98 26.7731 7.8C26.7731 7.56 26.8531 7.37 27.0131 7.23C27.1831 7.09 27.3181 7.02 27.4181 7.02ZM34.3023 9.225C34.0823 9.225 33.9073 9.18 33.7773 9.09C33.6473 9 33.5823 8.885 33.5823 8.745C33.5823 8.565 33.6523 8.365 33.7923 8.145C33.9323 7.915 34.1023 7.675 34.3023 7.425C34.5123 7.175 34.7173 6.935 34.9173 6.705C35.1273 6.465 35.3023 6.25 35.4423 6.06C35.5823 5.87 35.6523 5.715 35.6523 5.595C35.6523 5.515 35.6323 5.46 35.5923 5.43C35.5523 5.4 35.4823 5.385 35.3823 5.385C35.2323 5.385 35.0323 5.465 34.7823 5.625C34.5423 5.775 34.2723 5.985 33.9723 6.255C33.6823 6.515 33.3823 6.81 33.0723 7.14C32.7723 7.46 32.4823 7.79 32.2023 8.13C31.9223 8.47 31.6823 8.79 31.4823 9.09C31.3623 9.05 31.2273 9.035 31.0773 9.045C30.9273 9.055 30.7673 9.075 30.5973 9.105C30.8273 8.815 31.0873 8.495 31.3773 8.145C31.6773 7.785 31.9623 7.435 32.2323 7.095C32.5023 6.755 32.7273 6.45 32.9073 6.18C33.0873 5.9 33.1773 5.695 33.1773 5.565C33.1773 5.495 33.1473 5.45 33.0873 5.43C33.0373 5.4 32.9623 5.385 32.8623 5.385C32.6523 5.385 32.3823 5.51 32.0523 5.76C31.7223 6.01 31.3723 6.33 31.0023 6.72C30.6323 7.1 30.2673 7.505 29.9073 7.935C29.5573 8.355 29.2473 8.74 28.9773 9.09C28.8773 9.06 28.7573 9.045 28.6173 9.045C28.4773 9.035 28.3073 9.055 28.1073 9.105C28.4773 8.555 28.8423 8.035 29.2023 7.545C29.5723 7.045 29.8773 6.615 30.1173 6.255C30.3673 5.895 30.4923 5.655 30.4923 5.535C30.4923 5.505 30.4823 5.485 30.4623 5.475C30.4523 5.455 30.4323 5.445 30.4023 5.445C30.3023 5.445 30.1623 5.54 29.9823 5.73C29.8123 5.92 29.6323 6.135 29.4423 6.375C29.2523 6.615 29.0823 6.82 28.9323 6.99L28.7973 6.9C28.8973 6.79 29.0173 6.645 29.1573 6.465C29.2973 6.275 29.4473 6.09 29.6073 5.91C29.7773 5.72 29.9473 5.56 30.1173 5.43C30.2873 5.3 30.4523 5.235 30.6123 5.235C30.7323 5.235 30.8323 5.27 30.9123 5.34C31.0023 5.4 31.0473 5.48 31.0473 5.58C31.0473 5.71 31.0073 5.855 30.9273 6.015C30.8473 6.165 30.7373 6.34 30.5973 6.54C30.4573 6.73 30.2973 6.94 30.1173 7.17C29.9473 7.4 29.7673 7.655 29.5773 7.935L29.6073 7.995C29.8073 7.785 30.0123 7.555 30.2223 7.305C30.4423 7.055 30.6673 6.81 30.8973 6.57C31.1273 6.33 31.3573 6.11 31.5873 5.91C31.8173 5.71 32.0523 5.55 32.2923 5.43C32.5323 5.31 32.7673 5.25 32.9973 5.25C33.2373 5.25 33.4023 5.31 33.4923 5.43C33.5823 5.55 33.6273 5.665 33.6273 5.775C33.6273 5.935 33.5973 6.095 33.5373 6.255C33.4773 6.415 33.4023 6.57 33.3123 6.72C33.2223 6.86 33.1323 6.99 33.0423 7.11C32.9523 7.22 32.8723 7.31 32.8023 7.38C32.7323 7.45 32.6923 7.495 32.6823 7.515L32.5923 7.44C32.6623 7.37 32.7723 7.25 32.9223 7.08C33.0723 6.91 33.2473 6.725 33.4473 6.525C33.6573 6.315 33.8773 6.115 34.1073 5.925C34.3373 5.725 34.5673 5.565 34.7973 5.445C35.0273 5.315 35.2473 5.25 35.4573 5.25C35.7073 5.25 35.8773 5.315 35.9673 5.445C36.0673 5.565 36.1173 5.675 36.1173 5.775C36.1173 5.995 36.0473 6.24 35.9073 6.51C35.7673 6.77 35.5923 7.035 35.3823 7.305C35.1723 7.565 34.9623 7.81 34.7523 8.04C34.5423 8.27 34.3673 8.465 34.2273 8.625C34.0873 8.775 34.0173 8.87 34.0173 8.91C34.0173 9 34.1223 9.045 34.3323 9.045C34.6023 9.045 34.8723 8.96 35.1423 8.79C35.4223 8.62 35.6873 8.415 35.9373 8.175C36.1873 7.925 36.4123 7.68 36.6123 7.44C36.8223 7.19 36.9923 6.995 37.1223 6.855L37.2423 6.945C37.1223 7.075 36.9523 7.265 36.7323 7.515C36.5223 7.765 36.2823 8.025 36.0123 8.295C35.7423 8.555 35.4623 8.775 35.1723 8.955C34.8823 9.135 34.5923 9.225 34.3023 9.225ZM37.7787 9.225C37.3087 9.225 36.9987 9.12 36.8487 8.91C36.6987 8.69 36.6237 8.46 36.6237 8.22C36.6237 7.81 36.7287 7.43 36.9387 7.08C37.1487 6.72 37.4187 6.4 37.7487 6.12C38.0787 5.84 38.4187 5.625 38.7687 5.475C39.1287 5.315 39.4487 5.235 39.7287 5.235C39.9287 5.235 40.0887 5.265 40.2087 5.325C40.3287 5.375 40.3887 5.485 40.3887 5.655C40.3887 5.815 40.2937 5.985 40.1037 6.165C39.9137 6.345 39.6737 6.52 39.3837 6.69C39.0937 6.85 38.7887 7 38.4687 7.14C38.1587 7.27 37.8737 7.375 37.6137 7.455C37.3537 7.535 37.1637 7.575 37.0437 7.575C37.0437 7.575 37.0437 7.55 37.0437 7.5C37.0437 7.44 37.0437 7.41 37.0437 7.41C37.1337 7.42 37.2887 7.39 37.5087 7.32C37.7387 7.25 37.9937 7.16 38.2737 7.05C38.5537 6.93 38.8237 6.795 39.0837 6.645C39.3537 6.495 39.5737 6.335 39.7437 6.165C39.9237 5.995 40.0137 5.83 40.0137 5.67C40.0137 5.59 39.9887 5.52 39.9387 5.46C39.8987 5.4 39.8237 5.37 39.7137 5.37C39.5537 5.37 39.3587 5.45 39.1287 5.61C38.9087 5.76 38.6837 5.96 38.4537 6.21C38.2237 6.46 38.0087 6.725 37.8087 7.005C37.6087 7.285 37.4437 7.555 37.3137 7.815C37.1937 8.065 37.1337 8.275 37.1337 8.445C37.1337 8.645 37.1937 8.795 37.3137 8.895C37.4337 8.995 37.6087 9.045 37.8387 9.045C38.2387 9.045 38.6137 8.95 38.9637 8.76C39.3237 8.56 39.6487 8.33 39.9387 8.07C40.2287 7.8 40.4737 7.55 40.6737 7.32C40.8737 7.08 41.0087 6.925 41.0787 6.855C41.0787 6.855 41.0937 6.87 41.1237 6.9C41.1637 6.93 41.1837 6.945 41.1837 6.945C41.1137 7.025 40.9787 7.185 40.7787 7.425C40.5787 7.665 40.3287 7.925 40.0287 8.205C39.7287 8.485 39.3887 8.725 39.0087 8.925C38.6287 9.125 38.2187 9.225 37.7787 9.225ZM48.5555 2.61C48.6455 2.65 48.7755 2.67 48.9455 2.67C49.1255 2.66 49.2655 2.645 49.3655 2.625C49.0455 3.065 48.6905 3.55 48.3005 4.08C47.9105 4.61 47.5155 5.14 47.1155 5.67C46.7255 6.19 46.3605 6.68 46.0205 7.14C45.6905 7.59 45.4255 7.97 45.2255 8.28C45.0255 8.59 44.9255 8.785 44.9255 8.865C44.9255 8.925 44.9605 8.97 45.0305 9C45.0905 9.03 45.1705 9.045 45.2705 9.045C45.4905 9.045 45.7305 8.97 45.9905 8.82C46.2605 8.66 46.5255 8.465 46.7855 8.235C47.0555 7.995 47.3005 7.755 47.5205 7.515C47.7505 7.265 47.9305 7.05 48.0605 6.87L48.1805 6.96C48.0405 7.14 47.8555 7.355 47.6255 7.605C47.3955 7.855 47.1405 8.105 46.8605 8.355C46.5805 8.605 46.2905 8.815 45.9905 8.985C45.7005 9.145 45.4205 9.225 45.1505 9.225C44.9605 9.225 44.8105 9.185 44.7005 9.105C44.5805 9.035 44.5205 8.91 44.5205 8.73C44.5205 8.57 44.6155 8.325 44.8055 7.995C44.9955 7.655 45.2405 7.265 45.5405 6.825C45.8505 6.385 46.1855 5.92 46.5455 5.43C46.9055 4.93 47.2605 4.44 47.6105 3.96C47.9705 3.47 48.2855 3.02 48.5555 2.61ZM46.9055 4.29C46.8055 4.29 46.7555 4.26 46.7555 4.2C46.7555 4.15 46.8055 4.125 46.9055 4.125H49.7555C49.7855 4.125 49.8155 4.13 49.8455 4.14C49.8855 4.15 49.9055 4.17 49.9055 4.2C49.9055 4.24 49.8855 4.265 49.8455 4.275C49.8155 4.285 49.7855 4.29 49.7555 4.29H46.9055ZM50.6257 5.265C51.1257 5.265 51.3757 5.505 51.3757 5.985C51.3757 6.355 51.2907 6.735 51.1207 7.125C50.9507 7.505 50.7207 7.855 50.4307 8.175C50.1407 8.485 49.8257 8.74 49.4857 8.94C49.1457 9.13 48.8007 9.225 48.4507 9.225C48.1807 9.225 47.9557 9.16 47.7757 9.03C47.5857 8.89 47.4907 8.665 47.4907 8.355C47.4907 8.065 47.5757 7.745 47.7457 7.395C47.9157 7.035 48.1457 6.695 48.4357 6.375C48.7357 6.055 49.0707 5.79 49.4407 5.58C49.8207 5.37 50.2157 5.265 50.6257 5.265ZM50.7907 5.475C50.6207 5.475 50.4207 5.55 50.1907 5.7C49.9607 5.85 49.7257 6.045 49.4857 6.285C49.2457 6.525 49.0207 6.785 48.8107 7.065C48.6107 7.335 48.4457 7.6 48.3157 7.86C48.1957 8.12 48.1357 8.34 48.1357 8.52C48.1357 8.72 48.1907 8.86 48.3007 8.94C48.4107 9.01 48.5357 9.045 48.6757 9.045C48.9057 9.045 49.1657 8.95 49.4557 8.76C49.7457 8.56 50.0257 8.31 50.2957 8.01C50.5657 7.71 50.7857 7.395 50.9557 7.065C51.1357 6.725 51.2257 6.415 51.2257 6.135C51.2257 5.875 51.1807 5.7 51.0907 5.61C51.0007 5.52 50.9007 5.475 50.7907 5.475ZM51.0607 7.02C51.1107 7.02 51.1307 7.04 51.1207 7.08C51.1207 7.11 51.0957 7.125 51.0457 7.125C51.0057 7.125 50.9457 7.18 50.8657 7.29C50.7957 7.39 50.7307 7.495 50.6707 7.605C50.6107 7.715 50.5807 7.775 50.5807 7.785C50.5807 8.015 50.6657 8.13 50.8357 8.13C50.9957 8.13 51.1757 8.055 51.3757 7.905C51.5857 7.755 51.7857 7.585 51.9757 7.395C52.1757 7.195 52.3357 7.02 52.4557 6.87L52.5757 6.975C52.4457 7.125 52.2807 7.305 52.0807 7.515C51.8807 7.715 51.6707 7.895 51.4507 8.055C51.2307 8.205 51.0257 8.28 50.8357 8.28C50.6757 8.28 50.5657 8.245 50.5057 8.175C50.4457 8.105 50.4157 7.98 50.4157 7.8C50.4157 7.56 50.4957 7.37 50.6557 7.23C50.8257 7.09 50.9607 7.02 51.0607 7.02ZM62.442 9.225C62.222 9.225 62.047 9.18 61.917 9.09C61.787 9 61.722 8.885 61.722 8.745C61.722 8.565 61.792 8.365 61.932 8.145C62.072 7.915 62.242 7.675 62.442 7.425C62.652 7.175 62.857 6.935 63.057 6.705C63.267 6.465 63.442 6.25 63.582 6.06C63.722 5.87 63.792 5.715 63.792 5.595C63.792 5.515 63.772 5.46 63.732 5.43C63.692 5.4 63.622 5.385 63.522 5.385C63.372 5.385 63.172 5.465 62.922 5.625C62.682 5.775 62.412 5.985 62.112 6.255C61.822 6.515 61.522 6.81 61.212 7.14C60.912 7.46 60.622 7.79 60.342 8.13C60.062 8.47 59.822 8.79 59.622 9.09C59.502 9.05 59.367 9.035 59.217 9.045C59.067 9.055 58.907 9.075 58.737 9.105C58.967 8.815 59.227 8.495 59.517 8.145C59.817 7.785 60.102 7.435 60.372 7.095C60.642 6.755 60.867 6.45 61.047 6.18C61.227 5.9 61.317 5.695 61.317 5.565C61.317 5.495 61.287 5.45 61.227 5.43C61.177 5.4 61.102 5.385 61.002 5.385C60.792 5.385 60.522 5.51 60.192 5.76C59.862 6.01 59.512 6.33 59.142 6.72C58.772 7.1 58.407 7.505 58.047 7.935C57.697 8.355 57.387 8.74 57.117 9.09C57.017 9.06 56.897 9.045 56.757 9.045C56.617 9.035 56.447 9.055 56.247 9.105C56.617 8.555 56.982 8.035 57.342 7.545C57.712 7.045 58.017 6.615 58.257 6.255C58.507 5.895 58.632 5.655 58.632 5.535C58.632 5.505 58.622 5.485 58.602 5.475C58.592 5.455 58.572 5.445 58.542 5.445C58.442 5.445 58.302 5.54 58.122 5.73C57.952 5.92 57.772 6.135 57.582 6.375C57.392 6.615 57.222 6.82 57.072 6.99L56.937 6.9C57.037 6.79 57.157 6.645 57.297 6.465C57.437 6.275 57.587 6.09 57.747 5.91C57.917 5.72 58.087 5.56 58.257 5.43C58.427 5.3 58.592 5.235 58.752 5.235C58.872 5.235 58.972 5.27 59.052 5.34C59.142 5.4 59.187 5.48 59.187 5.58C59.187 5.71 59.147 5.855 59.067 6.015C58.987 6.165 58.877 6.34 58.737 6.54C58.597 6.73 58.437 6.94 58.257 7.17C58.087 7.4 57.907 7.655 57.717 7.935L57.747 7.995C57.947 7.785 58.152 7.555 58.362 7.305C58.582 7.055 58.807 6.81 59.037 6.57C59.267 6.33 59.497 6.11 59.727 5.91C59.957 5.71 60.192 5.55 60.432 5.43C60.672 5.31 60.907 5.25 61.137 5.25C61.377 5.25 61.542 5.31 61.632 5.43C61.722 5.55 61.767 5.665 61.767 5.775C61.767 5.935 61.737 6.095 61.677 6.255C61.617 6.415 61.542 6.57 61.452 6.72C61.362 6.86 61.272 6.99 61.182 7.11C61.092 7.22 61.012 7.31 60.942 7.38C60.872 7.45 60.832 7.495 60.822 7.515L60.732 7.44C60.802 7.37 60.912 7.25 61.062 7.08C61.212 6.91 61.387 6.725 61.587 6.525C61.797 6.315 62.017 6.115 62.247 5.925C62.477 5.725 62.707 5.565 62.937 5.445C63.167 5.315 63.387 5.25 63.597 5.25C63.847 5.25 64.017 5.315 64.107 5.445C64.207 5.565 64.257 5.675 64.257 5.775C64.257 5.995 64.187 6.24 64.047 6.51C63.907 6.77 63.732 7.035 63.522 7.305C63.312 7.565 63.102 7.81 62.892 8.04C62.682 8.27 62.507 8.465 62.367 8.625C62.227 8.775 62.157 8.87 62.157 8.91C62.157 9 62.262 9.045 62.472 9.045C62.742 9.045 63.012 8.96 63.282 8.79C63.562 8.62 63.827 8.415 64.077 8.175C64.327 7.925 64.552 7.68 64.752 7.44C64.962 7.19 65.132 6.995 65.262 6.855L65.382 6.945C65.262 7.075 65.092 7.265 64.872 7.515C64.662 7.765 64.422 8.025 64.152 8.295C63.882 8.555 63.602 8.775 63.312 8.955C63.022 9.135 62.732 9.225 62.442 9.225ZM66.7133 5.28C66.8533 5.32 66.9983 5.34 67.1483 5.34C67.2983 5.33 67.4533 5.32 67.6133 5.31C67.3433 5.57 67.0383 5.88 66.6983 6.24C66.3683 6.59 66.0483 6.945 65.7383 7.305C65.4383 7.655 65.1883 7.97 64.9883 8.25C64.7883 8.52 64.6883 8.705 64.6883 8.805C64.6883 8.875 64.7133 8.94 64.7633 9C64.8133 9.05 64.8983 9.075 65.0183 9.075C65.3683 9.075 65.7283 8.97 66.0983 8.76C66.4783 8.55 66.8433 8.285 67.1933 7.965C67.5533 7.635 67.8883 7.295 68.1983 6.945C68.5083 6.585 68.7783 6.26 69.0083 5.97C69.2483 5.67 69.4233 5.45 69.5333 5.31C69.6133 5.33 69.7433 5.34 69.9233 5.34C70.1133 5.34 70.2433 5.335 70.3133 5.325C69.2833 6.565 68.3783 7.705 67.5983 8.745C66.8283 9.775 66.1333 10.66 65.5133 11.4C64.8933 12.15 64.3033 12.73 63.7433 13.14C63.1733 13.55 62.5783 13.755 61.9583 13.755C61.5783 13.755 61.3883 13.605 61.3883 13.305C61.3883 13.085 61.5283 12.855 61.8083 12.615C62.0783 12.375 62.4433 12.125 62.9033 11.865C63.3633 11.615 63.8733 11.365 64.4333 11.115C64.9933 10.865 65.5633 10.625 66.1433 10.395C66.9033 10.095 67.5283 9.765 68.0183 9.405C68.5183 9.055 68.9533 8.67 69.3233 8.25C69.7033 7.83 70.0883 7.37 70.4783 6.87L70.5983 6.945C70.1983 7.455 69.8033 7.925 69.4133 8.355C69.0233 8.775 68.5783 9.165 68.0783 9.525C67.5783 9.885 66.9483 10.22 66.1883 10.53C65.6183 10.76 65.0633 10.995 64.5233 11.235C63.9733 11.485 63.4783 11.725 63.0383 11.955C62.5883 12.195 62.2333 12.43 61.9733 12.66C61.7033 12.89 61.5683 13.105 61.5683 13.305C61.5683 13.425 61.6083 13.5 61.6883 13.53C61.7683 13.57 61.8733 13.59 62.0033 13.59C62.3133 13.59 62.6483 13.47 63.0083 13.23C63.3583 12.99 63.7283 12.665 64.1183 12.255C64.5083 11.845 64.9033 11.38 65.3033 10.86C65.7133 10.35 66.1283 9.82 66.5483 9.27C66.9683 8.72 67.3933 8.185 67.8233 7.665L67.7633 7.635C67.7433 7.665 67.6733 7.74 67.5533 7.86C67.4333 7.98 67.2783 8.115 67.0883 8.265C66.8983 8.415 66.6833 8.565 66.4433 8.715C66.2033 8.865 65.9483 8.99 65.6783 9.09C65.4183 9.18 65.1533 9.225 64.8833 9.225C64.6933 9.225 64.5483 9.18 64.4483 9.09C64.3383 9.01 64.2833 8.895 64.2833 8.745C64.2833 8.505 64.3633 8.235 64.5233 7.935C64.6833 7.625 64.8933 7.31 65.1533 6.99C65.4033 6.67 65.6683 6.36 65.9483 6.06C66.2283 5.76 66.4833 5.5 66.7133 5.28ZM77.4292 3.585C77.5492 3.605 77.6942 3.615 77.8642 3.615C78.0442 3.615 78.1942 3.6 78.3142 3.57C78.2542 3.65 78.1592 3.77 78.0292 3.93C77.9092 4.08 77.7642 4.26 77.5942 4.47C77.4242 4.67 77.2442 4.885 77.0542 5.115C76.8742 5.345 76.6842 5.585 76.4842 5.835C76.2942 6.075 76.1092 6.31 75.9292 6.54C75.7492 6.76 75.5842 6.97 75.4342 7.17C75.2942 7.37 75.1742 7.54 75.0742 7.68L75.1192 7.725C75.3692 7.505 75.6042 7.29 75.8242 7.08C76.0542 6.87 76.2742 6.675 76.4842 6.495C76.6942 6.315 76.8992 6.15 77.0992 6C77.2992 5.85 77.4942 5.72 77.6842 5.61C77.8742 5.5 78.0542 5.415 78.2242 5.355C78.4042 5.295 78.5792 5.265 78.7492 5.265C79.0092 5.265 79.1742 5.31 79.2442 5.4C79.3142 5.49 79.3492 5.605 79.3492 5.745C79.3492 6.025 79.2592 6.295 79.0792 6.555C78.8992 6.805 78.6792 7.045 78.4192 7.275C78.1592 7.505 77.8942 7.715 77.6242 7.905C77.3642 8.095 77.1442 8.27 76.9642 8.43C76.7842 8.58 76.6942 8.705 76.6942 8.805C76.6942 8.905 76.7292 8.975 76.7992 9.015C76.8692 9.055 76.9542 9.075 77.0542 9.075C77.3642 9.075 77.6892 8.96 78.0292 8.73C78.3692 8.5 78.7042 8.22 79.0342 7.89C79.3642 7.55 79.6642 7.215 79.9342 6.885L80.0692 6.975C79.7892 7.295 79.4792 7.63 79.1392 7.98C78.8092 8.33 78.4642 8.625 78.1042 8.865C77.7542 9.105 77.4092 9.225 77.0692 9.225C76.7892 9.225 76.6042 9.165 76.5142 9.045C76.4342 8.915 76.3942 8.795 76.3942 8.685C76.3942 8.405 76.4842 8.14 76.6642 7.89C76.8442 7.64 77.0642 7.405 77.3242 7.185C77.5842 6.965 77.8442 6.76 78.1042 6.57C78.3642 6.38 78.5842 6.205 78.7642 6.045C78.9442 5.885 79.0342 5.74 79.0342 5.61C79.0342 5.55 79.0142 5.505 78.9742 5.475C78.9342 5.435 78.8592 5.415 78.7492 5.415C78.5092 5.415 78.2342 5.5 77.9242 5.67C77.6142 5.83 77.2892 6.04 76.9492 6.3C76.6192 6.56 76.2892 6.84 75.9592 7.14C75.6392 7.44 75.3392 7.735 75.0592 8.025C74.7892 8.315 74.5642 8.565 74.3842 8.775C74.1942 8.985 74.0642 9.125 73.9942 9.195C73.9442 9.255 73.8442 9.39 73.6942 9.6C73.5442 9.81 73.3742 10.06 73.1842 10.35C72.9842 10.65 72.7792 10.96 72.5692 11.28C72.3592 11.6 72.1642 11.9 71.9842 12.18C71.7942 12.47 71.6442 12.71 71.5342 12.9C71.4142 13.09 71.3442 13.205 71.3242 13.245C71.2842 13.275 71.1942 13.295 71.0542 13.305C70.9142 13.315 70.7792 13.315 70.6492 13.305C70.5092 13.295 70.4142 13.275 70.3642 13.245C70.3742 13.225 70.4792 13.08 70.6792 12.81C70.8792 12.55 71.1392 12.195 71.4592 11.745C71.7792 11.305 72.1442 10.805 72.5542 10.245C72.9542 9.695 73.3692 9.125 73.7992 8.535C74.2292 7.945 74.6492 7.37 75.0592 6.81C75.4692 6.24 75.8442 5.725 76.1842 5.265C76.5342 4.795 76.8192 4.415 77.0392 4.125C77.2592 3.825 77.3892 3.645 77.4292 3.585ZM79.935 7.125C79.895 7.165 79.865 7.17 79.845 7.14C79.825 7.1 79.82 7.06 79.83 7.02C80 6.85 80.165 6.65 80.325 6.42C80.495 6.19 80.635 5.975 80.745 5.775C80.865 5.575 80.935 5.44 80.955 5.37C80.975 5.37 81.005 5.355 81.045 5.325C81.095 5.295 81.14 5.285 81.18 5.295C81.17 5.365 81.155 5.43 81.135 5.49C81.125 5.55 81.16 5.605 81.24 5.655C81.32 5.705 81.485 5.755 81.735 5.805C81.985 5.855 82.365 5.91 82.875 5.97C82.925 5.98 82.96 6 82.98 6.03C83.01 6.05 82.995 6.085 82.935 6.135C82.745 6.285 82.535 6.475 82.305 6.705C82.075 6.935 81.85 7.18 81.63 7.44C81.42 7.69 81.245 7.935 81.105 8.175C80.975 8.415 80.91 8.615 80.91 8.775C80.91 8.955 80.99 9.045 81.15 9.045C81.35 9.045 81.575 8.965 81.825 8.805C82.085 8.645 82.345 8.45 82.605 8.22C82.865 7.98 83.105 7.74 83.325 7.5C83.555 7.25 83.745 7.045 83.895 6.885L84.015 6.975C83.875 7.115 83.695 7.31 83.475 7.56C83.255 7.81 83.005 8.065 82.725 8.325C82.455 8.575 82.165 8.79 81.855 8.97C81.545 9.14 81.225 9.225 80.895 9.225C80.705 9.225 80.535 9.18 80.385 9.09C80.235 9.01 80.16 8.86 80.16 8.64C80.16 8.43 80.25 8.21 80.43 7.98C80.61 7.75 80.835 7.52 81.105 7.29C81.375 7.05 81.655 6.825 81.945 6.615C82.245 6.395 82.51 6.195 82.74 6.015L82.845 6.15C82.745 6.11 82.57 6.075 82.32 6.045C82.07 6.005 81.81 5.955 81.54 5.895C81.27 5.825 81.035 5.735 80.835 5.625C80.645 5.515 80.55 5.365 80.55 5.175C80.55 5.075 80.59 4.955 80.67 4.815C80.76 4.665 80.88 4.59 81.03 4.59C81.17 4.59 81.265 4.62 81.315 4.68C81.365 4.73 81.39 4.8 81.39 4.89C81.39 4.95 81.34 5.075 81.24 5.265C81.14 5.445 81.015 5.66 80.865 5.91C80.715 6.15 80.555 6.38 80.385 6.6C80.225 6.82 80.075 6.995 79.935 7.125ZM86.4704 5.265C86.9704 5.265 87.2204 5.505 87.2204 5.985C87.2204 6.355 87.1354 6.735 86.9654 7.125C86.7954 7.505 86.5654 7.855 86.2754 8.175C85.9854 8.485 85.6704 8.74 85.3304 8.94C84.9904 9.13 84.6454 9.225 84.2954 9.225C84.0254 9.225 83.8004 9.16 83.6204 9.03C83.4304 8.89 83.3354 8.665 83.3354 8.355C83.3354 8.065 83.4204 7.745 83.5904 7.395C83.7604 7.035 83.9904 6.695 84.2804 6.375C84.5804 6.055 84.9154 5.79 85.2854 5.58C85.6654 5.37 86.0604 5.265 86.4704 5.265ZM86.6354 5.475C86.4654 5.475 86.2654 5.55 86.0354 5.7C85.8054 5.85 85.5704 6.045 85.3304 6.285C85.0904 6.525 84.8654 6.785 84.6554 7.065C84.4554 7.335 84.2904 7.6 84.1604 7.86C84.0404 8.12 83.9804 8.34 83.9804 8.52C83.9804 8.72 84.0354 8.86 84.1454 8.94C84.2554 9.01 84.3804 9.045 84.5204 9.045C84.7504 9.045 85.0104 8.95 85.3004 8.76C85.5904 8.56 85.8704 8.31 86.1404 8.01C86.4104 7.71 86.6304 7.395 86.8004 7.065C86.9804 6.725 87.0704 6.415 87.0704 6.135C87.0704 5.875 87.0254 5.7 86.9354 5.61C86.8454 5.52 86.7454 5.475 86.6354 5.475ZM86.9054 7.02C86.9554 7.02 86.9754 7.04 86.9654 7.08C86.9654 7.11 86.9404 7.125 86.8904 7.125C86.8504 7.125 86.7904 7.18 86.7104 7.29C86.6404 7.39 86.5754 7.495 86.5154 7.605C86.4554 7.715 86.4254 7.775 86.4254 7.785C86.4254 8.015 86.5104 8.13 86.6804 8.13C86.8404 8.13 87.0204 8.055 87.2204 7.905C87.4304 7.755 87.6304 7.585 87.8204 7.395C88.0204 7.195 88.1804 7.02 88.3004 6.87L88.4204 6.975C88.2904 7.125 88.1254 7.305 87.9254 7.515C87.7254 7.715 87.5154 7.895 87.2954 8.055C87.0754 8.205 86.8704 8.28 86.6804 8.28C86.5204 8.28 86.4104 8.245 86.3504 8.175C86.2904 8.105 86.2604 7.98 86.2604 7.8C86.2604 7.56 86.3404 7.37 86.5004 7.23C86.6704 7.09 86.8054 7.02 86.9054 7.02ZM85.2696 13.74C85.0796 13.74 84.9296 13.68 84.8196 13.56C84.7096 13.45 84.6546 13.3 84.6546 13.11C84.6546 12.78 84.8246 12.315 85.1646 11.715C85.5046 11.125 85.9546 10.415 86.5146 9.585C87.0646 8.755 87.6646 7.84 88.3146 6.84C88.8546 6.01 89.3846 5.195 89.9046 4.395C90.4246 3.585 90.9196 2.855 91.3896 2.205C91.8596 1.555 92.2896 1.04 92.6796 0.659996C93.0696 0.269996 93.4046 0.0749962 93.6846 0.0749962C94.0146 0.0749962 94.1796 0.274996 94.1796 0.674996C94.1796 0.994996 94.0746 1.365 93.8646 1.785C93.6646 2.205 93.3946 2.65 93.0546 3.12C92.7146 3.58 92.3346 4.04 91.9146 4.5C91.4946 4.95 91.0646 5.375 90.6246 5.775C90.1946 6.175 89.7846 6.52 89.3946 6.81C89.0146 7.1 88.6846 7.31 88.4046 7.44C88.3346 7.47 88.2946 7.455 88.2846 7.395C88.2846 7.325 88.3196 7.275 88.3896 7.245C88.6496 7.125 88.9596 6.925 89.3196 6.645C89.6896 6.355 90.0796 6.015 90.4896 5.625C90.9096 5.225 91.3196 4.8 91.7196 4.35C92.1296 3.9 92.4996 3.45 92.8296 3C93.1596 2.54 93.4246 2.105 93.6246 1.695C93.8246 1.275 93.9246 0.909996 93.9246 0.599996C93.9246 0.489996 93.8996 0.399996 93.8496 0.329996C93.7996 0.249996 93.7346 0.209996 93.6546 0.209996C93.4946 0.209996 93.2646 0.394996 92.9646 0.764996C92.6746 1.135 92.3246 1.645 91.9146 2.295C91.5046 2.935 91.0396 3.67 90.5196 4.5C90.0096 5.33 89.4496 6.2 88.8396 7.11C88.3896 7.78 87.9396 8.455 87.4896 9.135C87.0396 9.825 86.6296 10.465 86.2596 11.055C85.8796 11.645 85.5746 12.14 85.3446 12.54C85.1146 12.95 84.9996 13.21 84.9996 13.32C84.9996 13.42 85.0346 13.49 85.1046 13.53C85.1646 13.57 85.2346 13.59 85.3146 13.59C85.4946 13.59 85.7246 13.44 86.0046 13.14C86.2846 12.84 86.5696 12.43 86.8596 11.91C87.1396 11.4 87.3796 10.82 87.5796 10.17C87.7696 9.52 87.8646 8.845 87.8646 8.145C87.8646 8.035 87.8946 7.965 87.9546 7.935C88.0046 7.905 88.0296 7.93 88.0296 8.01C88.0296 8.75 87.9446 9.46 87.7746 10.14C87.6046 10.83 87.3846 11.445 87.1146 11.985C86.8346 12.525 86.5346 12.95 86.2146 13.26C85.8846 13.58 85.5696 13.74 85.2696 13.74ZM89.3046 8.28C88.9546 8.28 88.6646 8.22 88.4346 8.1C88.2146 7.97 88.0396 7.815 87.9096 7.635C87.7796 7.455 87.6896 7.275 87.6396 7.095C87.5896 6.905 87.5646 6.745 87.5646 6.615C87.5646 6.485 87.6046 6.38 87.6846 6.3C87.7546 6.21 87.8396 6.165 87.9396 6.165C88.0696 6.165 88.1546 6.205 88.1946 6.285C88.2346 6.365 88.2546 6.435 88.2546 6.495C88.2546 6.635 88.1996 6.76 88.0896 6.87C87.9696 6.98 87.8996 7.045 87.8796 7.065C87.8796 7.065 87.8996 7.12 87.9396 7.23C87.9696 7.34 88.0346 7.465 88.1346 7.605C88.2346 7.745 88.3746 7.87 88.5546 7.98C88.7446 8.09 88.9946 8.145 89.3046 8.145C89.6246 8.145 89.9096 8.09 90.1596 7.98C90.4196 7.86 90.6396 7.725 90.8196 7.575C91.0096 7.415 91.1596 7.265 91.2696 7.125C91.3896 6.985 91.4696 6.895 91.5096 6.855L91.6446 6.945C91.6146 6.985 91.5396 7.075 91.4196 7.215C91.2996 7.355 91.1396 7.51 90.9396 7.68C90.7396 7.84 90.4996 7.98 90.2196 8.1C89.9496 8.22 89.6446 8.28 89.3046 8.28ZM91.1926 9.225C91.0526 9.225 90.8976 9.185 90.7276 9.105C90.5476 9.035 90.4576 8.915 90.4576 8.745C90.4576 8.535 90.5526 8.27 90.7426 7.95C90.9326 7.63 91.1676 7.3 91.4476 6.96C91.7176 6.62 91.9826 6.3 92.2426 6C92.5026 5.7 92.6976 5.465 92.8276 5.295C92.9376 5.305 93.0676 5.31 93.2176 5.31C93.3776 5.31 93.5176 5.305 93.6376 5.295C93.4976 5.465 93.3126 5.68 93.0826 5.94C92.8626 6.2 92.6276 6.48 92.3776 6.78C92.1376 7.07 91.9026 7.355 91.6726 7.635C91.4526 7.915 91.2726 8.165 91.1326 8.385C90.9926 8.605 90.9226 8.765 90.9226 8.865C90.9226 8.935 90.9526 8.985 91.0126 9.015C91.0726 9.045 91.1726 9.06 91.3126 9.06C91.5526 9.06 91.8176 8.97 92.1076 8.79C92.4076 8.6 92.6976 8.375 92.9776 8.115C93.2576 7.855 93.5076 7.61 93.7276 7.38C93.9476 7.14 94.1026 6.965 94.1926 6.855L94.3126 6.96C94.2226 7.06 94.0676 7.235 93.8476 7.485C93.6376 7.725 93.3826 7.98 93.0826 8.25C92.7926 8.52 92.4826 8.75 92.1526 8.94C91.8326 9.13 91.5126 9.225 91.1926 9.225ZM94.1926 4.155C94.0726 4.155 93.9826 4.12 93.9226 4.05C93.8626 3.97 93.8326 3.88 93.8326 3.78C93.8326 3.67 93.8926 3.555 94.0126 3.435C94.1326 3.315 94.2576 3.255 94.3876 3.255C94.5276 3.255 94.6276 3.295 94.6876 3.375C94.7476 3.445 94.7776 3.515 94.7776 3.585C94.7776 3.735 94.7176 3.87 94.5976 3.99C94.4776 4.1 94.3426 4.155 94.1926 4.155ZM98.9733 -3.75509e-06C99.0833 0.019996 99.2183 0.0299959 99.3783 0.0299959C99.5483 0.0299959 99.6833 0.019996 99.7833 -3.75509e-06L94.5633 7.275C94.4033 7.515 94.2483 7.74 94.0983 7.95C93.9483 8.16 93.8283 8.345 93.7383 8.505C93.6383 8.655 93.5883 8.775 93.5883 8.865C93.5883 8.935 93.6183 8.985 93.6783 9.015C93.7283 9.045 93.8033 9.06 93.9033 9.06C94.1333 9.06 94.3883 8.98 94.6683 8.82C94.9483 8.65 95.2233 8.44 95.4933 8.19C95.7733 7.94 96.0283 7.695 96.2583 7.455C96.4983 7.215 96.6883 7.02 96.8283 6.87L96.9333 6.96C96.8033 7.1 96.6233 7.295 96.3933 7.545C96.1633 7.795 95.8983 8.05 95.5983 8.31C95.3083 8.56 95.0033 8.775 94.6833 8.955C94.3733 9.135 94.0683 9.225 93.7683 9.225C93.6083 9.225 93.4733 9.18 93.3633 9.09C93.2433 9 93.1833 8.87 93.1833 8.7C93.1833 8.59 93.2233 8.45 93.3033 8.28C93.3833 8.11 93.4833 7.935 93.6033 7.755C93.7133 7.565 93.8233 7.395 93.9333 7.245C94.0333 7.085 94.1133 6.965 94.1733 6.885L98.9733 -3.75509e-06ZM97.515 9.225C97.045 9.225 96.735 9.12 96.585 8.91C96.435 8.69 96.36 8.46 96.36 8.22C96.36 7.81 96.465 7.43 96.675 7.08C96.885 6.72 97.155 6.4 97.485 6.12C97.815 5.84 98.155 5.625 98.505 5.475C98.865 5.315 99.185 5.235 99.465 5.235C99.665 5.235 99.825 5.265 99.945 5.325C100.065 5.375 100.125 5.485 100.125 5.655C100.125 5.815 100.03 5.985 99.84 6.165C99.65 6.345 99.41 6.52 99.12 6.69C98.83 6.85 98.525 7 98.205 7.14C97.895 7.27 97.61 7.375 97.35 7.455C97.09 7.535 96.9 7.575 96.78 7.575C96.78 7.575 96.78 7.55 96.78 7.5C96.78 7.44 96.78 7.41 96.78 7.41C96.87 7.42 97.025 7.39 97.245 7.32C97.475 7.25 97.73 7.16 98.01 7.05C98.29 6.93 98.56 6.795 98.82 6.645C99.09 6.495 99.31 6.335 99.48 6.165C99.66 5.995 99.75 5.83 99.75 5.67C99.75 5.59 99.725 5.52 99.675 5.46C99.635 5.4 99.56 5.37 99.45 5.37C99.29 5.37 99.095 5.45 98.865 5.61C98.645 5.76 98.42 5.96 98.19 6.21C97.96 6.46 97.745 6.725 97.545 7.005C97.345 7.285 97.18 7.555 97.05 7.815C96.93 8.065 96.87 8.275 96.87 8.445C96.87 8.645 96.93 8.795 97.05 8.895C97.17 8.995 97.345 9.045 97.575 9.045C97.975 9.045 98.35 8.95 98.7 8.76C99.06 8.56 99.385 8.33 99.675 8.07C99.965 7.8 100.21 7.55 100.41 7.32C100.61 7.08 100.745 6.925 100.815 6.855C100.815 6.855 100.83 6.87 100.86 6.9C100.9 6.93 100.92 6.945 100.92 6.945C100.85 7.025 100.715 7.185 100.515 7.425C100.315 7.665 100.065 7.925 99.765 8.205C99.465 8.485 99.125 8.725 98.745 8.925C98.365 9.125 97.955 9.225 97.515 9.225Z" fill="#BB8ED0"/>
</svg>
